<svg width="48" height="48" viewBox="0 0 48 48" fill="none" xmlns="http://www.w3.org/2000/svg">
<path d="M42 24C42 33.9412 33.9412 42 24 42C14.0589 42 6 33.9412 6 24C6 14.0589 14.0589 6 24 6M34 24C34 29.5228 29.5228 34 24 34C18.4772 34 14 29.5228 14 24C14 18.4772 18.4772 14 24 14M29.5158 18.7032L37.4338 19.5348L41.7258 13.5258L36.5752 11.809L34.8584 6.65842L28.8494 10.9506L29.5158 18.7032ZM29.5158 18.7032L24 23.9998" stroke="#FFFEFD" stroke-opacity="0.4" stroke-width="2" stroke-linecap="round" stroke-linejoin="round"/>
</svg>
