<svg width="48" height="48" viewBox="0 0 48 48" fill="none" xmlns="http://www.w3.org/2000/svg">
<path d="M26 40V36C26 30.4772 21.5228 26 16 26C10.4772 26 6 30.4772 6 36V40H26ZM26 40H42V38C42 32.109 37.5228 28 32 28C29.1734 28 26.6206 29.251 24.8018 31.2622M22 14C22 17.3137 19.3137 20 16 20C12.6863 20 10 17.3137 10 14C10 10.6863 12.6863 8 16 8C19.3137 8 22 10.6863 22 14ZM36 18C36 20.2092 34.2092 22 32 22C29.7908 22 28 20.2092 28 18C28 15.7909 29.7908 14 32 14C34.2092 14 36 15.7909 36 18Z" stroke="#FFFEFD" stroke-opacity="0.4" stroke-width="2" stroke-linecap="round" stroke-linejoin="round"/>
</svg>
