<svg width="48" height="48" viewBox="0 0 48 48" fill="none" xmlns="http://www.w3.org/2000/svg">
<path d="M31 17H31.02M21 15H21.02M15 23H15.02M24 42C14.0589 42 6 33.9412 6 24C6 14.0589 14.0589 6 24 6C33.9412 6 42 14.0589 42 24C42 27.3138 39.3138 30 36 30H34.8C34.0568 30 33.6852 30 33.3742 30.0492C31.6626 30.3204 30.3204 31.6626 30.0492 33.3742C30 33.6852 30 34.0568 30 34.8V36C30 39.3138 27.3138 42 24 42ZM32 17C32 17.5523 31.5522 18 31 18C30.4478 18 30 17.5523 30 17C30 16.4477 30.4478 16 31 16C31.5522 16 32 16.4477 32 17ZM22 15C22 15.5523 21.5522 16 21 16C20.4478 16 20 15.5523 20 15C20 14.4477 20.4478 14 21 14C21.5522 14 22 14.4477 22 15ZM16 23C16 23.5522 15.5523 24 15 24C14.4477 24 14 23.5522 14 23C14 22.4478 14.4477 22 15 22C15.5523 22 16 22.4478 16 23Z" stroke="#FFFEFD" stroke-opacity="0.4" stroke-width="2" stroke-linecap="round" stroke-linejoin="round"/>
</svg>
