<svg width="15" height="15" viewBox="0 0 15 15" fill="none" xmlns="http://www.w3.org/2000/svg">
<path d="M6.17113 7.49528C6.48241 7.33381 6.71774 7.15397 6.879 6.95963C7.1659 6.60962 7.30748 6.14552 7.30748 5.57023C7.30748 5.01041 7.1659 4.5318 6.88275 4.13055C6.41021 3.47694 5.61046 3.1424 4.47974 3.125H0V12.5549H4.17691C4.64757 12.5549 5.08354 12.5134 5.4867 12.4283C5.88986 12.3422 6.23864 12.1846 6.53397 11.9545C6.7965 11.7544 7.01589 11.5059 7.19028 11.2129C7.46593 10.7701 7.60375 10.2683 7.60375 9.70943C7.60375 9.16798 7.4828 8.70678 7.24278 8.32776C6.99995 7.94874 6.64367 7.67125 6.17113 7.49528ZM1.84796 4.76289H3.86563C4.3091 4.76289 4.67476 4.8122 4.96166 4.90985C5.29356 5.05198 5.45951 5.34108 5.45951 5.78198C5.45951 6.17743 5.33294 6.45395 5.0826 6.60962C4.8304 6.76529 4.50318 6.84361 4.1019 6.84361H1.84796V4.76289ZM5.03854 10.7527C4.8154 10.8639 4.50131 10.919 4.09909 10.919H1.84796V8.40414H4.13003C4.52756 8.40704 4.83696 8.46119 5.05823 8.56271C5.45201 8.74642 5.64796 9.08289 5.64796 9.57503C5.64796 10.1552 5.44545 10.5458 5.03854 10.7527Z" fill="#080D10"/>
<path d="M13.5584 3.5649H9.58589V4.73869H13.5584V3.5649Z" fill="#080D10"/>
<path d="M14.9387 8.19721C14.8562 7.65092 14.6744 7.17039 14.3912 6.7556C14.0809 6.28569 13.6871 5.94149 13.208 5.72394C12.7308 5.50543 12.1935 5.39617 11.5953 5.39714C10.5912 5.39714 9.77551 5.72104 9.14452 6.36401C8.5154 7.00892 8.20038 7.93615 8.20038 9.14474C8.20038 10.4336 8.54822 11.3647 9.24765 11.9361C9.94427 12.5085 10.7487 12.7937 11.6619 12.7937C12.7673 12.7937 13.6271 12.4544 14.2412 11.7775C14.634 11.3502 14.8562 10.9296 14.905 10.5167H13.0748C12.9689 10.7207 12.8461 10.8803 12.7054 10.9963C12.4504 11.209 12.1185 11.3154 11.7116 11.3154C11.3244 11.3154 10.9962 11.2274 10.7225 11.0524C10.2705 10.772 10.0343 10.2808 10.0043 9.58177H14.9988C15.0063 8.97941 14.9875 8.51628 14.9387 8.19721ZM10.0493 8.37801C10.1149 7.92455 10.2743 7.56487 10.5274 7.29898C10.7806 7.03406 11.1387 6.90063 11.5972 6.89966C12.0201 6.89966 12.3735 7.02439 12.6614 7.27481C12.9455 7.52716 13.1058 7.89361 13.1386 8.37801H10.0493Z" fill="#080D10"/>
</svg>
