<svg width="16" height="16" viewBox="0 0 16 16" fill="none" xmlns="http://www.w3.org/2000/svg">
<mask id="mask0_4720_11208" style="mask-type:luminance" maskUnits="userSpaceOnUse" x="0" y="0" width="16" height="16">
<path d="M15.4981 8.00051C15.4981 9.9899 14.7078 11.8978 13.3011 13.3045C11.8944 14.7112 9.98648 15.5015 7.99709 15.5015C6.00771 15.5015 4.0998 14.7112 2.69309 13.3045C1.28638 11.8978 0.496094 9.9899 0.496094 8.00051C0.496094 6.01112 1.28638 4.10321 2.69309 2.6965C4.0998 1.28979 6.00771 0.499512 7.99709 0.499512C9.98648 0.499512 11.8944 1.28979 13.3011 2.6965C14.7078 4.10321 15.4981 6.01112 15.4981 8.00051Z" fill="white"/>
</mask>
<g mask="url(#mask0_4720_11208)">
<path d="M0.5 0.5H15.5V15.5H0.5V0.5Z" fill="#2B4896"/>
<mask id="mask1_4720_11208" style="mask-type:luminance" maskUnits="userSpaceOnUse" x="0" y="0" width="8" height="8">
<path d="M0.5 0.5H8V8H0.5V0.5Z" fill="white"/>
</mask>
<g mask="url(#mask1_4720_11208)">
<path d="M0.5 0.5H8V8H0.5V0.5Z" fill="#2B4896"/>
<path d="M3.81543 3.82324L-0.194824 8.27148H0.590332V8.52002L4.35644 4.29443L3.81543 3.82324Z" fill="white"/>
<path d="M0.0507812 8.85713L3.9285 4.53857L3.63281 4.56758V4.55391L-0.129883 8.69307L0.0507812 8.85713Z" fill="#E32D3C"/>
<path d="M7.98096 -0.0361328L3.9707 4.41211H4.75586V4.66064L8.5376 0.466309L7.98096 -0.0361328Z" fill="white"/>
<path d="M8.14453 0.0231934L4.24609 4.31274H4.5625V4.32642L8.3252 0.187256L8.14453 0.0231934Z" fill="#E32D3C"/>
<path d="M3.62831 4.78656L-0.213345 0.19439L0.571027 0.22344L0.580222 -0.0248463L4.20299 4.30522L3.62831 4.78656Z" fill="white"/>
<path d="M3.79395 4.73335L0.0581274 0.30385L0.374217 0.315557L0.374723 0.301899L3.98051 4.57614L3.79395 4.73335Z" fill="#E32D3C"/>
<path d="M3.625 0.5H4.875V8H3.625V0.5Z" fill="white"/>
<path d="M4.85156 3.97021L8.86182 8.41846H8.07666V8.66699L4.29492 4.47266L4.85156 3.97021Z" fill="white"/>
<path d="M4.68799 4.02954L8.58643 8.31909H8.27002V8.33276L4.50732 4.1936L4.68799 4.02954Z" fill="#E32D3C"/>
<path d="M8 3.625V4.875H0.5V3.625L8 3.625Z" fill="white"/>
<path d="M3.875 0.5H4.625V8H3.875V0.5Z" fill="#E32D3C"/>
<path d="M8 3.875V4.625H0.5V3.875L8 3.875Z" fill="#E32D3C"/>
</g>
<path d="M12.0073 3.77124V4.19403L12.8529 3.77124H12.0073Z" fill="white"/>
<path d="M12.169 4.26827L11.9204 3.92627L12.853 3.77112L12.169 4.26827Z" fill="white"/>
<path d="M12.0078 3.77124V4.19403L11.1622 3.77124H12.0078Z" fill="white"/>
<path d="M11.8462 4.26827L12.0947 3.92627L11.1622 3.77112L11.8462 4.26827Z" fill="white"/>
<path d="M12.269 3.96118L11.867 4.09182L12.5303 4.76532L12.269 3.96118Z" fill="white"/>
<path d="M11.8463 4.26834L12.0947 3.92627L12.5304 4.7652L11.8463 4.26834Z" fill="white"/>
<path d="M11.7461 3.96118L12.1482 4.09182L12.0074 3.15704L11.7461 3.96118Z" fill="white"/>
<path d="M12.2687 3.96108L11.8667 4.0918L12.0073 3.15699L12.2687 3.96108Z" fill="white"/>
<path d="M11.7461 3.96118L12.1482 4.09182L11.4848 4.76532L11.7461 3.96118Z" fill="white"/>
<path d="M12.1688 4.26834L11.9204 3.92627L11.4847 4.7652L12.1688 4.26834Z" fill="white"/>
<path d="M12.0078 3.8645V4.14388L12.5666 3.8645H12.0078Z" fill="#E32D3C"/>
<path d="M12.1144 4.19303L11.9502 3.96704L12.5664 3.86452L12.1144 4.19303Z" fill="#E32D3C"/>
<path d="M12.0073 3.8645V4.14388L11.4486 3.8645H12.0073Z" fill="#E32D3C"/>
<path d="M11.9007 4.19303L12.0649 3.96704L11.4487 3.86452L11.9007 4.19303Z" fill="#E32D3C"/>
<path d="M12.1802 3.98975L11.9145 4.07607L12.3528 4.52112L12.1802 3.98975Z" fill="#E32D3C"/>
<path d="M11.9008 4.19283L12.0649 3.9668L12.3529 4.52115L11.9008 4.19283Z" fill="#E32D3C"/>
<path d="M11.835 3.98999L12.1006 4.07632L12.0076 3.45862L11.835 3.98999Z" fill="#E32D3C"/>
<path d="M12.1802 3.99004L11.9146 4.07642L12.0075 3.4587L12.1802 3.99004Z" fill="#E32D3C"/>
<path d="M11.835 3.98975L12.1006 4.07607L11.6623 4.52112L11.835 3.98975Z" fill="#E32D3C"/>
<path d="M12.1144 4.19283L11.9502 3.9668L11.6623 4.52115L12.1144 4.19283Z" fill="#E32D3C"/>
<path d="M14.2188 5.72095L14.2187 6.09707L14.971 5.72106L14.2188 5.72095Z" fill="white"/>
<path d="M14.3622 6.16341L14.1411 5.85913L14.9708 5.72123L14.3622 6.16341Z" fill="white"/>
<path d="M14.2183 5.72095L14.2182 6.09707L13.466 5.72084L14.2183 5.72095Z" fill="white"/>
<path d="M14.0747 6.16334L14.2959 5.85913L13.4663 5.72099L14.0747 6.16334Z" fill="white"/>
<path d="M14.4507 5.88989L14.093 6.00606L14.683 6.6053L14.4507 5.88989Z" fill="white"/>
<path d="M14.0748 6.16316L14.2959 5.85889L14.6834 6.60527L14.0748 6.16316Z" fill="white"/>
<path d="M13.9863 5.88965L14.344 6.00592L14.2189 5.17431L13.9863 5.88965Z" fill="white"/>
<path d="M14.4509 5.88987L14.0933 6.0061L14.2185 5.1745L14.4509 5.88987Z" fill="white"/>
<path d="M13.9858 5.88989L14.3435 6.00616L13.7533 6.60524L13.9858 5.88989Z" fill="white"/>
<path d="M14.3621 6.16323L14.1411 5.85889L13.7534 6.60515L14.3621 6.16323Z" fill="white"/>
<path d="M14.2188 5.81396L14.2187 6.04671L14.6842 5.81402L14.2188 5.81396Z" fill="#E32D3C"/>
<path d="M14.3077 6.0877L14.1709 5.89941L14.6843 5.81407L14.3077 6.0877Z" fill="#E32D3C"/>
<path d="M14.2188 5.81396L14.2187 6.04671L13.7533 5.81391L14.2188 5.81396Z" fill="#E32D3C"/>
<path d="M14.1297 6.08767L14.2666 5.89941L13.7532 5.81394L14.1297 6.08767Z" fill="#E32D3C"/>
<path d="M14.3628 5.9187L14.1414 5.99059L14.5066 6.3614L14.3628 5.9187Z" fill="#E32D3C"/>
<path d="M14.1298 6.08771L14.2666 5.89941L14.5064 6.36128L14.1298 6.08771Z" fill="#E32D3C"/>
<path d="M14.0747 5.9187L14.296 5.99065L14.2186 5.47603L14.0747 5.9187Z" fill="#E32D3C"/>
<path d="M14.3625 5.91879L14.1411 5.99072L14.2186 5.47611L14.3625 5.91879Z" fill="#E32D3C"/>
<path d="M14.0747 5.9187L14.296 5.99065L13.9308 6.36137L14.0747 5.9187Z" fill="#E32D3C"/>
<path d="M14.3076 6.08799L14.1709 5.89966L13.931 6.36147L14.3076 6.08799Z" fill="#E32D3C"/>
<path d="M9.42383 6.36353L9.42378 6.78619L10.2692 6.36363L9.42383 6.36353Z" fill="white"/>
<path d="M9.58537 6.86073L9.33691 6.5188L10.2692 6.36382L9.58537 6.86073Z" fill="white"/>
<path d="M9.42432 6.36353L9.42426 6.78619L8.57899 6.36342L9.42432 6.36353Z" fill="white"/>
<path d="M9.26269 6.86066L9.51123 6.5188L8.57896 6.36358L9.26269 6.86066Z" fill="white"/>
<path d="M9.68555 6.55347L9.28358 6.68402L9.94665 7.3574L9.68555 6.55347Z" fill="white"/>
<path d="M9.26283 6.86049L9.51123 6.51855L9.9467 7.35729L9.26283 6.86049Z" fill="white"/>
<path d="M9.16309 6.55347L9.56502 6.68412L9.42439 5.74959L9.16309 6.55347Z" fill="white"/>
<path d="M9.68564 6.55346L9.28369 6.68408L9.42439 5.74957L9.68564 6.55346Z" fill="white"/>
<path d="M9.16309 6.55347L9.56502 6.68412L8.90178 7.35734L9.16309 6.55347Z" fill="white"/>
<path d="M9.58572 6.86055L9.3374 6.51855L8.90172 7.35718L9.58572 6.86055Z" fill="white"/>
<path d="M9.42432 6.45679L9.42428 6.73608L9.9829 6.45686L9.42432 6.45679Z" fill="#E32D3C"/>
<path d="M9.53088 6.78527L9.3667 6.55933L9.98276 6.45692L9.53088 6.78527Z" fill="#E32D3C"/>
<path d="M9.42432 6.45679L9.42428 6.73608L8.86573 6.45672L9.42432 6.45679Z" fill="#E32D3C"/>
<path d="M9.3177 6.78523L9.48193 6.55933L8.86589 6.45676L9.3177 6.78523Z" fill="#E32D3C"/>
<path d="M9.59668 6.58228L9.33106 6.66854L9.76922 7.11351L9.59668 6.58228Z" fill="#E32D3C"/>
<path d="M9.3173 6.78503L9.48145 6.55908L9.7692 7.11332L9.3173 6.78503Z" fill="#E32D3C"/>
<path d="M9.25146 6.58228L9.51706 6.66861L9.42414 6.05108L9.25146 6.58228Z" fill="#E32D3C"/>
<path d="M9.59715 6.58239L9.33154 6.6687L9.42451 6.05118L9.59715 6.58239Z" fill="#E32D3C"/>
<path d="M9.25195 6.58228L9.51755 6.66861L9.07928 7.11347L9.25195 6.58228Z" fill="#E32D3C"/>
<path d="M9.53127 6.78532L9.36719 6.55933L9.07929 7.11349L9.53127 6.78532Z" fill="#E32D3C"/>
<path d="M12.0078 10.446V10.9154L12.9465 10.446H12.0078Z" fill="white"/>
<path d="M12.1871 10.9981L11.9111 10.6184L12.9464 10.4462L12.1871 10.9981Z" fill="white"/>
<path d="M12.0078 10.446V10.9154L11.0691 10.446H12.0078Z" fill="white"/>
<path d="M11.8285 10.9981L12.1045 10.6184L11.0692 10.4462L11.8285 10.9981Z" fill="white"/>
<path d="M12.2979 10.6567L11.8515 10.8018L12.5879 11.5494L12.2979 10.6567Z" fill="white"/>
<path d="M11.8282 10.9979L12.104 10.6182L12.5877 11.5495L11.8282 10.9979Z" fill="white"/>
<path d="M11.7178 10.6567L12.1641 10.8018L12.0078 9.76403L11.7178 10.6567Z" fill="white"/>
<path d="M12.2979 10.6569L11.8516 10.802L12.0077 9.76424L12.2979 10.6569Z" fill="white"/>
<path d="M11.7173 10.6567L12.1636 10.8018L11.4272 11.5494L11.7173 10.6567Z" fill="white"/>
<path d="M12.1869 10.9979L11.9111 10.6182L11.4274 11.5495L12.1869 10.9979Z" fill="white"/>
<path d="M12.0078 10.5391V10.865L12.6597 10.5391H12.0078Z" fill="#E32D3C"/>
<path d="M12.1321 10.9223L11.9404 10.6587L12.6594 10.5391L12.1321 10.9223Z" fill="#E32D3C"/>
<path d="M12.0073 10.5391V10.865L11.3554 10.5391H12.0073Z" fill="#E32D3C"/>
<path d="M11.8831 10.9223L12.0747 10.6587L11.3558 10.5391L11.8831 10.9223Z" fill="#E32D3C"/>
<path d="M12.209 10.6855L11.899 10.7863L12.4104 11.3055L12.209 10.6855Z" fill="#E32D3C"/>
<path d="M11.8832 10.9224L12.0747 10.6587L12.4106 11.3054L11.8832 10.9224Z" fill="#E32D3C"/>
<path d="M11.8062 10.6855L12.1161 10.7863L12.0076 10.0656L11.8062 10.6855Z" fill="#E32D3C"/>
<path d="M12.2089 10.6856L11.8989 10.7864L12.0073 10.0657L12.2089 10.6856Z" fill="#E32D3C"/>
<path d="M11.8062 10.6855L12.1161 10.7863L11.6047 11.3055L11.8062 10.6855Z" fill="#E32D3C"/>
<path d="M12.132 10.9224L11.9404 10.6587L11.6045 11.3054L12.132 10.9224Z" fill="#E32D3C"/>
</g>
</svg>
