<svg width="48" height="48" viewBox="0 0 48 48" fill="none" xmlns="http://www.w3.org/2000/svg">
<path d="M32.7741 32.0825C30.9905 33.7304 28.6358 34.6437 26.0515 34.6437C20.3549 34.6437 16.1715 30.3441 16.1715 24.4408C16.1715 18.5376 20.2218 14.4189 26.0515 14.4189C28.5907 14.4189 30.9906 15.2881 32.8192 16.936L34.0621 18.0345L39.5847 12.3607L38.2025 11.079C34.9529 8.06317 30.6384 6.37109 26.0495 6.37109C15.8111 6.37109 8.37598 13.9643 8.37598 24.3967C8.37598 34.7848 15.9893 42.6495 26.0495 42.6495C30.7243 42.6495 35.0839 40.9574 38.2925 37.8932L39.6277 36.6115L34.0191 30.9419L32.7741 32.0825Z" fill="black"/>
<path d="M25.7813 18.4453C27.3518 18.4453 28.858 19.0866 29.9686 20.228C31.0792 21.3694 31.7031 22.9175 31.7031 24.5317C31.7031 26.1459 31.0792 27.694 29.9686 28.8354C28.858 29.9768 27.3518 30.6181 25.7813 30.6181C24.2107 30.6181 22.7044 29.9768 21.5938 28.8354C20.4832 27.694 19.8594 26.1459 19.8594 24.5317C19.8594 22.9175 20.4832 21.3694 21.5938 20.228C22.7044 19.0866 24.2107 18.4453 25.7813 18.4453Z" fill="#FF3D2E"/>
</svg>
