<svg width="15" height="16" viewBox="0 0 15 16" fill="none" xmlns="http://www.w3.org/2000/svg">
<g id="Icn/15/Copy">
<path id="Shape" fill-rule="evenodd" clip-rule="evenodd" d="M12.0312 3H3.4375C3.18886 3 2.9504 3.09877 2.77459 3.27459C2.59877 3.4504 2.5 3.68886 2.5 3.9375V12.5312H1.95312C1.76664 12.5312 1.5878 12.4572 1.45594 12.3253C1.32408 12.1934 1.25 12.0146 1.25 11.8281V2.57031C1.25 2.35275 1.33643 2.1441 1.49026 1.99026C1.6441 1.83643 1.85275 1.75 2.07031 1.75H11.3281C11.5146 1.75 11.6934 1.82408 11.8253 1.95594C11.9572 2.0878 12.0312 2.26664 12.0312 2.45312V3ZM4.40217 14.25H13.0978C13.2708 14.25 13.4367 14.1813 13.559 14.059C13.6813 13.9367 13.75 13.7708 13.75 13.5978V4.90217C13.75 4.72921 13.6813 4.56332 13.559 4.44102C13.4367 4.31871 13.2708 4.25 13.0978 4.25H4.18478C4.06947 4.25 3.95888 4.29581 3.87734 4.37734C3.79581 4.45888 3.75 4.56947 3.75 4.68478V13.5978C3.75 13.7708 3.81871 13.9367 3.94102 14.059C4.06332 14.1813 4.22921 14.25 4.40217 14.25Z" fill="white"/>
</g>
</svg>
