<svg width="15" height="15" viewBox="0 0 15 15" fill="none" xmlns="http://www.w3.org/2000/svg">
<g id="Icn/15/Dribbble">
<path id="Shape" d="M7.5 0.625C3.71445 0.625 0.625 3.71472 0.625 7.5C0.625 11.2855 3.71472 14.375 7.5 14.375C11.2855 14.375 14.375 11.2853 14.375 7.5C14.375 3.71445 11.2853 0.625 7.5 0.625ZM12.1632 3.61965C13.0215 4.64929 13.5454 5.96655 13.568 7.40332C12.4922 7.15168 11.2974 7.13477 10.0805 7.35659C9.76392 7.41433 9.44729 7.48765 9.13254 7.57573C9.02781 7.2908 8.91663 7.00828 8.79846 6.72844C8.67788 6.44297 8.55059 6.16233 8.41738 5.88572C9.86731 5.33196 11.4384 4.5075 12.1632 3.61965ZM7.5 1.43066C9.07964 1.43066 10.5199 2.03733 11.6008 3.02964C11.1792 3.60461 9.97769 4.4417 8.05 5.16357C7.377 3.9105 6.56999 2.75894 5.63757 1.72339C6.22463 1.53352 6.85063 1.43066 7.5 1.43066ZM4.83997 2.04565C5.79092 3.06428 6.60894 4.20188 7.28274 5.43079C5.27717 6.07988 3.24663 6.34468 1.57703 6.17361C1.98362 4.35684 3.20688 2.84514 4.83997 2.04565ZM1.43066 7.5C1.43066 7.32168 1.43899 7.14524 1.45403 6.97095C1.82249 7.00989 2.20679 7.02949 2.60398 7.02949C4.17046 7.02949 5.9303 6.72817 7.65845 6.15588C7.92217 6.69568 8.1593 7.25105 8.36851 7.82012C7.6947 8.06235 7.03889 8.37039 6.4231 8.73696C4.91328 9.63582 3.80872 10.7922 3.35056 11.925C2.16973 10.8169 1.43066 9.24319 1.43066 7.5ZM7.5 13.5693C6.20315 13.5693 5.00002 13.1603 4.01255 12.4645C4.3187 11.43 5.35425 10.311 6.83533 9.4293C7.35713 9.11831 7.96729 8.82532 8.63142 8.58711C9.1022 10.0668 9.39062 11.6288 9.4822 13.2366C8.86077 13.452 8.19395 13.5693 7.5 13.5693ZM10.268 12.9006C10.1563 11.3344 9.86462 9.80957 9.39653 8.34487C10.7017 7.98608 12.1514 7.86577 13.5261 8.22241C13.2828 10.2637 12.0227 11.9975 10.268 12.9006Z" fill="#080D10"/>
</g>
</svg>
