<svg width="200" height="68" viewBox="0 0 200 68" fill="none" xmlns="http://www.w3.org/2000/svg">
<g clip-path="url(#clip0_16260_263966)">
<path d="M1.35187 137.333H-15.834L1.35187 117.722V-98.5H190.833L1.35187 117.722V137.333Z" fill="#080D10"/>
<path fill-rule="evenodd" clip-rule="evenodd" d="M45.3204 31.2788C44.8055 30.0081 44.7307 29.2618 45.6014 28.0802C46.1368 27.3535 46.4732 27.0853 46.8821 26.7596C47.1881 26.5156 47.5348 26.2393 48.0358 25.714C49.175 24.5198 48.9029 23.4899 48.7591 22.946C48.7517 22.918 48.7446 22.8912 48.7381 22.8658C48.4849 21.8783 47.8132 20.9976 47.6147 20.7374C47.5929 20.7089 47.5769 20.6878 47.5677 20.6749C47.474 20.5435 46.4441 22.077 46.3036 23.1287C46.2272 23.7007 46.4279 24.0459 46.5946 24.3324C46.6437 24.4168 46.6898 24.4962 46.725 24.5747C46.9376 25.0488 47.0528 25.8454 46.3973 25.9769C45.7418 26.1083 45.0649 25.3117 45.2737 24.6623C45.3608 24.3915 44.3412 26.0049 43.8945 27.7217C43.4976 29.2475 44.406 30.2528 45.0137 30.9252C45.131 31.0551 45.2372 31.1726 45.3204 31.2788ZM49.0613 28.7223C48.359 29.292 48.7804 30.2561 49.4358 30.0368C50.345 29.7329 50.8743 28.8765 51.2026 27.7146C51.2617 28.81 51.1025 29.4234 50.8404 30.1245C50.5126 31.001 49.7167 31.483 49.2954 31.6582C48.8741 31.8335 47.7036 32.1841 46.7204 31.6144C45.7373 31.0447 45.6753 30.0337 45.7373 29.5111C45.831 28.7223 46.2523 27.9726 47.9845 26.5315C49.2161 25.5068 49.26 24.2405 49.2766 23.7582C49.2829 23.5805 49.2854 23.5092 49.3422 23.5957L49.3559 23.6165C49.7271 24.1808 50.144 24.8148 50.3722 25.918C50.6531 27.2763 49.5616 28.3165 49.0613 28.7223ZM39.166 31.7091L47.4994 43.5838L55.8327 31.7091C55.5859 31.7433 55.3036 31.7751 55.0016 31.8088C53.7562 31.9486 52.1764 32.1258 51.3851 32.6731C50.6432 33.1864 49.6792 34.5938 48.7378 35.9683C48.3129 36.5887 47.8925 37.2024 47.4994 37.7241C47.1061 37.2024 46.6859 36.5887 46.2608 35.9683C45.3195 34.5938 44.3554 33.1864 43.6135 32.6731C42.8223 32.1258 41.2425 31.9486 39.9971 31.8088C39.6951 31.7751 39.4127 31.7433 39.166 31.7091ZM42.1566 46.0115L41.6941 44.6792L41.2316 46.0115H39.735L40.9458 46.8348L40.4833 48.167L41.6941 47.3437L42.9049 48.167L42.4425 46.8348L43.6532 46.0115H42.1566ZM47.9618 46.0115L47.4994 44.6792L47.0368 46.0115H45.5402L46.751 46.8348L46.2886 48.167L47.4994 47.3437L48.7101 48.167L48.2477 46.8348L49.4584 46.0115H47.9618ZM53.3046 44.6792L53.767 46.0115H55.2637L54.0528 46.8348L54.5153 48.167L53.3046 47.3437L52.0938 48.167L52.5563 46.8348L51.3455 46.0115H52.8421L53.3046 44.6792ZM45.2521 32.7607L47.4994 35.8719L49.6997 32.6731L47.4994 33.199L45.2521 32.7607Z" fill="white"/>
<path d="M106.209 35.7195C106.098 36.3666 105.884 36.9161 105.566 37.3679C105.251 37.8197 104.865 38.1629 104.409 38.3977C103.956 38.6325 103.466 38.7499 102.942 38.7499C102.391 38.7499 101.917 38.6246 101.518 38.374C101.122 38.1235 100.835 37.7615 100.657 37.288C100.479 36.8125 100.446 36.2394 100.556 35.5686C100.663 34.9196 100.875 34.3691 101.193 33.9173C101.51 33.4636 101.898 33.1183 102.356 32.8816C102.813 32.6429 103.306 32.5235 103.832 32.5235C104.379 32.5235 104.85 32.6498 105.247 32.9023C105.645 33.1548 105.932 33.5198 106.108 33.9972C106.286 34.4727 106.319 35.0468 106.209 35.7195ZM104.933 35.5686C105.002 35.1524 104.999 34.8032 104.924 34.521C104.851 34.2369 104.717 34.0219 104.522 33.8759C104.326 33.7299 104.08 33.6569 103.782 33.6569C103.458 33.6569 103.161 33.7378 102.891 33.8996C102.623 34.0614 102.396 34.2961 102.211 34.6039C102.027 34.9097 101.9 35.2816 101.829 35.7195C101.758 36.1378 101.76 36.487 101.835 36.7671C101.912 37.0473 102.049 37.2594 102.246 37.4034C102.445 37.5454 102.693 37.6164 102.989 37.6164C103.31 37.6164 103.604 37.5375 103.871 37.3797C104.139 37.2199 104.365 36.9881 104.548 36.6843C104.732 36.3785 104.86 36.0066 104.933 35.5686ZM112.742 32.6064L111.736 38.667H110.629L108.631 34.8525H108.584L107.948 38.667H106.667L107.673 32.6064H108.797L110.786 36.4179H110.836L111.466 32.6064H112.742ZM116.901 38.667H114.723L115.729 32.6064H117.866C118.476 32.6064 118.982 32.7307 119.384 32.9793C119.788 33.2278 120.074 33.5839 120.239 34.0476C120.405 34.5092 120.435 35.0606 120.328 35.7018C120.225 36.3213 120.021 36.853 119.715 37.2968C119.41 37.7388 119.018 38.0781 118.541 38.3148C118.063 38.5496 117.517 38.667 116.901 38.667ZM116.188 37.5691H116.975C117.356 37.5691 117.689 37.4981 117.975 37.356C118.263 37.214 118.499 36.995 118.683 36.6991C118.868 36.4031 118.999 36.0244 119.076 35.5627C119.149 35.1247 119.144 34.7696 119.061 34.4974C118.981 34.2231 118.824 34.0229 118.591 33.8966C118.358 33.7684 118.052 33.7043 117.674 33.7043H116.83L116.188 37.5691ZM120.786 38.667L121.792 32.6064H125.876L125.698 33.6628H122.896L122.659 35.107H125.252L125.074 36.1634H122.482L122.245 37.6105H125.059L124.882 38.667H120.786ZM129.887 34.3672C129.896 34.1206 129.824 33.9302 129.67 33.796C129.519 33.6619 129.289 33.5948 128.981 33.5948C128.772 33.5948 128.59 33.6244 128.436 33.6836C128.283 33.7408 128.159 33.8207 128.067 33.9233C127.976 34.0239 127.92 34.1403 127.898 34.2725C127.876 34.381 127.883 34.4757 127.919 34.5566C127.956 34.6374 128.014 34.7075 128.093 34.7667C128.174 34.8239 128.27 34.8742 128.38 34.9176C128.491 34.959 128.608 34.9945 128.732 35.0241L129.253 35.1543C129.508 35.2135 129.737 35.2924 129.94 35.3911C130.145 35.4897 130.317 35.611 130.455 35.7551C130.595 35.8991 130.693 36.0687 130.751 36.2641C130.808 36.4594 130.816 36.6833 130.774 36.9358C130.711 37.3067 130.564 37.6283 130.333 37.9005C130.103 38.1708 129.8 38.3809 129.425 38.5309C129.05 38.6788 128.616 38.7528 128.123 38.7528C127.634 38.7528 127.22 38.6778 126.883 38.5279C126.545 38.378 126.3 38.156 126.146 37.8621C125.994 37.5661 125.949 37.2002 126.01 36.7642H127.25C127.228 36.9674 127.258 37.137 127.339 37.2732C127.421 37.4073 127.545 37.5089 127.708 37.578C127.872 37.6451 128.065 37.6786 128.286 37.6786C128.505 37.6786 128.699 37.647 128.869 37.5839C129.04 37.5208 129.179 37.433 129.286 37.3205C129.392 37.2081 129.457 37.0788 129.481 36.9329C129.505 36.7967 129.484 36.6823 129.419 36.5896C129.354 36.4969 129.249 36.4179 129.105 36.3528C128.963 36.2858 128.787 36.2266 128.576 36.1753L127.942 36.0096C127.453 35.8853 127.083 35.6909 126.833 35.4266C126.582 35.1622 126.492 34.8061 126.563 34.3583C126.626 33.9913 126.779 33.6707 127.022 33.3965C127.267 33.1203 127.574 32.9063 127.945 32.7544C128.318 32.6005 128.725 32.5235 129.167 32.5235C129.617 32.5235 129.997 32.6015 130.307 32.7573C130.616 32.9112 130.842 33.1262 130.984 33.4024C131.126 33.6786 131.17 34.0002 131.115 34.3672H129.887ZM133.637 32.6064L132.631 38.667H131.349L132.355 32.6064H133.637ZM138.384 34.5654C138.368 34.4214 138.335 34.2942 138.283 34.1837C138.234 34.0712 138.166 33.9765 138.079 33.8996C137.992 33.8207 137.887 33.7605 137.763 33.7191C137.638 33.6776 137.494 33.6569 137.331 33.6569C137.021 33.6569 136.731 33.7339 136.461 33.8878C136.192 34.0416 135.963 34.2656 135.774 34.5595C135.585 34.8515 135.455 35.2086 135.386 35.6308C135.315 36.053 135.315 36.412 135.386 36.7079C135.459 37.0039 135.596 37.2298 135.798 37.3856C136.001 37.5395 136.262 37.6164 136.582 37.6164C136.872 37.6164 137.132 37.5652 137.363 37.4626C137.594 37.358 137.782 37.211 137.928 37.0216C138.076 36.8322 138.171 36.6083 138.212 36.3499L138.467 36.3883H136.907L137.067 35.4236H139.603L139.473 36.1871C139.388 36.7198 139.202 37.1775 138.914 37.5602C138.626 37.943 138.267 38.2369 137.837 38.4421C137.409 38.6473 136.939 38.7499 136.428 38.7499C135.86 38.7499 135.381 38.6246 134.993 38.374C134.606 38.1215 134.331 37.7634 134.167 37.2998C134.005 36.8342 133.977 36.2818 134.081 35.6426C134.162 35.1514 134.306 34.7134 134.513 34.3287C134.722 33.942 134.978 33.6145 135.28 33.3462C135.582 33.0779 135.916 32.8737 136.283 32.7336C136.652 32.5936 137.036 32.5235 137.434 32.5235C137.777 32.5235 138.088 32.5738 138.366 32.6744C138.646 32.7731 138.886 32.9132 139.085 33.0947C139.287 33.2762 139.439 33.4922 139.541 33.7427C139.646 33.9913 139.694 34.2656 139.686 34.5654H138.384ZM146.1 32.6064L145.094 38.667H143.987L141.989 34.8525H141.942L141.306 38.667H140.024L141.03 32.6064H142.155L144.144 36.4179H144.194L144.824 32.6064H146.1ZM146.152 38.667L147.158 32.6064H149.549C150.007 32.6064 150.384 32.6873 150.68 32.849C150.978 33.0108 151.187 33.2407 151.307 33.5386C151.43 33.8345 151.458 34.1837 151.393 34.5861C151.326 34.9886 151.181 35.3339 150.958 35.6219C150.737 35.9099 150.449 36.1319 150.094 36.2877C149.741 36.4416 149.331 36.5186 148.866 36.5186H147.265L147.442 35.4887H148.833C149.078 35.4887 149.287 35.4552 149.461 35.3881C149.634 35.321 149.771 35.2204 149.872 35.0863C149.975 34.9521 150.042 34.7854 150.073 34.5861C150.107 34.3829 150.095 34.2133 150.038 34.0771C149.981 33.939 149.877 33.8345 149.727 33.7635C149.577 33.6905 149.38 33.654 149.135 33.654H148.271L147.434 38.667H146.152ZM149.881 35.9089L150.931 38.667H149.517L148.499 35.9089H149.881ZM156.419 32.6064H157.701L157.05 36.5422C156.977 36.9841 156.808 37.3708 156.544 37.7023C156.279 38.0337 155.943 38.2922 155.535 38.4776C155.126 38.6611 154.67 38.7528 154.167 38.7528C153.664 38.7528 153.24 38.6611 152.895 38.4776C152.55 38.2922 152.3 38.0337 152.146 37.7023C151.992 37.3708 151.952 36.9841 152.025 36.5422L152.676 32.6064H153.957L153.321 36.4327C153.286 36.6636 153.303 36.8687 153.374 37.0483C153.447 37.2278 153.568 37.3689 153.735 37.4714C153.903 37.574 154.11 37.6253 154.357 37.6253C154.605 37.6253 154.83 37.574 155.032 37.4714C155.235 37.3689 155.401 37.2278 155.532 37.0483C155.664 36.8687 155.748 36.6636 155.783 36.4327L156.419 32.6064ZM161.747 34.3672C161.757 34.1206 161.685 33.9302 161.531 33.796C161.379 33.6619 161.149 33.5948 160.841 33.5948C160.632 33.5948 160.451 33.6244 160.297 33.6836C160.143 33.7408 160.02 33.8207 159.927 33.9233C159.836 34.0239 159.78 34.1403 159.758 34.2725C159.737 34.381 159.743 34.4757 159.779 34.5566C159.816 34.6374 159.875 34.7075 159.954 34.7667C160.034 34.8239 160.13 34.8742 160.241 34.9176C160.351 34.959 160.468 34.9945 160.593 35.0241L161.114 35.1543C161.368 35.2135 161.597 35.2924 161.8 35.3911C162.005 35.4897 162.177 35.611 162.315 35.7551C162.455 35.8991 162.554 36.0687 162.611 36.2641C162.668 36.4594 162.676 36.6833 162.635 36.9358C162.572 37.3067 162.425 37.6283 162.194 37.9005C161.963 38.1708 161.66 38.3809 161.285 38.5309C160.91 38.6788 160.476 38.7528 159.983 38.7528C159.494 38.7528 159.081 38.6778 158.743 38.5279C158.406 38.378 158.16 38.156 158.006 37.8621C157.854 37.5661 157.809 37.2002 157.87 36.7642H159.11C159.088 36.9674 159.118 37.137 159.199 37.2732C159.282 37.4073 159.405 37.5089 159.569 37.578C159.733 37.6451 159.925 37.6786 160.146 37.6786C160.365 37.6786 160.559 37.647 160.729 37.5839C160.901 37.5208 161.04 37.433 161.146 37.3205C161.253 37.2081 161.318 37.0788 161.341 36.9329C161.365 36.7967 161.344 36.6823 161.279 36.5896C161.214 36.4969 161.11 36.4179 160.966 36.3528C160.824 36.2858 160.647 36.2266 160.436 36.1753L159.803 36.0096C159.313 35.8853 158.943 35.6909 158.693 35.4266C158.442 35.1622 158.353 34.8061 158.424 34.3583C158.487 33.9913 158.64 33.6707 158.882 33.3965C159.127 33.1203 159.435 32.9063 159.806 32.7544C160.178 32.6005 160.586 32.5235 161.028 32.5235C161.478 32.5235 161.857 32.6015 162.167 32.7573C162.477 32.9112 162.703 33.1262 162.845 33.4024C162.987 33.6786 163.03 34.0002 162.975 34.3672H161.747ZM163.209 38.667L164.216 32.6064H165.497L165.083 35.107H167.684L168.098 32.6064H169.377L168.37 38.667H167.092L167.506 36.1634H164.905L164.491 38.667H163.209Z" fill="#1F2122"/>
<path d="M97.7776 23.6755L98.0096 22.2628L102.48 16.6821H103.698L103.375 18.6376H102.65L99.8325 22.1716L99.8242 22.2379H104.854L104.618 23.6755H97.7776ZM101.602 25.167L101.925 23.2405L102.061 22.6232L103.043 16.6821H104.725L103.317 25.167H101.602ZM108.831 25.3534C108.118 25.3534 107.534 25.1794 107.079 24.8314C106.623 24.4806 106.312 23.9752 106.146 23.3151C105.983 22.655 105.979 21.8609 106.134 20.9329C106.291 20.0076 106.561 19.219 106.942 18.5672C107.326 17.9154 107.801 17.4196 108.367 17.0799C108.936 16.7374 109.575 16.5661 110.285 16.5661C110.992 16.5661 111.574 16.7374 112.029 17.0799C112.485 17.4224 112.797 17.9181 112.966 18.5672C113.137 19.2163 113.145 20.0048 112.991 20.9329C112.836 21.8636 112.567 22.6591 112.183 23.3192C111.799 23.9766 111.322 24.4806 110.753 24.8314C110.184 25.1794 109.544 25.3534 108.831 25.3534ZM109.08 23.8661C109.569 23.8661 109.997 23.6217 110.364 23.1328C110.731 22.6439 110.996 21.9106 111.159 20.9329C111.267 20.2921 111.291 19.7576 111.23 19.3295C111.172 18.8986 111.041 18.5755 110.836 18.3601C110.632 18.1446 110.368 18.0369 110.045 18.0369C109.562 18.0369 109.134 18.28 108.761 18.7661C108.391 19.2494 108.125 19.9717 107.965 20.9329C107.857 21.5847 107.834 22.1288 107.895 22.5652C107.956 22.9988 108.088 23.3247 108.292 23.5429C108.497 23.7584 108.759 23.8661 109.08 23.8661ZM116.29 25.167L117.698 16.6821H121.046C121.686 16.6821 122.214 16.7954 122.628 17.0219C123.045 17.2484 123.338 17.5701 123.507 17.9872C123.678 18.4015 123.718 18.8904 123.627 19.4538C123.533 20.0173 123.33 20.5006 123.018 20.9039C122.708 21.3071 122.305 21.6178 121.808 21.836C121.314 22.0515 120.74 22.1592 120.089 22.1592H117.847L118.096 20.7174H120.043C120.386 20.7174 120.678 20.6705 120.921 20.5766C121.164 20.4826 121.356 20.3418 121.497 20.154C121.641 19.9662 121.735 19.7328 121.779 19.4538C121.826 19.1693 121.809 18.9318 121.729 18.7412C121.649 18.5479 121.504 18.4015 121.294 18.3021C121.084 18.1999 120.808 18.1488 120.466 18.1488H119.256L118.083 25.167H116.29ZM121.51 21.3057L122.98 25.167H121L119.575 21.3057H121.51ZM124.014 25.167L125.423 16.6821H131.14L130.891 18.1612H126.968L126.637 20.183H130.266L130.017 21.662H126.388L126.057 23.6879H129.997L129.748 25.167H124.014ZM134.099 16.6821L135.085 23.1286H135.164L138.284 16.6821H140.272L135.939 25.167H133.627L132.106 16.6821H134.099ZM143.087 16.6821L141.679 25.167H139.885L141.293 16.6821H143.087ZM143.155 25.167L144.563 16.6821H150.281L150.032 18.1612H146.109L145.777 20.183H149.407L149.158 21.662H145.529L145.197 23.6879H149.137L148.889 25.167H143.155ZM152.208 25.167L151.189 16.6821H153.149L153.58 22.5776H153.65L156.173 16.6821H157.851L158.423 22.5901H158.497L160.875 16.6821H162.835L158.999 25.167H157.25L156.562 19.6195H156.496L153.957 25.167H152.208ZM167.904 19.1472C167.918 18.802 167.817 18.5354 167.602 18.3476C167.389 18.1598 167.067 18.0659 166.636 18.0659C166.343 18.0659 166.089 18.1073 165.874 18.1902C165.658 18.2703 165.486 18.3822 165.356 18.5258C165.229 18.6666 165.15 18.8296 165.12 19.0146C165.089 19.1666 165.099 19.2991 165.149 19.4124C165.201 19.5256 165.283 19.6237 165.393 19.7065C165.507 19.7866 165.64 19.8571 165.795 19.9178C165.95 19.9758 166.114 20.0255 166.288 20.067L167.017 20.2493C167.374 20.3321 167.694 20.4426 167.979 20.5807C168.266 20.7188 168.506 20.8887 168.699 21.0903C168.895 21.2919 169.034 21.5294 169.114 21.8029C169.194 22.0763 169.205 22.3898 169.147 22.7433C169.058 23.2626 168.853 23.7128 168.53 24.094C168.206 24.4724 167.782 24.7665 167.258 24.9764C166.733 25.1836 166.125 25.2871 165.435 25.2871C164.75 25.2871 164.171 25.1822 163.699 24.9723C163.227 24.7624 162.883 24.4516 162.667 24.0401C162.455 23.6258 162.391 23.1134 162.477 22.503H164.213C164.182 22.7875 164.224 23.0251 164.337 23.2156C164.453 23.4035 164.625 23.5457 164.855 23.6424C165.084 23.7363 165.353 23.7832 165.663 23.7832C165.969 23.7832 166.241 23.739 166.479 23.6507C166.719 23.5623 166.914 23.4394 167.063 23.2819C167.212 23.1245 167.303 22.9436 167.336 22.7392C167.369 22.5486 167.34 22.3884 167.249 22.2586C167.158 22.1288 167.012 22.0183 166.81 21.9272C166.611 21.8333 166.364 21.7504 166.069 21.6786L165.182 21.4466C164.497 21.2726 163.979 21.0005 163.628 20.6304C163.278 20.2603 163.152 19.7618 163.251 19.1348C163.34 18.6211 163.554 18.1722 163.894 17.7883C164.236 17.4016 164.667 17.102 165.186 16.8893C165.708 16.6739 166.279 16.5661 166.897 16.5661C167.527 16.5661 168.059 16.6752 168.492 16.8934C168.926 17.1089 169.242 17.4099 169.441 17.7966C169.64 18.1833 169.701 18.6335 169.623 19.1472H167.904Z" fill="#1F2122"/>
<path d="M115.417 44.833L115.42 49.4126L119.776 48L115.422 49.4178L118.111 53.1243L115.417 49.4209L112.723 53.1243L115.413 49.4178L111.058 48L115.415 49.4126L115.417 44.833Z" fill="#DFB246"/>
<path d="M127.917 44.833L127.92 49.4126L132.276 48L127.922 49.4178L130.611 53.1243L127.917 49.4209L125.223 53.1243L127.913 49.4178L123.558 48L127.915 49.4126L127.917 44.833Z" fill="#DFB246"/>
<path d="M140.417 44.833L140.42 49.4126L144.776 48L140.422 49.4178L143.111 53.1243L140.417 49.4209L137.723 53.1243L140.413 49.4178L136.058 48L140.415 49.4126L140.417 44.833Z" fill="#DFB246"/>
<path d="M152.917 44.833L152.92 49.4126L157.276 48L152.922 49.4178L155.611 53.1243L152.917 49.4209L150.223 53.1243L152.913 49.4178L148.558 48L152.915 49.4126L152.917 44.833Z" fill="#DFB246"/>
<path d="M165.417 44.833L165.42 49.4126L169.776 48L165.422 49.4178L168.111 53.1243L165.417 49.4209L162.723 53.1243L165.413 49.4178L161.058 48L165.415 49.4126L165.417 44.833Z" fill="#DFB246"/>
</g>
<defs>
<clipPath id="clip0_16260_263966">
<rect width="140" height="40" fill="white" transform="translate(30 14)"/>
</clipPath>
</defs>
</svg>
