<svg width="200" height="68" viewBox="0 0 200 68" fill="none" xmlns="http://www.w3.org/2000/svg">
<path d="M106.119 43.4395L105.252 43.2168L105.68 38.9688H110.057V39.9707H106.6L106.342 42.291C106.498 42.2012 106.695 42.1172 106.934 42.0391C107.176 41.9609 107.453 41.9219 107.766 41.9219C108.16 41.9219 108.514 41.9902 108.826 42.127C109.139 42.2598 109.404 42.4512 109.623 42.7012C109.846 42.9512 110.016 43.252 110.133 43.6035C110.25 43.9551 110.309 44.3477 110.309 44.7812C110.309 45.1914 110.252 45.5684 110.139 45.9121C110.029 46.2559 109.863 46.5566 109.641 46.8145C109.418 47.0684 109.137 47.2656 108.797 47.4062C108.461 47.5469 108.064 47.6172 107.607 47.6172C107.264 47.6172 106.938 47.5703 106.629 47.4766C106.324 47.3789 106.051 47.2324 105.809 47.0371C105.57 46.8379 105.375 46.5918 105.223 46.2988C105.074 46.002 104.98 45.6543 104.941 45.2559H105.973C106.02 45.5762 106.113 45.8457 106.254 46.0645C106.395 46.2832 106.578 46.4492 106.805 46.5625C107.035 46.6719 107.303 46.7266 107.607 46.7266C107.865 46.7266 108.094 46.6816 108.293 46.5918C108.492 46.502 108.66 46.373 108.797 46.2051C108.934 46.0371 109.037 45.834 109.107 45.5957C109.182 45.3574 109.219 45.0898 109.219 44.793C109.219 44.5234 109.182 44.2734 109.107 44.043C109.033 43.8125 108.922 43.6113 108.773 43.4395C108.629 43.2676 108.451 43.1348 108.24 43.041C108.029 42.9434 107.787 42.8945 107.514 42.8945C107.15 42.8945 106.875 42.9434 106.688 43.041C106.504 43.1387 106.314 43.2715 106.119 43.4395ZM111.573 46.9258C111.573 46.7422 111.629 46.5879 111.743 46.4629C111.86 46.334 112.028 46.2695 112.247 46.2695C112.465 46.2695 112.631 46.334 112.745 46.4629C112.862 46.5879 112.92 46.7422 112.92 46.9258C112.92 47.1055 112.862 47.2578 112.745 47.3828C112.631 47.5078 112.465 47.5703 112.247 47.5703C112.028 47.5703 111.86 47.5078 111.743 47.3828C111.629 47.2578 111.573 47.1055 111.573 46.9258ZM119.898 42.5547V43.8555C119.898 44.5547 119.835 45.1445 119.71 45.625C119.585 46.1055 119.405 46.4922 119.171 46.7852C118.937 47.0781 118.653 47.291 118.321 47.4238C117.993 47.5527 117.622 47.6172 117.208 47.6172C116.88 47.6172 116.577 47.5762 116.3 47.4941C116.023 47.4121 115.773 47.2812 115.55 47.1016C115.331 46.918 115.144 46.6797 114.987 46.3867C114.831 46.0938 114.712 45.7383 114.63 45.3203C114.548 44.9023 114.507 44.4141 114.507 43.8555V42.5547C114.507 41.8555 114.569 41.2695 114.694 40.7969C114.823 40.3242 115.005 39.9453 115.239 39.6602C115.474 39.3711 115.755 39.1641 116.083 39.0391C116.415 38.9141 116.786 38.8516 117.196 38.8516C117.528 38.8516 117.833 38.8926 118.11 38.9746C118.392 39.0527 118.642 39.1797 118.86 39.3555C119.079 39.5273 119.265 39.7578 119.417 40.0469C119.573 40.332 119.693 40.6816 119.775 41.0957C119.857 41.5098 119.898 41.9961 119.898 42.5547ZM118.808 44.0312V42.373C118.808 41.9902 118.784 41.6543 118.737 41.3652C118.694 41.0723 118.63 40.8223 118.544 40.6152C118.458 40.4082 118.349 40.2402 118.216 40.1113C118.087 39.9824 117.937 39.8887 117.765 39.8301C117.597 39.7676 117.407 39.7363 117.196 39.7363C116.939 39.7363 116.71 39.7852 116.511 39.8828C116.312 39.9766 116.144 40.127 116.007 40.334C115.874 40.541 115.773 40.8125 115.702 41.1484C115.632 41.4844 115.597 41.8926 115.597 42.373V44.0312C115.597 44.4141 115.618 44.752 115.661 45.0449C115.708 45.3379 115.776 45.5918 115.866 45.8066C115.956 46.0176 116.066 46.1914 116.194 46.3281C116.323 46.4648 116.472 46.5664 116.64 46.6328C116.812 46.6953 117.001 46.7266 117.208 46.7266C117.474 46.7266 117.706 46.6758 117.905 46.5742C118.105 46.4727 118.271 46.3145 118.403 46.0996C118.54 45.8809 118.642 45.6016 118.708 45.2617C118.775 44.918 118.808 44.5078 118.808 44.0312ZM124.43 38.9688H127.254C127.895 38.9688 128.436 39.0664 128.877 39.2617C129.323 39.457 129.66 39.7461 129.891 40.1289C130.125 40.5078 130.242 40.9746 130.242 41.5293C130.242 41.9199 130.162 42.2773 130.002 42.6016C129.846 42.9219 129.619 43.1953 129.323 43.4219C129.03 43.6445 128.678 43.8105 128.268 43.9199L127.951 44.043H125.297L125.285 43.123H127.289C127.696 43.123 128.033 43.0527 128.303 42.9121C128.573 42.7676 128.776 42.5742 128.912 42.332C129.049 42.0898 129.117 41.8223 129.117 41.5293C129.117 41.2012 129.053 40.9141 128.924 40.668C128.795 40.4219 128.592 40.2324 128.315 40.0996C128.041 39.9629 127.688 39.8945 127.254 39.8945H125.561V47.5H124.43V38.9688ZM129.416 47.5L127.342 43.6328L128.52 43.627L130.623 47.4297V47.5H129.416ZM134.923 39.7246L132.098 47.5H130.944L134.196 38.9688H134.94L134.923 39.7246ZM137.29 47.5L134.46 39.7246L134.442 38.9688H135.186L138.45 47.5H137.29ZM137.143 44.3418V45.2676H132.35V44.3418H137.143ZM141.923 38.9688V47.5H140.81V38.9688H141.923ZM144.665 38.9688V39.8945H138.074V38.9688H144.665ZM147.084 38.9688V47.5H145.953V38.9688H147.084ZM155.643 38.9688V47.5H154.506L150.211 40.9199V47.5H149.081V38.9688H150.211L154.524 45.5664V38.9688H155.643ZM163.892 43.252V46.375C163.786 46.5312 163.618 46.707 163.388 46.9023C163.157 47.0938 162.839 47.2617 162.433 47.4062C162.03 47.5469 161.511 47.6172 160.874 47.6172C160.355 47.6172 159.876 47.5273 159.439 47.3477C159.005 47.1641 158.628 46.8984 158.308 46.5508C157.991 46.1992 157.745 45.7734 157.569 45.2734C157.397 44.7695 157.312 44.1992 157.312 43.5625V42.9004C157.312 42.2637 157.386 41.6953 157.534 41.1953C157.687 40.6953 157.909 40.2715 158.202 39.9238C158.495 39.5723 158.855 39.3066 159.28 39.127C159.706 38.9434 160.194 38.8516 160.745 38.8516C161.397 38.8516 161.942 38.9648 162.38 39.1914C162.821 39.4141 163.165 39.7227 163.411 40.1172C163.661 40.5117 163.821 40.9609 163.892 41.4648H162.761C162.71 41.1562 162.608 40.875 162.456 40.6211C162.308 40.3672 162.095 40.1641 161.817 40.0117C161.54 39.8555 161.183 39.7773 160.745 39.7773C160.351 39.7773 160.009 39.8496 159.72 39.9941C159.431 40.1387 159.192 40.3457 159.005 40.6152C158.817 40.8848 158.677 41.2109 158.583 41.5938C158.493 41.9766 158.448 42.4082 158.448 42.8887V43.5625C158.448 44.0547 158.505 44.4941 158.618 44.8809C158.735 45.2676 158.901 45.5977 159.116 45.8711C159.331 46.1406 159.587 46.3457 159.884 46.4863C160.185 46.627 160.517 46.6973 160.88 46.6973C161.282 46.6973 161.608 46.6641 161.858 46.5977C162.108 46.5273 162.304 46.4453 162.444 46.3516C162.585 46.2539 162.692 46.1621 162.767 46.0762V44.166H160.792V43.252H163.892Z" fill="#2B2B2B"/>
<path d="M24.8643 19.3906H27.2178C27.7516 19.3906 28.2025 19.472 28.5703 19.6348C28.9414 19.7975 29.223 20.0384 29.415 20.3574C29.6104 20.6732 29.708 21.0622 29.708 21.5244C29.708 21.8499 29.6413 22.1478 29.5078 22.418C29.3776 22.6849 29.1888 22.9128 28.9414 23.1016C28.6973 23.2871 28.4043 23.4255 28.0625 23.5166L27.7988 23.6191H25.5869L25.5771 22.8525H27.2471C27.5856 22.8525 27.8672 22.7939 28.0918 22.6768C28.3164 22.5563 28.4857 22.3952 28.5996 22.1934C28.7135 21.9915 28.7705 21.7686 28.7705 21.5244C28.7705 21.251 28.7168 21.0117 28.6094 20.8066C28.502 20.6016 28.3327 20.4437 28.1016 20.333C27.8737 20.2191 27.5791 20.1621 27.2178 20.1621H25.8066V26.5H24.8643V19.3906ZM29.0195 26.5L27.291 23.2773L28.2725 23.2725L30.0254 26.4414V26.5H29.0195ZM35.643 25.7334V26.5H31.8783V25.7334H35.643ZM32.0687 19.3906V26.5H31.1264V19.3906H32.0687ZM35.1449 22.4473V23.2139H31.8783V22.4473H35.1449ZM35.5941 19.3906V20.1621H31.8783V19.3906H35.5941ZM39.2049 25.4209L41.2996 19.3906H42.3201L39.6883 26.5H38.9607L39.2049 25.4209ZM37.2469 19.3906L39.3221 25.4209L39.5809 26.5H38.8533L36.2264 19.3906H37.2469ZM44.3879 19.3906V26.5H43.4455V19.3906H44.3879ZM50.7184 25.7334V26.5H46.9537V25.7334H50.7184ZM47.1441 19.3906V26.5H46.2018V19.3906H47.1441ZM50.2203 22.4473V23.2139H46.9537V22.4473H50.2203ZM50.6695 19.3906V20.1621H46.9537V19.3906H50.6695ZM53.8555 24.3516L55.2666 19.3906H55.9502L55.5547 21.3193L54.0361 26.5H53.3574L53.8555 24.3516ZM52.3955 19.3906L53.5186 24.2539L53.8555 26.5H53.1816L51.458 19.3906H52.3955ZM57.7764 24.249L58.875 19.3906H59.8174L58.0986 26.5H57.4248L57.7764 24.249ZM56.0527 19.3906L57.4248 24.3516L57.9229 26.5H57.2441L55.7793 21.3193L55.3789 19.3906H56.0527ZM65.4789 25.7334V26.5H61.7143V25.7334H65.4789ZM61.9047 19.3906V26.5H60.9623V19.3906H61.9047ZM64.9809 22.4473V23.2139H61.7143V22.4473H64.9809ZM65.4301 19.3906V20.1621H61.7143V19.3906H65.4301ZM68.6697 26.5H67.1854L67.1951 25.7334H68.6697C69.1775 25.7334 69.6007 25.6276 69.9393 25.416C70.2778 25.2012 70.5317 24.9017 70.701 24.5176C70.8735 24.1302 70.9598 23.6777 70.9598 23.1602V22.7256C70.9598 22.3187 70.9109 21.9574 70.8133 21.6416C70.7156 21.3226 70.5724 21.054 70.3836 20.8359C70.1948 20.6146 69.9637 20.4469 69.6902 20.333C69.4201 20.2191 69.1092 20.1621 68.7576 20.1621H67.1561V19.3906H68.7576C69.2231 19.3906 69.6479 19.4688 70.032 19.625C70.4161 19.778 70.7466 20.001 71.0232 20.2939C71.3032 20.5837 71.518 20.9352 71.6678 21.3486C71.8175 21.7588 71.8924 22.221 71.8924 22.7354V23.1602C71.8924 23.6745 71.8175 24.1383 71.6678 24.5518C71.518 24.9619 71.3016 25.3118 71.0184 25.6016C70.7384 25.8913 70.3999 26.1143 70.0027 26.2705C69.6089 26.4235 69.1645 26.5 68.6697 26.5ZM67.6883 19.3906V26.5H66.7459V19.3906H67.6883ZM81.4625 22.7207V23.1699C81.4625 23.7038 81.3958 24.1823 81.2623 24.6055C81.1288 25.0286 80.9368 25.3883 80.6861 25.6846C80.4355 25.9808 80.1344 26.207 79.7828 26.3633C79.4345 26.5195 79.0439 26.5977 78.6109 26.5977C78.191 26.5977 77.8053 26.5195 77.4537 26.3633C77.1054 26.207 76.8027 25.9808 76.5455 25.6846C76.2916 25.3883 76.0947 25.0286 75.9547 24.6055C75.8147 24.1823 75.7447 23.7038 75.7447 23.1699V22.7207C75.7447 22.1868 75.8131 21.71 75.9498 21.29C76.0898 20.8669 76.2867 20.5072 76.5406 20.2109C76.7945 19.9115 77.0956 19.6836 77.4439 19.5273C77.7955 19.3711 78.1813 19.293 78.6012 19.293C79.0341 19.293 79.4247 19.3711 79.773 19.5273C80.1246 19.6836 80.4257 19.9115 80.6764 20.2109C80.9303 20.5072 81.124 20.8669 81.2574 21.29C81.3941 21.71 81.4625 22.1868 81.4625 22.7207ZM80.5299 23.1699V22.7109C80.5299 22.2878 80.4859 21.9134 80.398 21.5879C80.3134 21.2624 80.1881 20.9889 80.0221 20.7676C79.8561 20.5462 79.6526 20.3786 79.4117 20.2646C79.1741 20.1507 78.9039 20.0938 78.6012 20.0938C78.3082 20.0938 78.0429 20.1507 77.8053 20.2646C77.5709 20.3786 77.3691 20.5462 77.1998 20.7676C77.0338 20.9889 76.9052 21.2624 76.8141 21.5879C76.7229 21.9134 76.6773 22.2878 76.6773 22.7109V23.1699C76.6773 23.5964 76.7229 23.974 76.8141 24.3027C76.9052 24.6283 77.0354 24.9033 77.2047 25.1279C77.3772 25.3493 77.5807 25.5169 77.815 25.6309C78.0527 25.7448 78.318 25.8018 78.6109 25.8018C78.9169 25.8018 79.1887 25.7448 79.4264 25.6309C79.664 25.5169 79.8642 25.3493 80.027 25.1279C80.193 24.9033 80.3183 24.6283 80.4029 24.3027C80.4876 23.974 80.5299 23.5964 80.5299 23.1699ZM88.4424 19.3906V26.5H87.4951L83.916 21.0166V26.5H82.9736V19.3906H83.916L87.5098 24.8887V19.3906H88.4424Z" fill="#2B2B2B"/>
<path d="M103.039 17.5L105.531 22.0698L110.648 23.0279L107.072 26.8102L107.741 31.9721L103.039 29.74L98.3368 31.9721L99.0066 26.8102L95.4306 23.0279L100.547 22.0698L103.039 17.5Z" fill="#FF3626"/>
<path d="M119.039 17.5L121.531 22.0698L126.648 23.0279L123.072 26.8102L123.741 31.9721L119.039 29.74L114.337 31.9721L115.007 26.8102L111.431 23.0279L116.547 22.0698L119.039 17.5Z" fill="#FF3626"/>
<path d="M135.039 17.5L137.531 22.0698L142.648 23.0279L139.072 26.8102L139.741 31.9721L135.039 29.74L130.337 31.9721L131.007 26.8102L127.431 23.0279L132.547 22.0698L135.039 17.5Z" fill="#FF3626"/>
<path d="M151.039 17.5L153.531 22.0698L158.648 23.0279L155.072 26.8102L155.741 31.9721L151.039 29.74L146.337 31.9721L147.007 26.8102L143.431 23.0279L148.547 22.0698L151.039 17.5Z" fill="#FF3626"/>
<path d="M167.039 17.5L169.531 22.0698L174.648 23.0279L171.072 26.8102L171.741 31.9721L167.039 29.74L162.337 31.9721L163.007 26.8102L159.431 23.0279L164.547 22.0698L167.039 17.5Z" fill="#FF3626"/>
<path d="M73.1571 43.1748C73.7245 43.1748 74.2687 43.3942 74.6699 43.7847C75.0712 44.1752 75.2966 44.7048 75.2966 45.257C75.2966 45.8093 75.0712 46.3389 74.6699 46.7294C74.2687 47.1199 73.7245 47.3393 73.1571 47.3393C72.5896 47.3393 72.0455 47.1199 71.6442 46.7294C71.243 46.3389 71.0176 45.8093 71.0176 45.257C71.0176 44.7048 71.243 44.1752 71.6442 43.7847C72.0455 43.3942 72.5896 43.1748 73.1571 43.1748Z" fill="#FF3626"/>
<path d="M41.9521 33.5H44.9113V51.5H41.9521V33.5ZM55.2685 45.758C55.2685 48.5127 52.8885 48.7323 52.1806 48.7323C50.4117 48.7323 50.0899 47.121 50.0899 46.149V39.26H47.1307V46.1346C47.1307 47.841 47.6811 49.2493 48.6458 50.1882C49.498 51.0183 50.7749 51.4719 52.1584 51.4719C53.1393 51.4719 54.5287 51.1746 55.2685 50.5172V51.5H58.2277V39.26H55.2685V45.758ZM64.1461 34.94H61.1869V39.26H58.9675V42.14H61.1869V51.5H64.1461V42.14H66.3655V39.26H64.1461V34.94ZM75.6847 47.8402C75.0404 48.404 74.1896 48.7165 73.256 48.7165C71.1978 48.7165 69.6864 47.2455 69.6864 45.2259C69.6864 43.2063 71.1498 41.7973 73.256 41.7973C74.1733 41.7973 75.0404 42.0946 75.701 42.6584L76.1501 43.0342L78.1453 41.0931L77.6459 40.6546C76.4719 39.6229 74.9131 39.044 73.2552 39.044C69.5562 39.044 66.87 41.6418 66.87 45.2108C66.87 48.7647 69.6206 51.4554 73.2552 51.4554C74.9442 51.4554 76.5192 50.8765 77.6785 49.8282L78.1608 49.3897L76.1345 47.45L75.6847 47.8402ZM88.7074 40.327C87.8552 39.4976 86.8564 39.044 85.473 39.044C84.492 39.044 83.3809 39.3414 82.6411 39.998V33.5H79.6819V51.5H82.6411V44.7572C82.6411 42.0025 84.6518 41.7836 85.3598 41.7836C87.1287 41.7836 87.0799 43.3957 87.0799 44.3662V51.5H90.0391V44.3814C90.0391 42.675 89.6729 41.2666 88.7074 40.327Z" fill="#2B2B2B"/>
<path d="M37.8087 46.9793C36.6835 48.1061 35.1551 48.7167 33.5468 48.7167C30.2502 48.7167 27.8533 46.1967 27.8533 42.7378C27.8533 39.2631 30.2502 36.7431 33.5468 36.7431C35.1395 36.7431 36.651 37.3529 37.7932 38.4646L38.243 38.9031L40.2212 36.9778L39.787 36.5393C38.1468 34.8955 35.9274 34.0042 33.5468 34.0042C28.69 34.0042 25.0391 37.7604 25.0391 42.7529C25.0391 47.7303 28.7062 51.4714 33.5468 51.4714C35.9437 51.4714 38.1631 50.5642 39.8032 48.9204L40.2375 48.4819L38.2756 46.5257L37.8087 46.9793Z" fill="#2B2B2B"/>
</svg>
