<svg width="140" height="100" viewBox="0 0 140 100" fill="none" xmlns="http://www.w3.org/2000/svg">
<path d="M18.395 42V58.7911C13.7592 58.7911 10 55.0319 10 50.395C10 45.7582 13.7592 42 18.395 42Z" fill="#080D10"/>
<path d="M20.8741 42H32.7075C32.7075 45.2667 30.058 47.9162 26.7903 47.9162C23.5226 47.9162 20.8741 45.2667 20.8741 42Z" fill="#080D10"/>
<path d="M32.7075 58.7907H20.8741C20.8741 55.524 23.5237 52.8745 26.7913 52.8745C30.059 52.8745 32.7075 55.524 32.7075 58.7907Z" fill="#080D10"/>
<path d="M43.5824 50.395C43.5824 55.0319 39.8232 58.7911 35.1863 58.7911V42C39.8232 42 43.5824 45.7582 43.5824 50.395Z" fill="#080D10"/>
<path d="M59.3068 44.2087H61.6166V56.5459H59.3068V51.4427H54.3647V56.5459H52.0906V44.2087H54.3647V49.3835H59.3068V44.2087Z" fill="#080D10"/>
<path d="M70.9475 47.5213C70.1835 48.3092 69.8015 49.2701 69.8015 50.4042C69.8015 51.5382 70.1835 52.4992 70.9475 53.287C71.7234 54.0749 72.6665 54.4688 73.7766 54.4688C74.8868 54.4688 75.8239 54.0749 76.5879 53.287C77.3638 52.4992 77.7518 51.5382 77.7518 50.4042C77.7518 49.2701 77.3638 48.3092 76.5879 47.5213C75.8239 46.7215 74.8868 46.3216 73.7766 46.3216C72.6665 46.3216 71.7234 46.7215 70.9475 47.5213ZM67.5274 50.4042C67.5274 48.6494 68.1303 47.1572 69.336 45.9277C70.5416 44.6862 72.0219 44.0654 73.7766 44.0654C75.5314 44.0654 77.0117 44.6862 78.2173 45.9277C79.4349 47.1572 80.0438 48.6494 80.0438 50.4042C80.0438 52.147 79.4349 53.6392 78.2173 54.8807C76.9997 56.1102 75.5195 56.725 73.7766 56.725C72.0338 56.725 70.5536 56.1102 69.336 54.8807C68.1303 53.6392 67.5274 52.147 67.5274 50.4042Z" fill="#080D10"/>
<path d="M90.7893 46.25H88.2467V50.1177H90.7177C91.2788 50.1177 91.7085 49.9267 92.0069 49.5447C92.3054 49.1627 92.4546 48.715 92.4546 48.2017C92.4546 47.7004 92.3113 47.2527 92.0248 46.8588C91.7383 46.4529 91.3265 46.25 90.7893 46.25ZM91.7025 52.0694L94.854 56.5459H92.0965L89.1957 52.159H88.2467V56.5459H85.9547V44.2087H90.8968C92.1741 44.2087 93.147 44.6026 93.8154 45.3905C94.4959 46.1664 94.8361 47.1035 94.8361 48.2017C94.8361 49.1567 94.5675 49.9983 94.0303 50.7265C93.5051 51.4546 92.7291 51.9023 91.7025 52.0694Z" fill="#080D10"/>
<path d="M107.511 52.5529L111.432 44.2087H113.402L114.906 56.5459H112.614L111.665 48.3271L108.442 55.1493H106.616L103.375 48.3271L102.408 56.5459H100.116L101.638 44.2087H103.572L107.511 52.5529Z" fill="#080D10"/>
<path d="M130 44.2087V56.5459H127.905L123.142 48.4345V56.5459H120.868V44.2087H122.999L127.708 52.2306V44.2087H130Z" fill="#080D10"/>
</svg>
