<svg width="48" height="48" viewBox="0 0 48 48" fill="none" xmlns="http://www.w3.org/2000/svg">
<path d="M24.0402 35.9266C23.9423 35.8245 23.9423 35.9266 24.0402 35.9266L23.5511 35.6202L23.4533 35.5181L11.9122 26.9397C11.9122 26.9397 11.8144 26.9397 11.8144 26.8376L11.6188 26.6333L11.521 26.5311H11.3254L8 24.0801L14.553 25.1014C14.8464 25.1014 14.9442 25.2036 15.2376 25.3057C15.3354 25.3057 15.5311 25.4077 15.5311 25.4077C15.8245 25.5098 15.9223 25.6119 16.1179 25.7141C16.3135 25.8162 16.4113 25.9183 16.6069 26.0205C16.7047 26.1226 16.9003 26.2247 16.9003 26.3269C16.9982 26.429 17.096 26.429 17.1938 26.5311C17.3894 26.6333 17.4872 26.7354 17.4872 26.8376C17.7806 27.1438 17.9762 27.4502 18.2696 27.6545L23.4533 35.3139L23.5511 35.4159L24.0402 35.9266Z" fill="white"/>
<path d="M24.04 47.7731L23.551 46.956L23.4532 46.8539L8.09766 24.0801L11.423 26.5311L12.0099 26.9397L23.551 35.5181H23.6487L24.04 35.8245C24.04 35.8245 24.1378 35.8245 24.1378 35.9266L24.6269 35.5181L40.178 24.0801L24.5291 46.956L24.4312 47.0582L24.04 47.7731Z" fill="white"/>
<path d="M24.0439 32.0438L23.5548 31.2267L23.457 31.1246L19.6426 25.6099L23.457 26.4269H23.5548L24.0439 26.529L24.5328 26.4269L28.2495 25.5078L24.5328 31.2267V31.3289L24.0439 32.0438Z" fill="white"/>
<path d="M40.2787 23.9785L35.3884 24.6935L33.5302 24.9999C32.063 25.2041 30.6937 26.021 29.8136 27.3486L24.6298 35.1101L24.5321 35.2122L24.043 35.9272L24.6298 35.3144L24.7276 35.2122L24.043 35.9272L37.2467 26.1232L40.2787 23.9785Z" fill="white"/>
<path d="M26.4815 7.84236C26.4815 12.3359 19.0482 14.6847 19.0482 19.4846C18.9504 20.608 19.2438 21.7313 19.7329 22.7526C19.7329 22.7526 16.8965 19.893 16.8965 16.8293C16.8965 13.7656 19.635 9.16998 19.635 9.16998C19.635 11.2125 20.4175 11.8252 21.2 11.9274H21.2978C22.178 11.9274 22.667 11.2125 22.667 10.1912C22.667 9.16998 21.5912 8.14875 21.5912 6.10624C21.5912 4.16587 23.9386 1 23.9386 1C25.6013 3.0425 26.4815 5.39137 26.4815 7.84236Z" fill="white"/>
<path d="M24.432 24.1843C22.0847 24.1843 20.3242 22.2439 20.3242 19.8951V19.7929C20.3242 14.5846 27.2684 14.0739 27.2684 7.02734C27.464 7.33372 29.3224 9.98895 29.3224 12.8485C29.3224 16.4228 26.0947 17.3419 26.0947 19.078C26.0947 19.7929 26.3882 20.3036 27.3663 20.3036C27.464 20.3036 27.5618 20.3036 27.6597 20.2015C29.5179 19.3844 30.7894 17.5461 30.8872 15.4016C30.8872 15.5037 31.8653 24.1843 24.432 24.1843Z" fill="white"/>
<path d="M27.4656 20.3036C27.5634 20.3036 27.6611 20.3036 27.759 20.2015C26.7809 20.5079 23.1621 21.4269 23.1621 18.7718C23.1621 15.5037 28.5415 14.7888 28.5415 12.0315C28.5415 10.2953 28.1502 8.55921 27.27 7.02734C27.4656 7.33372 29.3238 9.98897 29.3238 12.8485C29.3238 16.4228 26.0963 17.342 26.0963 19.0782C26.1941 19.7929 26.5854 20.3036 27.4656 20.3036Z" fill="white"/>
<path d="M24.5305 9.68063C24.5305 12.2338 21.4007 12.0295 21.2051 11.9274H21.4985C22.3787 11.9274 22.8678 11.2125 22.8678 10.1913C22.8678 9.17 21.7919 8.14875 21.7919 6.10624C21.7919 4.16587 24.1392 1 24.1392 1C23.3568 2.32762 22.9656 3.75737 22.8678 5.18713C22.8678 7.536 24.5305 7.74026 24.5305 9.68063Z" fill="white"/>
</svg>
