<svg width="48" height="48" viewBox="0 0 48 48" fill="none" xmlns="http://www.w3.org/2000/svg">
<path d="M32.7731 32.0825C30.9895 33.7304 28.6348 34.6437 26.0506 34.6437C20.3539 34.6437 16.1705 30.3441 16.1705 24.4408C16.1705 18.5376 20.2208 14.4189 26.0506 14.4189C28.5897 14.4189 30.9896 15.2881 32.8182 16.936L34.0611 18.0345L39.5837 12.3607L38.2016 11.079C34.9519 8.06317 30.6374 6.37109 26.0485 6.37109C15.8101 6.37109 8.375 13.9643 8.375 24.3967C8.375 34.7848 15.9883 42.6495 26.0485 42.6495C30.7234 42.6495 35.083 40.9574 38.2916 37.8932L39.6267 36.6115L34.0181 30.9419L32.7731 32.0825Z" fill="white"/>
<path d="M25.7813 18.4453C27.3518 18.4453 28.858 19.0866 29.9686 20.228C31.0792 21.3694 31.7031 22.9175 31.7031 24.5317C31.7031 26.1459 31.0792 27.694 29.9686 28.8354C28.858 29.9768 27.3518 30.6181 25.7813 30.6181C24.2107 30.6181 22.7044 29.9768 21.5938 28.8354C20.4832 27.694 19.8594 26.1459 19.8594 24.5317C19.8594 22.9175 20.4832 21.3694 21.5938 20.228C22.7044 19.0866 24.2107 18.4453 25.7813 18.4453Z" fill="#FF3D2E"/>
</svg>
