<svg width="15" height="15" viewBox="0 0 15 15" fill="none" xmlns="http://www.w3.org/2000/svg">
<g id="Icn/15/Instagram">
<g id="Shape">
<path d="M4.92188 0.625H10.0781C12.4509 0.625 14.375 2.54914 14.375 4.92188V10.0781C14.375 12.4509 12.4509 14.375 10.0781 14.375H4.92188C2.54914 14.375 0.625 12.4509 0.625 10.0781V4.92188C0.625 2.54914 2.54914 0.625 4.92188 0.625ZM1.91406 10.0781C1.91406 11.7367 3.26328 13.0859 4.92188 13.0859H10.0781C11.7367 13.0859 13.0859 11.7367 13.0859 10.0781V4.92188C13.0859 3.26328 11.7367 1.91406 10.0781 1.91406H4.92188C3.26328 1.91406 1.91406 3.26328 1.91406 4.92188V10.0781Z" fill="#080D10"/>
<path d="M7.5 4.0625C9.39836 4.0625 10.9375 5.60164 10.9375 7.5C10.9375 9.39836 9.39836 10.9375 7.5 10.9375C5.60164 10.9375 4.0625 9.39836 4.0625 7.5C4.0625 5.60164 5.60164 4.0625 7.5 4.0625ZM7.5 9.64844C8.68422 9.64844 9.64844 8.68422 9.64844 7.5C9.64844 6.31492 8.68422 5.35156 7.5 5.35156C6.31578 5.35156 5.35156 6.31492 5.35156 7.5C5.35156 8.68422 6.31578 9.64844 7.5 9.64844Z" fill="#080D10"/>
<path d="M11.1953 4.26274C10.9423 4.26274 10.7373 4.05766 10.7373 3.80469C10.7373 3.55172 10.9423 3.34664 11.1953 3.34664C11.4483 3.34664 11.6534 3.55172 11.6534 3.80469C11.6534 4.05766 11.4483 4.26274 11.1953 4.26274Z" fill="#080D10"/>
</g>
</g>
</svg>
