<svg width="15" height="15" viewBox="0 0 15 15" fill="none" xmlns="http://www.w3.org/2000/svg">
<g id="Icn/15/LinkedIn">
<path id="Shape" d="M13 8.74409V13H10.6423V9.02913C10.6423 8.03161 10.3013 7.35085 9.44794 7.35085C8.79648 7.35085 8.4088 7.80963 8.23824 8.25343C8.17605 8.41209 8.16004 8.63291 8.16004 8.855V13H5.80159C5.80159 13 5.83335 6.27464 5.80159 5.57785H8.15981V6.62991C8.15503 6.63778 8.14881 6.64626 8.14431 6.65389H8.15981V6.62991C8.47312 6.1249 9.03266 5.40348 10.2851 5.40348C11.8368 5.40345 13 6.46429 13 8.74409ZM3.33455 2C2.52773 2 2 2.55382 2 3.28212C2 3.99455 2.51246 4.56518 3.30325 4.56518H3.319C4.14145 4.56518 4.65294 3.99466 4.65294 3.28212C4.63744 2.55382 4.14145 2 3.33455 2ZM2.14007 13H4.49763V5.57785H2.14007V13Z" fill="#080D10"/>
</g>
</svg>
