<svg width="23" height="24" viewBox="0 0 23 24" fill="none" xmlns="http://www.w3.org/2000/svg">
<rect y="0.5" width="23" height="23" rx="4" fill="white" fill-opacity="0.08"/>
<path d="M17 13.2441V17.5H14.6423V13.5291C14.6423 12.5316 14.3013 11.8508 13.4479 11.8508C12.7965 11.8508 12.4088 12.3096 12.2382 12.7534C12.176 12.9121 12.16 13.1329 12.16 13.355V17.5H9.80159C9.80159 17.5 9.83335 10.7746 9.80159 10.0778H12.1598V11.1299C12.155 11.1378 12.1488 11.1463 12.1443 11.1539H12.1598V11.1299C12.4731 10.6249 13.0327 9.90348 14.2851 9.90348C15.8368 9.90345 17 10.9643 17 13.2441ZM7.33455 6.5C6.52773 6.5 6 7.05382 6 7.78212C6 8.49455 6.51246 9.06518 7.30325 9.06518H7.319C8.14145 9.06518 8.65294 8.49466 8.65294 7.78212C8.63744 7.05382 8.14145 6.5 7.33455 6.5ZM6.14007 17.5H8.49763V10.0778H6.14007V17.5Z" fill="white"/>
</svg>
