<svg width="140" height="100" viewBox="0 0 140 100" fill="none" xmlns="http://www.w3.org/2000/svg">
<path d="M77.5777 27.9119C77.9303 29.3043 77.9371 30.7064 77.6675 32.024C77.6675 32.0322 77.6621 32.0444 77.6621 32.0553C77.5845 32.4201 77.4824 32.7781 77.3572 33.1266C77.1721 33.6152 76.908 34.0944 76.5677 34.5558C74.2101 37.7192 70.7935 37.6593 68.2454 36.2981C68.0535 36.1947 67.8629 36.0844 67.6655 35.9606C67.2231 35.691 66.7617 35.3848 66.2948 35.0554C64.1046 33.4955 61.7117 31.4319 59.5869 30.5743C58.4503 30.1183 57.3845 29.9986 56.4697 30.4872C54.4538 31.5585 54.8186 33.5798 56.1226 34.7505C56.1226 34.7505 56.158 34.7818 56.2179 34.8376C56.2424 34.858 56.2724 34.8771 56.301 34.9016C56.3064 34.9016 56.3132 34.9016 56.3132 34.9056C56.3486 34.9369 56.3908 34.9655 56.4384 34.9968C56.5038 35.0445 56.5882 35.0962 56.6834 35.1561C56.8209 35.2432 56.9707 35.3222 57.1258 35.3861C57.1313 35.3861 57.1381 35.3902 57.1503 35.3984C56.301 35.8789 55.5223 36.4656 54.8173 37.1571C53.9856 37.9629 53.2982 38.8721 52.7537 39.8522C52.2446 39.0192 51.9397 38.0745 51.8676 37.0495C51.8322 36.4588 51.8676 35.8707 51.9873 35.299C52.5618 32.4732 54.9425 30.0557 58.0964 29.1669C58.5986 29.0239 59.12 28.9205 59.6576 28.8579C61.5007 28.7068 63.6418 29.2104 66.5561 30.4532C69.2486 31.5966 71.696 31.6279 73.4315 29.4813C75.2024 27.2939 74.6457 23.5315 71.8103 22.5705C68.681 21.5102 65.3597 24.9159 66.156 27.7186C62.6073 26.3097 60.3042 26.4445 60.3042 26.4445C61.4408 23.8446 63.7031 22.0111 66.3833 21.3087C66.4187 21.2965 66.4432 21.2883 66.4786 21.2815C71.3666 20.0428 76.3445 23.0075 77.5831 27.9064L77.5777 27.9146V27.9119Z" fill="#080D10"/>
<path d="M56.5347 38.9338C57.5638 37.9333 58.7725 37.2228 60.0534 36.8022C60.0588 36.8022 60.0711 36.794 60.0833 36.7899C60.4427 36.6783 60.7952 36.583 61.16 36.5163C61.6746 36.4333 62.2245 36.421 62.7989 36.4891C66.7123 36.9451 68.3757 39.9383 68.4655 42.8241C68.471 43.0418 68.471 43.2651 68.4655 43.4992C68.4533 44.0192 68.4179 44.5664 68.3634 45.1381C68.1116 47.8128 67.5141 50.9177 67.8367 53.1868C68.0095 54.3969 68.441 55.3783 69.3149 55.9296C71.26 57.1438 72.8213 55.818 73.1807 54.0961C73.1807 54.0961 73.1929 54.0525 73.2106 53.9695C73.2106 53.9382 73.2161 53.9055 73.2229 53.866V53.8538C73.2283 53.802 73.2351 53.7544 73.2406 53.6986C73.246 53.6156 73.2528 53.5162 73.2528 53.4087C73.2651 53.2453 73.2528 53.0793 73.2351 52.9091V52.886C74.0791 53.3814 74.9761 53.7626 75.9276 54.0334C77.041 54.3465 78.1708 54.4935 79.2897 54.4704C78.8174 55.3157 78.1531 56.0535 77.3037 56.6252C76.8137 56.9546 76.2869 57.2132 75.7302 57.3956C72.9956 58.313 69.711 57.4555 67.3657 55.1728C66.9886 54.808 66.6415 54.4064 66.3189 53.9736C65.2654 52.449 64.6311 50.346 64.2486 47.1989C63.896 44.3009 62.6995 42.1625 59.9703 41.7337C57.2003 41.2968 54.2139 43.6544 54.8005 46.5959C55.4471 49.8342 60.0534 51.0089 62.0884 48.9181C62.6383 52.6927 63.9069 54.6215 63.9069 54.6215C61.0892 54.9346 58.3669 53.8946 56.4217 51.9263C56.3972 51.9059 56.3741 51.8828 56.3564 51.8583C52.8377 48.2389 52.9153 42.447 56.5361 38.927V38.9351L56.5347 38.9338Z" fill="#080D10"/>
<path d="M76.6023 51.6471C75.2207 51.2537 73.9997 50.5636 72.9937 49.6666C72.9883 49.6625 72.9815 49.6543 72.9692 49.6462C72.6997 49.3957 72.437 49.1303 72.192 48.8485C71.8626 48.4402 71.5822 47.9719 71.3549 47.4478C69.7936 43.8284 71.5522 40.8951 74.0051 39.3706C74.1902 39.2549 74.3822 39.1446 74.585 39.033C75.0451 38.7825 75.5364 38.5375 76.0564 38.2993C78.497 37.1804 81.4835 36.1445 83.2898 34.7316C84.2535 33.9775 84.8878 33.1118 84.9232 32.0759C85.0076 29.7891 83.0747 29.099 81.4045 29.6462C81.4045 29.6462 81.3623 29.6585 81.2793 29.6857C81.2548 29.6979 81.2194 29.7088 81.184 29.7252C81.1786 29.7252 81.1786 29.7333 81.1786 29.7293C81.1309 29.7497 81.0833 29.7687 81.0356 29.7932C80.9581 29.8286 80.8682 29.8763 80.7729 29.9239C80.63 29.9988 80.4857 30.0913 80.3537 30.1934C80.3483 30.1934 80.3415 30.2016 80.3292 30.2098C80.3415 29.2338 80.2217 28.2646 79.9766 27.305C79.6894 26.1861 79.2525 25.1298 78.6781 24.1729C79.6418 24.1606 80.6164 24.3675 81.5379 24.8194C82.0702 25.0808 82.5547 25.4102 82.9917 25.7954C85.1573 27.7052 86.0557 30.9788 85.254 34.1504C85.1288 34.6581 84.9545 35.1631 84.7394 35.6586C83.95 37.3342 82.4363 38.9336 79.9045 40.8338C77.5714 42.5925 76.3151 44.6996 77.3074 47.2723C78.3187 49.8925 81.8483 51.2973 84.0983 49.3208C86.5811 47.1416 85.2948 42.5612 82.4703 41.8466C85.4622 39.4808 86.4967 37.4172 86.4967 37.4172C88.1778 39.704 88.6393 42.5775 87.9083 45.2482C87.9029 45.2795 87.8961 45.3121 87.8838 45.3394C86.5022 50.1975 81.4522 53.0233 76.5873 51.6458H76.5995L76.6023 51.6471Z" fill="#080D10"/>
<path d="M74.416 67.2563H65.6803L63.8086 69.1281V79.7355C64.5388 79.0052 64.9501 78.594 65.6803 77.8637V75.3691H74.416V77.8637C75.1462 78.594 75.5575 79.0052 76.2877 79.7355V69.1281L74.416 67.2563ZM74.416 73.4944H65.6803V69.7767L66.3319 69.125H73.7674L74.419 69.7767V73.4944H74.416Z" fill="#080D10"/>
<path d="M128.802 67.2563H120.067L118.195 69.1281V79.7355C118.925 79.0052 119.336 78.594 120.067 77.8637V75.3691H128.802V77.8637C129.532 78.594 129.944 79.0052 130.674 79.7355V69.1281L128.802 67.2563ZM128.802 73.4944H120.067V69.7767L120.718 69.125H128.154L128.805 69.7767V73.4944H128.804H128.802Z" fill="#080D10"/>
<path d="M36.6147 79.7371V67.2534C37.345 67.9837 37.7562 68.3949 38.4865 69.1251V72.5632H47.2221V69.1251C47.9524 68.3949 48.3636 67.9837 49.0939 67.2534V79.7371L47.2221 77.8654V74.4334H38.4865V77.8654L36.6147 79.7371Z" fill="#080D10"/>
<path d="M29.2566 74.4457C29.7819 74.4457 30.2076 74.0199 30.2076 73.4947C30.2076 72.9695 29.7819 72.5437 29.2566 72.5437C28.7314 72.5437 28.3057 72.9695 28.3057 73.4947C28.3057 74.0199 28.7314 74.4457 29.2566 74.4457Z" fill="#080D10"/>
<path d="M56.4515 74.4457C56.9767 74.4457 57.4024 74.0199 57.4024 73.4947C57.4024 72.9695 56.9767 72.5437 56.4515 72.5437C55.9263 72.5437 55.5005 72.9695 55.5005 73.4947C55.5005 74.0199 55.9263 74.4457 56.4515 74.4457Z" fill="#080D10"/>
<path d="M83.6438 74.4457C84.1691 74.4457 84.5948 74.0199 84.5948 73.4947C84.5948 72.9695 84.1691 72.5437 83.6438 72.5437C83.1186 72.5437 82.6929 72.9695 82.6929 73.4947C82.6929 74.0199 83.1186 74.4457 83.6438 74.4457Z" fill="#080D10"/>
<path d="M110.836 74.4457C111.361 74.4457 111.787 74.0199 111.787 73.4947C111.787 72.9695 111.361 72.5437 110.836 72.5437C110.311 72.5437 109.885 72.9695 109.885 73.4947C109.885 74.0199 110.311 74.4457 110.836 74.4457Z" fill="#080D10"/>
<path d="M21.9 69.1251L20.0283 67.2534H11.2926L9.4209 69.1251V72.5571L11.2926 74.4288H19.3767L20.0283 75.0805V77.2122L19.3767 77.8638H9.4209L11.2926 79.7356H20.0283L21.9 77.8638V74.4319C21.1728 73.6971 20.7555 73.2889 20.0283 72.5602H11.9442L11.2926 71.9085V69.7768L11.9442 69.1251H21.9Z" fill="#080D10"/>
<path d="M91.0031 69.1273V77.863L92.8748 79.7347H101.611L103.482 77.863V72.8919H96.6319L98.5036 74.7636H101.603V77.2144L100.951 77.866H93.5159L92.8673 77.2144V69.779L93.5159 69.1273H103.472L101.604 67.2556H92.8688L90.9971 69.1273H91.0046H91.0016H91.0031Z" fill="#080D10"/>
</svg>
