<svg width="140" height="100" viewBox="0 0 140 100" fill="none" xmlns="http://www.w3.org/2000/svg">
<path d="M23.2661 36.3105V39.7787H12.8071V60.6235H28.7973V46.6004H19.7873V54.0667H26.0896V57.5149H16.2965V43.1322H32.2868V64.0929H9.35889V36.3105H23.2661Z" fill="#080D10"/>
<path d="M28.0748 36.5474H25.0781V39.544H28.0748V36.5474Z" fill="#080D10"/>
<path d="M32.2828 36.5918H29.2861V39.5884H32.2828V36.5918Z" fill="#080D10"/>
<path d="M23.8721 54.963C23.8721 54.8165 23.7336 54.8245 23.7336 54.8245H23.366C23.302 54.8245 23.2168 54.8632 23.1742 54.9098C23.0477 55.0483 22.7999 55.3213 22.6747 55.4598C22.6322 55.5065 22.5976 55.597 22.5976 55.6596V55.938C22.5976 56.0019 22.6481 56.0525 22.7121 56.0525H22.9491C23.0131 56.0525 23.0637 56.0019 23.0637 55.938V55.8461C23.0637 55.7821 23.0983 55.6929 23.1409 55.6463L23.3314 55.4385C23.374 55.392 23.4086 55.4053 23.4086 55.4691V56.1484C23.4086 56.2123 23.3567 56.2629 23.2941 56.2629H22.7054C22.6415 56.2629 22.5908 56.3148 22.5908 56.3774V56.6186C22.5908 56.6812 22.6429 56.7331 22.7054 56.7331H23.7083C23.7083 56.7331 23.8721 56.7398 23.8735 56.568V54.9618L23.8721 54.963Z" fill="#FDFDFF"/>
<path d="M24.041 54.963C24.041 54.8165 24.1795 54.8245 24.1795 54.8245H24.5484C24.611 54.8245 24.6975 54.8632 24.7402 54.9098C24.8654 55.0483 25.1132 55.3213 25.2396 55.4598C25.2823 55.5065 25.3169 55.597 25.3169 55.6596V55.938C25.3169 56.0019 25.265 56.0525 25.2024 56.0525H24.9653C24.9014 56.0525 24.8507 56.0019 24.8507 55.938V55.8461C24.8507 55.7821 24.8161 55.6929 24.7735 55.6463L24.583 55.4385C24.5405 55.392 24.5058 55.4053 24.5058 55.4691V56.1484C24.5058 56.2123 24.5578 56.2629 24.6204 56.2629H25.209C25.2729 56.2629 25.3236 56.3148 25.3236 56.3774V56.6186C25.3236 56.6812 25.2716 56.7331 25.209 56.7331H24.2075C24.2075 56.7331 24.0437 56.7398 24.0423 56.568V54.9618L24.041 54.963Z" fill="#FDFDFF"/>
<path d="M40.7814 55.3979C41.8629 55.3979 42.7858 55.7496 43.5477 56.4528C44.3322 57.1747 44.725 58.0749 44.725 59.1577C44.725 60.2406 44.3095 61.2008 43.4785 62.0133C42.666 62.807 41.7324 63.2053 40.6775 63.2053C39.6227 63.2053 38.6331 62.8231 37.8327 62.0585C37.0323 61.2941 36.6313 60.3684 36.6313 59.2817C36.6313 58.1949 37.043 57.2772 37.8673 56.526C38.6917 55.7749 39.6627 55.3993 40.7814 55.3993V55.3979ZM40.8014 55.8774C39.8745 55.8774 39.1379 56.2104 38.5892 56.8763C38.0684 57.5103 37.8087 58.3201 37.8087 59.3043C37.8087 60.2073 38.0684 60.9864 38.5892 61.643C39.142 62.3409 39.8451 62.6898 40.6975 62.6898C41.6192 62.6898 42.3317 62.3249 42.8338 61.5951C43.272 60.9571 43.4918 60.158 43.4918 59.2004C43.4918 58.3201 43.252 57.5582 42.7725 56.9162C42.2572 56.2237 41.5992 55.8761 40.8001 55.8761L40.8014 55.8774Z" fill="#080D10"/>
<path d="M46.3638 56.5622V62.6768C46.3638 62.7273 46.3704 62.7686 46.3837 62.8006C46.397 62.8326 46.4277 62.8779 46.4729 62.9378C46.5556 63.039 46.6514 63.1043 46.7607 63.1362H45.4941C45.554 63.1269 45.6033 63.107 45.6445 63.075C45.6992 63.0204 45.7405 62.9791 45.7685 62.9511C45.7964 62.9232 45.8138 62.8885 45.8231 62.8445C45.8323 62.802 45.8364 62.7539 45.8364 62.7047V56.0774C45.8364 56.0001 45.8297 55.9456 45.8164 55.9136C45.8031 55.8817 45.7431 55.8111 45.6379 55.7018C45.5833 55.6472 45.4967 55.59 45.3782 55.53C45.3422 55.5114 45.2863 55.4888 45.2144 55.4622H46.7767L51.3769 61.1065V55.9136C51.3769 55.8683 51.3702 55.831 51.3569 55.799C51.3435 55.7671 51.3156 55.7231 51.2743 55.6645C51.2144 55.5753 51.1331 55.5073 51.0279 55.4622H52.3625C52.2652 55.5073 52.1839 55.5713 52.1187 55.6539C52.0907 55.6859 52.0654 55.7152 52.0414 55.7432C51.9949 55.803 51.9722 55.859 51.9722 55.9149V63.356L46.3638 56.5662V56.5622Z" fill="#080D10"/>
<path d="M53.2416 63.1417C53.2922 63.1057 53.3335 63.0751 53.3654 63.0524C53.448 62.9885 53.5053 62.9272 53.5399 62.8673C53.5746 62.8087 53.5985 62.7581 53.6118 62.7168C53.6251 62.6755 53.6318 62.6262 53.6318 62.5663V56.0216C53.6318 55.967 53.6238 55.9163 53.6078 55.871C53.5919 55.8257 53.5679 55.7778 53.5386 55.7272C53.508 55.6766 53.468 55.6287 53.416 55.5834C53.3321 55.5101 53.2722 55.4676 53.2349 55.4529H55.0489C55.0036 55.4809 54.969 55.5034 54.9463 55.5208C54.8638 55.5807 54.8092 55.63 54.7825 55.6713C54.6959 55.7858 54.652 55.9018 54.652 56.0202V62.545H57.1373C57.2691 62.545 57.3903 62.5197 57.4995 62.469C57.5541 62.4412 57.6233 62.4025 57.7046 62.3518C57.8737 62.2453 58.0029 62.1055 58.0949 61.9297L57.9377 63.1417H53.2402H53.2416Z" fill="#080D10"/>
<path d="M60.1997 62.5663C60.1997 62.6342 60.2103 62.6928 60.2304 62.7408C60.2503 62.7887 60.2863 62.8473 60.3369 62.9153C60.3689 62.9565 60.4367 63.0165 60.542 63.0937C60.5553 63.1031 60.578 63.119 60.6099 63.1417H58.7959C58.8466 63.1057 58.8878 63.0751 58.9198 63.0524C59.0024 62.9885 59.0596 62.9272 59.0942 62.8673C59.1289 62.8074 59.1528 62.7581 59.1701 62.7168C59.1862 62.6755 59.1941 62.6249 59.1941 62.5663V56.0216C59.1941 55.9203 59.1649 55.8205 59.1049 55.7206C59.069 55.6566 59.0183 55.598 58.9545 55.5461C58.8905 55.4942 58.8426 55.4622 58.8106 55.4529H60.6112C60.566 55.4809 60.5313 55.5034 60.5086 55.5208C60.4261 55.5807 60.3675 55.6353 60.3302 55.6846C60.2942 55.7353 60.2623 55.7872 60.2383 55.8418C60.2143 55.8964 60.201 55.9563 60.201 56.0202V62.565L60.1997 62.5663Z" fill="#080D10"/>
<path d="M62.4566 56.5622V62.6768C62.4566 62.7273 62.4632 62.7686 62.4765 62.8006C62.4898 62.8326 62.5204 62.8779 62.5657 62.9378C62.6483 63.039 62.7442 63.1043 62.8534 63.1362H61.5868C61.6467 63.1269 61.696 63.107 61.7373 63.075C61.7919 63.0204 61.8332 62.9791 61.8612 62.9511C61.8891 62.9232 61.9064 62.8885 61.9157 62.8445C61.9251 62.802 61.9291 62.7539 61.9291 62.7047V56.0774C61.9291 56.0001 61.9225 55.9456 61.9091 55.9136C61.8958 55.8817 61.8358 55.8111 61.7307 55.7018C61.6761 55.6472 61.5895 55.59 61.471 55.53C61.435 55.5114 61.379 55.4888 61.3071 55.4622H62.8694L67.4697 61.1065V55.9136C67.4697 55.8683 67.4629 55.831 67.4496 55.799C67.4363 55.7671 67.4083 55.7231 67.367 55.6645C67.3071 55.5753 67.2259 55.5073 67.1206 55.4622H68.4551C68.3579 55.5073 68.2767 55.5713 68.2115 55.6539C68.1835 55.6859 68.1582 55.7152 68.1342 55.7432C68.0875 55.803 68.065 55.859 68.065 55.9149V63.356L62.4566 56.5662V56.5622Z" fill="#080D10"/>
<path d="M72.633 58.6425C72.7342 58.6425 72.8315 58.6078 72.9287 58.5399C73.0245 58.472 73.0912 58.3854 73.1271 58.2802V59.4721C73.0992 59.363 73.0419 59.2804 72.9553 59.2257C72.914 59.1938 72.8714 59.1725 72.8287 59.1605C72.7848 59.1486 72.7289 59.1432 72.661 59.1432H70.7777V62.546H73.215C73.3522 62.546 73.4654 62.5327 73.5533 62.5048C73.6425 62.4768 73.741 62.4222 73.8517 62.3383C74.0474 62.2052 74.1846 62.02 74.2618 61.7856L74.0355 63.1414H69.2967C69.3326 63.1228 69.3793 63.0962 69.4339 63.0589C69.5258 63.0002 69.5911 62.947 69.6323 62.9017C69.7282 62.7924 69.7761 62.662 69.7761 62.5114V56.2744C69.7761 56.0693 69.7215 55.9041 69.6124 55.7803C69.4526 55.5925 69.3153 55.486 69.2021 55.458H73.7344L73.7277 56.4036C73.6585 56.2798 73.556 56.1771 73.4187 56.096C73.3362 56.0507 73.2657 56.0173 73.2057 55.9974C73.1457 55.9774 73.0751 55.9667 72.9926 55.9667H70.7764V58.6437H72.6304L72.633 58.6425Z" fill="#080D10"/>
<path d="M79.2803 63.115C79.3349 63.079 79.3761 63.051 79.4041 63.0324C79.5001 62.9644 79.5679 62.9072 79.6092 62.8606C79.6678 62.7967 79.7185 62.7287 79.7598 62.6554C79.7877 62.6049 79.8236 62.5276 79.8689 62.4224L82.9029 55.2317L85.8676 62.409C85.9036 62.501 85.9262 62.5556 85.9356 62.5729C85.9769 62.6554 86.0301 62.7327 86.0967 62.806C86.1633 62.8792 86.2618 62.9525 86.395 63.0244C86.4949 63.079 86.5615 63.111 86.5935 63.1202L84.4438 63.1136C84.5118 63.0817 84.5651 63.0537 84.601 63.031C84.7155 62.9632 84.7862 62.8965 84.8128 62.8326C84.8407 62.7687 84.854 62.7154 84.854 62.6741C84.854 62.6235 84.8395 62.5582 84.8088 62.4784C84.7781 62.3985 84.7542 62.3359 84.7369 62.2892L84.0949 60.7163H81.1834L80.4549 62.4611C80.4376 62.5116 80.4203 62.5622 80.403 62.6155C80.3857 62.6675 80.3764 62.7154 80.3764 62.7567C80.3764 62.7887 80.383 62.8259 80.3963 62.8659C80.4283 62.9392 80.5122 63.0097 80.6494 63.079C80.6721 63.0884 80.7041 63.1017 80.7453 63.1202L79.2803 63.1136V63.115ZM82.6099 57.1776L81.3833 60.2262H83.8831L82.6099 57.1776Z" fill="#080D10"/>
<path d="M93.5866 56.1475L93.6545 57.9707C93.4308 57.2889 93.1151 56.7814 92.7089 56.4484C92.2481 56.0756 91.6287 55.8891 90.8536 55.8891C89.9866 55.8891 89.2487 56.234 88.6414 56.9226C88.0527 57.5938 87.7584 58.3836 87.7584 59.292C87.7584 60.2003 88.0394 61.0446 88.6001 61.7159C89.1981 62.4284 89.9626 62.7841 90.8935 62.7841C91.5822 62.7841 92.1801 62.587 92.6836 62.1914C93.1884 61.7971 93.5387 61.2618 93.7344 60.5852L93.7064 62.3726C93.3549 62.6376 92.9193 62.852 92.3985 63.0158C91.8778 63.1796 91.3277 63.2622 90.7484 63.2622C89.5484 63.2622 88.5602 62.8787 87.7837 62.1128C87.0072 61.347 86.6196 60.4 86.6196 59.2733C86.6196 58.1466 87.0512 57.2649 87.9142 56.5164C88.7493 55.7919 89.7429 55.4282 90.8923 55.4282C91.3531 55.4282 91.8924 55.5215 92.5078 55.708C93.0139 55.8624 93.3722 56.0089 93.5826 56.1448L93.5866 56.1475Z" fill="#080D10"/>
<path d="M94.3633 63.115C94.4179 63.079 94.4591 63.051 94.4871 63.0324C94.5831 62.9644 94.651 62.9072 94.6922 62.8606C94.7522 62.7967 94.8015 62.7287 94.8428 62.6554C94.8707 62.6049 94.9066 62.5276 94.9519 62.4224L97.986 55.2317L100.951 62.409C100.987 62.501 101.009 62.5556 101.019 62.5729C101.06 62.6554 101.113 62.7327 101.18 62.806C101.246 62.8792 101.345 62.9525 101.478 63.0244C101.578 63.079 101.645 63.111 101.676 63.1202L99.5269 63.1136C99.5948 63.0817 99.6481 63.0537 99.684 63.031C99.7986 62.9632 99.8692 62.8965 99.8958 62.8326C99.9225 62.7687 99.9371 62.7154 99.9371 62.6741C99.9371 62.6235 99.9225 62.5582 99.8918 62.4784C99.8612 62.3985 99.8372 62.3359 99.8199 62.2892L99.1779 60.7163H96.2665L95.538 62.4611C95.5207 62.5116 95.5033 62.5622 95.486 62.6155C95.4687 62.6675 95.4594 62.7154 95.4594 62.7567C95.4594 62.7887 95.466 62.8259 95.4793 62.8659C95.5113 62.9392 95.5953 63.0097 95.7324 63.079C95.7551 63.0884 95.7871 63.1017 95.8284 63.1202L94.3633 63.1136V63.115ZM97.6929 57.1776L96.4663 60.2262H98.9662L97.6916 57.1776H97.6929Z" fill="#080D10"/>
<path d="M102.466 63.1412C102.52 63.1279 102.598 63.088 102.695 63.0214C102.792 62.9548 102.859 62.8936 102.893 62.8363C102.928 62.779 102.952 62.7297 102.965 62.6885C102.978 62.6472 102.985 62.5992 102.985 62.5446V56.0691C102.985 55.9919 102.972 55.9226 102.944 55.864C102.935 55.8454 102.912 55.8068 102.876 55.7468C102.84 55.6869 102.776 55.623 102.684 55.555C102.616 55.5045 102.568 55.4751 102.54 55.4658H106.211C107.243 55.4658 108.111 55.8014 108.82 56.4727C109.55 57.1626 109.915 58.0349 109.915 59.0911C109.915 60.2285 109.493 61.1888 108.648 61.9692C107.804 62.7511 106.759 63.1412 105.511 63.1412H102.464H102.466ZM104.048 55.9653V62.4288C104.276 62.502 104.482 62.5473 104.664 62.5659C104.847 62.5846 105.1 62.5939 105.425 62.5939C106.484 62.5939 107.287 62.3648 107.836 61.908C108.502 61.35 108.836 60.4283 108.836 59.1431C108.836 58.3014 108.564 57.5675 108.02 56.9402C107.459 56.2902 106.773 55.9653 105.96 55.9653H104.051H104.048Z" fill="#080D10"/>
<path d="M113.997 58.6425C114.099 58.6425 114.196 58.6078 114.293 58.5399C114.389 58.472 114.456 58.3854 114.491 58.2802V59.4721C114.464 59.363 114.406 59.2804 114.32 59.2257C114.278 59.1938 114.236 59.1725 114.193 59.1605C114.149 59.1486 114.093 59.1432 114.026 59.1432H112.142V62.546H114.579C114.716 62.546 114.83 62.5327 114.919 62.5048C115.009 62.4768 115.106 62.4222 115.217 62.3383C115.414 62.2052 115.551 62.02 115.628 61.7856L115.401 63.1414H110.663C110.698 63.1228 110.745 63.0962 110.8 63.0589C110.891 63.0002 110.957 62.947 110.998 62.9017C111.094 62.7924 111.142 62.662 111.142 62.5114V56.2744C111.142 56.0693 111.087 55.9041 110.978 55.7803C110.818 55.5925 110.681 55.486 110.568 55.458H115.101L115.094 56.4036C115.024 56.2798 114.922 56.1771 114.785 56.096C114.702 56.0507 114.631 56.0173 114.571 55.9974C114.512 55.9774 114.441 55.9667 114.358 55.9667H112.142V58.6437H113.996L113.997 58.6425Z" fill="#080D10"/>
<path d="M122.666 56.7244L119.996 63.3024L117.23 56.7311V62.6671C117.23 62.7178 117.239 62.7603 117.257 62.7976C117.261 62.807 117.292 62.8523 117.347 62.9349C117.401 63.0174 117.478 63.0814 117.58 63.1267H116.375C116.475 63.0814 116.553 63.02 116.608 62.9455C116.663 62.8696 116.692 62.8283 116.697 62.8189C116.719 62.7777 116.731 62.7351 116.731 62.6885V55.9173C116.731 55.8268 116.705 55.7388 116.653 55.6536C116.601 55.5697 116.529 55.5057 116.438 55.4658H117.864L120.248 61.4472L122.596 55.4658H124.016C123.971 55.4938 123.937 55.5164 123.915 55.5337C123.831 55.5937 123.776 55.6482 123.746 55.6975C123.717 55.7482 123.695 55.7961 123.685 55.8414C123.673 55.8867 123.668 55.9506 123.668 56.0331V62.6059C123.668 62.7245 123.713 62.8363 123.805 62.9415C123.837 62.9775 123.896 63.0188 123.983 63.0653C124.011 63.0786 124.05 63.0973 124.099 63.12H122.299C122.335 63.12 122.39 63.096 122.46 63.048C122.53 63.0001 122.578 62.9562 122.604 62.9175C122.629 62.8789 122.646 62.8323 122.655 62.7803C122.664 62.7284 122.667 62.6725 122.667 62.6125L122.666 56.7244Z" fill="#080D10"/>
<path d="M128.55 62.5021C128.55 62.5847 128.557 62.662 128.573 62.7352C128.59 62.8085 128.617 62.8697 128.656 62.9203C128.694 62.971 128.792 63.0295 128.947 63.0988C128.969 63.1081 129.003 63.1214 129.048 63.1401H126.96C126.998 63.1268 127.051 63.1014 127.121 63.0642C127.227 63.0096 127.302 62.9523 127.349 62.8924C127.396 62.8337 127.432 62.7765 127.457 62.7206C127.482 62.666 127.496 62.6034 127.496 62.5354V59.1951L125.593 56.1759C125.538 56.0893 125.49 56.0213 125.449 55.9708C125.394 55.9068 125.335 55.8469 125.275 55.7896C125.213 55.7324 125.136 55.6737 125.045 55.6151C124.914 55.5285 124.818 55.4753 124.757 55.458H126.977C126.932 55.4766 126.897 55.4899 126.874 55.4993C126.719 55.5765 126.628 55.6564 126.599 55.739C126.59 55.7616 126.586 55.7963 126.586 55.8415C126.586 55.9094 126.609 55.9854 126.656 56.0666C126.665 56.0799 126.693 56.1239 126.738 56.1958L128.323 58.7103L129.577 56.2997C129.673 56.1106 129.724 56.008 129.733 55.9893C129.784 55.8748 129.807 55.7936 129.802 55.7483C129.788 55.6751 129.752 55.6138 129.695 55.5659C129.637 55.5179 129.571 55.482 129.493 55.4593H130.999C130.907 55.482 130.826 55.5192 130.752 55.5698C130.698 55.6018 130.628 55.6604 130.547 55.7429C130.487 55.7989 130.435 55.8602 130.39 55.9295C130.362 55.9667 130.322 56.0374 130.266 56.1439L128.547 59.2178V62.5035L128.55 62.5021Z" fill="#080D10"/>
<path d="M80.5519 49.8922C80.4148 49.8922 80.2576 49.8747 80.0671 49.8401C79.8074 49.7882 79.0962 49.667 78.1266 48.6614C77.1037 47.588 75.9077 46.0457 74.3654 44.1039C76.1155 42.6814 76.6522 41.5041 76.6522 40.2215C76.6522 39.0602 75.9597 38.1758 75.4749 37.8469C74.5386 37.2062 73.3772 37.1023 72.2851 37.1023C71.747 37.1023 70.4312 37.1542 69.8425 37.1542C69.4789 37.1542 68.3854 37.1023 67.4678 37.1023C67.2081 37.1023 67.0869 37.1356 67.0869 37.2568C67.0869 37.378 67.1894 37.414 67.3812 37.414C67.6236 37.414 67.9193 37.4313 68.0565 37.4646C68.6292 37.5858 68.769 37.8628 68.8023 38.4528C68.8369 39.0068 68.8369 39.4917 68.8369 42.1274V45.1774C68.8369 46.7716 68.8369 48.1407 68.7504 48.8692C68.6811 49.3727 68.5945 49.7535 68.2483 49.8215C68.0925 49.8574 67.8847 49.8908 67.6236 49.8908C67.4159 49.8908 67.3466 49.9427 67.3466 50.0293C67.3466 50.1505 67.4678 50.2024 67.6929 50.2024C68.3868 50.2024 69.4789 50.1505 69.8078 50.1505C70.0675 50.1505 71.3488 50.2024 72.3543 50.2024C72.5794 50.2024 72.7006 50.1505 72.7006 50.0293C72.7006 49.9427 72.6313 49.8908 72.4928 49.8908C72.2851 49.8908 71.9042 49.8574 71.6445 49.8215C71.1237 49.7535 71.0198 49.3714 70.9679 48.8692C70.8813 48.1407 70.8813 46.7716 70.8813 45.1601V44.9176C70.8813 44.8137 70.9333 44.7791 71.0198 44.7791L72.5275 44.8137C72.6487 44.8137 72.7525 44.831 72.8392 44.9349C73.0643 45.1947 73.862 46.3734 74.5532 47.327C75.5242 48.6614 76.1835 49.4765 76.9279 49.8735C77.3781 50.1159 77.8123 50.2024 78.7818 50.2024H80.4281C80.6358 50.2024 80.757 50.1678 80.757 50.0293C80.757 49.9427 80.6891 49.8908 80.5492 49.8908L80.5519 49.8922ZM73.5863 43.6884C73.2733 43.9134 73.0482 43.9827 72.3557 43.9827C71.9229 43.9827 71.4034 43.9307 71.0385 43.8095C70.9173 43.7576 70.8827 43.6884 70.8827 43.4979V38.2291C70.8827 38.0905 70.9173 38.0213 71.0385 37.9866C71.2117 37.9347 71.5246 37.9174 71.9561 37.9174C72.979 37.9174 74.6079 38.6286 74.6079 41.0899C74.6079 42.511 74.1044 43.3075 73.5863 43.6884Z" fill="#080D10"/>
<path d="M113.375 42.7373C114.328 41.9742 115.143 41.1245 115.143 39.7033C115.143 38.7857 114.587 37.105 111.451 37.105C110.861 37.105 110.186 37.1569 109.336 37.1569C108.989 37.1569 107.898 37.105 106.98 37.105C106.72 37.105 106.599 37.1396 106.599 37.2608C106.599 37.382 106.703 37.4166 106.893 37.4166C107.136 37.4166 107.431 37.4339 107.569 37.4686C108.141 37.5897 108.281 37.8668 108.314 38.4554C108.35 39.0108 108.35 39.4956 108.35 42.13V45.18C108.35 46.7742 108.35 48.1446 108.262 48.8718C108.193 49.3752 108.107 49.7562 107.759 49.8255C107.603 49.8601 107.396 49.8934 107.136 49.8934C106.928 49.8934 106.859 49.9467 106.859 50.0319C106.859 50.1531 106.98 50.2064 107.205 50.2064C107.899 50.2064 108.991 50.1531 109.389 50.1531C109.91 50.1531 111.487 50.2569 111.902 50.2569C115.091 50.2569 116.53 48.3338 116.53 46.4798C116.53 44.4514 114.796 43.2208 113.377 42.736L113.375 42.7373ZM110.428 38.1438C110.428 37.9533 110.462 37.8841 110.584 37.8494C110.757 37.8135 110.913 37.8135 111.157 37.8135C112.647 37.8135 113.322 39.3398 113.322 40.4998C113.322 41.3482 113.062 41.9728 112.612 42.3364C112.318 42.5962 111.935 42.6655 111.364 42.6655C110.966 42.6655 110.705 42.6481 110.549 42.6135C110.48 42.5962 110.428 42.5616 110.428 42.423V38.1424V38.1438ZM112.299 49.4779C111.901 49.4779 111.503 49.4605 111.036 49.2701C110.48 49.045 110.428 48.7493 110.428 47.6066V43.4991C110.428 43.4126 110.462 43.3779 110.531 43.3779C110.792 43.3779 110.965 43.3779 111.276 43.3952C111.953 43.4299 112.351 43.5511 112.716 43.8108C114.034 44.7298 114.395 46.1855 114.395 47.2589C114.395 49.061 113.08 49.4779 112.299 49.4779Z" fill="#080D10"/>
<path d="M90.2469 36.9825C90.107 36.9825 89.6915 37.1544 88.582 37.1544H81.719C81.1463 37.1544 80.4884 37.121 79.9862 37.0691C79.5534 37.0332 79.3789 36.8613 79.2417 36.8613C79.1379 36.8613 79.0859 36.9652 79.034 37.1903C78.9994 37.3288 78.6704 38.9044 78.6704 39.1828C78.6704 39.3732 78.705 39.4598 78.8262 39.4598C78.9301 39.4598 78.9807 39.3905 79.0167 39.252C79.0513 39.1149 79.1379 38.9058 79.311 38.6461C79.5707 38.2652 79.9862 38.1772 80.9905 38.1426L83.5729 38.0734V45.1788C83.5729 46.773 83.5729 48.1421 83.4863 48.8706C83.4344 49.3728 83.3305 49.7537 82.9842 49.8229C82.8284 49.8576 82.6207 49.8922 82.3596 49.8922C82.1518 49.8922 82.0826 49.9441 82.0826 50.0307C82.0826 50.1519 82.2038 50.2038 82.4288 50.2038C83.1215 50.2038 84.2136 50.1519 84.6131 50.1519C85.0979 50.1519 86.19 50.2038 87.3341 50.2038C87.5245 50.2038 87.663 50.1519 87.663 50.0307C87.663 49.9441 87.5764 49.8922 87.386 49.8922C87.1263 49.8922 86.7454 49.8576 86.503 49.8229C85.9823 49.7537 85.8784 49.3714 85.8264 48.8879C85.7399 48.1421 85.7399 46.773 85.7399 45.1788V38.0734L87.9241 38.1253C89.4664 38.1599 89.9339 38.6461 89.9698 39.0962L89.9858 39.2866C90.0044 39.5463 90.039 39.6329 90.1763 39.6329C90.2815 39.6329 90.3148 39.529 90.3334 39.3559C90.3334 38.9044 90.384 37.7098 90.384 37.3448C90.384 37.0851 90.3681 36.9812 90.2469 36.9812V36.9825Z" fill="#080D10"/>
<path d="M65.0874 37.105C64.4121 37.105 63.32 37.1569 63.1122 37.1569C63.0949 37.1569 62.0028 37.105 61.1198 37.105C60.8774 37.105 60.7562 37.1396 60.7562 37.2608C60.7562 37.382 60.8601 37.4166 61.0505 37.4166C61.241 37.4166 61.5366 37.4339 61.6752 37.4686C62.2479 37.5897 62.3864 37.8668 62.421 38.4554C62.4543 39.0108 62.4543 39.4956 62.4543 42.13V44.2969C62.4543 46.0816 62.4037 47.6412 61.4501 48.5948C60.7562 49.2887 59.8199 49.5311 59.0581 49.5311C58.4681 49.5311 57.6716 49.4618 56.8911 48.8199C56.0414 48.1273 55.5393 47.0699 55.5393 44.5566V42.13C55.5393 39.4969 55.5393 39.0108 55.574 38.4554C55.6086 37.8494 55.7471 37.5551 56.2146 37.4686C56.4237 37.4339 56.5262 37.4166 56.718 37.4166C56.8911 37.4166 56.995 37.382 56.995 37.2608C56.995 37.1396 56.8752 37.105 56.6141 37.105C55.9908 37.105 54.8987 37.1569 54.4819 37.1569C53.9625 37.1569 52.8703 37.105 51.9527 37.105C51.693 37.105 51.5718 37.1396 51.5718 37.2608C51.5718 37.382 51.6757 37.4166 51.8661 37.4166C52.1085 37.4166 52.4042 37.4339 52.5413 37.4686C53.114 37.5897 53.2525 37.8668 53.2872 38.4554C53.3218 39.0108 53.3218 39.4956 53.3218 42.13V44.6605C53.3218 47.1724 53.9811 48.455 54.8654 49.2528C56.1294 50.3968 57.7942 50.4488 58.7118 50.4488C59.8386 50.4488 61.0865 50.2596 62.3171 49.2008C63.7729 47.9528 63.9633 45.9085 63.9633 43.984V42.13C63.9633 39.4969 63.9633 39.0108 63.998 38.4554C64.0326 37.8494 64.1711 37.5551 64.6399 37.4686C64.8477 37.4339 64.9516 37.4166 65.1433 37.4166C65.3511 37.4166 65.455 37.382 65.455 37.2608C65.455 37.1396 65.3338 37.105 65.0913 37.105H65.0874Z" fill="#080D10"/>
<path d="M61.4245 52.2855C61.3552 52.2855 61.2687 52.3361 61.1648 52.3707C59.9688 52.8396 58.6875 52.9781 57.7859 52.9781C56.6072 52.9781 54.3031 52.7876 50.6459 50.915L47.1631 49.1303C48.2538 48.4032 50.1784 46.4799 50.1784 43.4301C50.1784 39.3746 47.3016 36.8613 43.1582 36.8613C38.0812 36.8613 36.0527 40.7437 36.0527 43.5686C36.0527 46.6878 38.0279 50.4489 43.1076 50.4489C44.0252 50.4489 45.1346 50.2598 45.8285 49.9987L48.5495 51.593C51.4264 53.2564 53.2643 53.9503 55.8813 53.9503C58.4985 53.9503 60.3351 53.1526 61.3753 52.6505C61.4965 52.5985 61.5831 52.5466 61.5831 52.4427C61.5831 52.3562 61.5138 52.2882 61.4272 52.2882L61.4245 52.2855ZM43.7482 49.5818C40.9579 49.5818 38.4621 47.2938 38.4621 43.1703C38.4621 39.0469 40.4905 37.6937 42.76 37.6937C45.1533 37.6937 47.7518 39.7035 47.7518 43.8975C47.7518 48.9745 45.1346 49.5818 43.7496 49.5818H43.7482Z" fill="#080D10"/>
<path d="M104.599 37.105C103.925 37.105 102.832 37.1569 102.624 37.1569C102.607 37.1569 101.516 37.105 100.632 37.105C100.39 37.105 100.268 37.1396 100.268 37.2608C100.268 37.382 100.372 37.4166 100.563 37.4166C100.753 37.4166 101.049 37.4339 101.187 37.4686C101.76 37.5897 101.899 37.8668 101.933 38.4554C101.967 39.0108 101.967 39.4956 101.967 42.13V44.2969C101.967 46.0816 101.916 47.6412 100.962 48.5948C100.268 49.2887 99.3321 49.5311 98.5703 49.5311C97.9803 49.5311 97.1838 49.4618 96.4033 48.8199C95.5536 48.1273 95.0515 47.0699 95.0515 44.5566V42.13C95.0515 39.4969 95.0515 39.0108 95.0862 38.4554C95.1208 37.8494 95.2593 37.5551 95.7268 37.4686C95.9359 37.4339 96.0385 37.4166 96.2302 37.4166C96.4033 37.4166 96.5072 37.382 96.5072 37.2608C96.5072 37.1396 96.3874 37.105 96.1263 37.105C95.5031 37.105 94.411 37.1569 93.9941 37.1569C93.4747 37.1569 92.3826 37.105 91.4649 37.105C91.2052 37.105 91.084 37.1396 91.084 37.2608C91.084 37.382 91.1879 37.4166 91.3783 37.4166C91.6207 37.4166 91.9164 37.4339 92.0535 37.4686C92.6262 37.5897 92.7647 37.8668 92.7994 38.4554C92.834 39.0108 92.834 39.4956 92.834 42.13V44.6605C92.834 47.1724 93.4933 48.455 94.3776 49.2528C95.6416 50.3968 97.3064 50.4488 98.2241 50.4488C99.3508 50.4488 100.599 50.2596 101.829 49.2008C103.285 47.9528 103.476 45.9085 103.476 43.984V42.13C103.476 39.4969 103.476 39.0108 103.51 38.4554C103.545 37.8494 103.683 37.5551 104.152 37.4686C104.36 37.4339 104.463 37.4166 104.655 37.4166C104.864 37.4166 104.967 37.382 104.967 37.2608C104.967 37.1396 104.846 37.105 104.603 37.105H104.599Z" fill="#080D10"/>
<path d="M130.777 49.8918C130.57 49.8918 130.309 49.8745 130.049 49.8225C129.686 49.736 129.183 49.4935 128.523 47.9339C127.414 45.3009 124.641 38.23 124.226 37.2764C124.054 36.8782 123.949 36.7224 123.793 36.7224C123.619 36.7224 123.516 36.9115 123.307 37.4149L118.957 48.2989C118.611 49.1659 118.28 49.7546 117.483 49.8584C117.346 49.8758 117.102 49.8931 116.946 49.8931C116.807 49.8931 116.739 49.9277 116.739 50.0316C116.739 50.1701 116.842 50.2047 117.067 50.2047C117.967 50.2047 118.921 50.1528 119.113 50.1528C119.65 50.1528 120.396 50.2047 120.95 50.2047C121.138 50.2047 121.244 50.1701 121.244 50.0316C121.244 49.9277 121.19 49.8931 120.983 49.8931H120.724C120.187 49.8931 120.031 49.668 120.031 49.355C120.031 49.1486 120.117 48.7317 120.29 48.2989L121.227 45.8203C121.262 45.7177 121.296 45.6817 121.383 45.6817H123.26V43.419H122.658L122.022 44.1182V44.611H122.475V44.2993L122.81 43.933V44.8147H122.017H121.729C121.66 44.8147 121.642 44.7628 121.66 44.6935L123.254 40.4303C123.271 40.3597 123.306 40.2745 123.358 40.2745C123.41 40.2745 123.427 40.3597 123.444 40.4303L125.004 44.7108C125.021 44.7628 125.004 44.8147 124.917 44.8147H124.666H123.871V43.933L124.208 44.2993V44.611H124.66V44.1182L124.025 43.419H123.421V45.6817H125.247C125.333 45.6817 125.385 45.7177 125.418 45.8029L126.806 49.4775C126.893 49.6853 126.772 49.8411 126.65 49.8758C126.477 49.8931 126.408 49.9277 126.408 50.0316C126.408 50.1528 126.615 50.1528 126.928 50.1701C128.315 50.2047 129.58 50.2047 130.203 50.2047C130.827 50.2047 131 50.1701 131 50.0316C131 49.9104 130.915 49.8931 130.775 49.8931L130.777 49.8918Z" fill="#080D10"/>
</svg>
