<svg width="140" height="100" viewBox="0 0 140 100" fill="none" xmlns="http://www.w3.org/2000/svg">
<path d="M27.2282 40.5065V53.343L21.6308 58.793C21.9721 58.4607 22.2044 58.0372 22.2986 57.5763C22.3927 57.1154 22.3443 56.6376 22.1595 56.2035C21.9748 55.7693 21.662 55.3982 21.2607 55.1372C20.8594 54.8762 20.3876 54.7367 19.9049 54.7367C19.4222 54.7367 18.9504 54.8762 18.5491 55.1372C18.1478 55.3982 17.835 55.7693 17.6502 56.2035C17.4655 56.6376 17.4171 57.1154 17.5113 57.5763C17.6054 58.0372 17.8378 58.4607 18.179 58.793L12.5815 53.343V47.4497L22.1345 38.1485H24.784C25.2699 38.1467 25.7449 38.2886 26.1461 38.5554C26.4767 38.7695 26.7483 39.0594 26.937 39.3996C27.1257 39.7398 27.2257 40.1199 27.2282 40.5065Z" fill="#0037EB"/>
<path d="M27.2282 40.5065V53.343L21.6308 58.793C21.9721 58.4607 22.2044 58.0372 22.2986 57.5763C22.3927 57.1154 22.3443 56.6376 22.1595 56.2035C21.9748 55.7693 21.662 55.3982 21.2607 55.1372C20.8594 54.8762 20.3876 54.7367 19.9049 54.7367C19.4222 54.7367 18.9504 54.8762 18.5491 55.1372C18.1478 55.3982 17.835 55.7693 17.6502 56.2035C17.4655 56.6376 17.4171 57.1154 17.5113 57.5763C17.6054 58.0372 17.8378 58.4607 18.179 58.793L12.5815 53.343V47.4497L22.1345 38.1485H24.784C25.2699 38.1467 25.7449 38.2886 26.1461 38.5554C26.4767 38.7695 26.7483 39.0594 26.937 39.3996C27.1257 39.7398 27.2257 40.1199 27.2282 40.5065Z" fill="#080D10"/>
<path d="M22.1197 38.1343L12.563 47.4502V40.5068C12.563 40.195 12.6261 39.8861 12.7488 39.5981C12.8715 39.31 13.0514 39.0483 13.278 38.8279C13.5047 38.6075 13.7738 38.4329 14.0698 38.3138C14.3659 38.1948 14.6832 38.1338 15.0035 38.1343H22.1197Z" fill="#7850FA"/>
<path d="M22.1197 38.1343L12.563 47.4502V40.5068C12.563 40.195 12.6261 39.8861 12.7488 39.5981C12.8715 39.31 13.0514 39.0483 13.278 38.8279C13.5047 38.6075 13.7738 38.4329 14.0698 38.3138C14.3659 38.1948 14.6832 38.1338 15.0035 38.1343H22.1197Z" fill="#080D10"/>
<path d="M27.2275 53.343V59.5196C27.2275 60.1498 26.9705 60.7542 26.5128 61.1998C26.0551 61.6454 25.4344 61.8958 24.7871 61.8958H15.0027C14.6824 61.8958 14.3652 61.8343 14.0693 61.7149C13.7734 61.5954 13.5046 61.4203 13.2783 61.1997C13.052 60.9789 12.8726 60.717 12.7503 60.4287C12.6281 60.1404 12.5654 59.8315 12.5659 59.5196V53.343L18.1634 58.793C18.3898 59.0141 18.6588 59.1896 18.9549 59.3093C19.2511 59.429 19.5686 59.4906 19.8893 59.4906C20.2099 59.4906 20.5275 59.429 20.8237 59.3093C21.1198 59.1896 21.3888 59.0141 21.6151 58.793L27.2275 53.343Z" fill="#7850FA"/>
<path d="M27.2275 53.343V59.5196C27.2275 60.1498 26.9705 60.7542 26.5128 61.1998C26.0551 61.6454 25.4344 61.8958 24.7871 61.8958H15.0027C14.6824 61.8958 14.3652 61.8343 14.0693 61.7149C13.7734 61.5954 13.5046 61.4203 13.2783 61.1997C13.052 60.9789 12.8726 60.717 12.7503 60.4287C12.6281 60.1404 12.5654 59.8315 12.5659 59.5196V53.343L18.1634 58.793C18.3898 59.0141 18.6588 59.1896 18.9549 59.3093C19.2511 59.429 19.5686 59.4906 19.8893 59.4906C20.2099 59.4906 20.5275 59.429 20.8237 59.3093C21.1198 59.1896 21.3888 59.0141 21.6151 58.793L27.2275 53.343Z" fill="#080D10"/>
<path d="M35.4383 41.9997C35.8951 42.4459 36.1517 43.0501 36.1517 43.6801C36.1517 44.3101 35.8951 44.9145 35.4383 45.3605L27.2286 53.3539V40.5064C27.2286 40.1946 27.1655 39.8857 27.0428 39.5976C26.92 39.3096 26.7402 39.0478 26.5136 38.8275C26.2869 38.6071 26.0178 38.4324 25.7218 38.3134C25.4257 38.1944 25.1084 38.1334 24.7881 38.1339H22.1387L25.0829 35.2635C25.3095 35.0428 25.5786 34.8678 25.8747 34.7483C26.1709 34.6289 26.4882 34.5674 26.8088 34.5674C27.1293 34.5674 27.4467 34.6289 27.7429 34.7483C28.039 34.8678 28.3081 35.0428 28.5347 35.2635L35.4383 41.9997Z" fill="#080D10" fill-opacity="0.8"/>
<path d="M12.5625 47.45V53.3432L11.2564 52.0715C11.0292 51.8509 10.8489 51.5886 10.7259 51.3C10.6029 51.0113 10.5396 50.7018 10.5396 50.3894C10.5396 50.0768 10.6029 49.7674 10.7259 49.4786C10.8489 49.19 11.0292 48.9278 11.2564 48.7071L12.5625 47.45Z" fill="#080D10" fill-opacity="0.8"/>
<path d="M45.3865 56.7373C45.9342 56.7556 46.4796 56.658 46.9847 56.451C47.4899 56.2439 47.9427 55.9326 48.3121 55.5383C49.0784 54.6897 49.4794 53.5863 49.4316 52.4572C49.4794 51.3276 49.0692 50.225 48.2897 49.387C47.9081 49.0125 47.4541 48.7152 46.9539 48.5122C46.4537 48.3094 45.9172 48.2049 45.3753 48.2049C44.8334 48.2049 44.2969 48.3094 43.7967 48.5122C43.2965 48.7152 42.8424 49.0125 42.4608 49.387C41.6908 50.2292 41.2891 51.3309 41.3414 52.4572C41.2937 53.5863 41.6946 54.6897 42.4608 55.5383C42.8305 55.9332 43.284 56.245 43.7899 56.452C44.2957 56.6591 44.8418 56.7564 45.3902 56.7373H45.3865ZM44.614 59.3968C43.4699 59.4175 42.3432 59.121 41.3653 58.5421C40.3875 57.9631 39.5988 57.1255 39.0912 56.1269C38.5175 54.9987 38.232 53.7522 38.2591 52.4936C38.2467 51.3028 38.5283 50.1265 39.08 49.0637C39.6086 48.0318 40.4081 47.1544 41.3974 46.5204C42.3916 45.8768 43.562 45.54 44.7559 45.5539C45.6823 45.5396 46.5991 45.7388 47.4314 46.1353C48.197 46.503 48.8429 47.0702 49.2972 47.7739L49.3495 45.9572H52.29V58.9827H49.357L49.3047 57.2024C48.3345 58.6557 46.771 59.3824 44.614 59.3824V59.3968Z" fill="#080D10"/>
<path d="M55.3982 45.9574H58.447V58.9828H55.3982V45.9574ZM56.8909 42.9381C56.6389 42.9436 56.3884 42.8993 56.1546 42.8078C55.9207 42.7165 55.7082 42.58 55.5301 42.4064C55.3518 42.2329 55.2116 42.0261 55.1177 41.7984C55.0239 41.5706 54.9784 41.3268 54.9841 41.0815C54.9751 40.8376 55.0187 40.5947 55.1118 40.3682C55.205 40.1417 55.3458 39.9366 55.5251 39.7662C55.8974 39.434 56.3841 39.2498 56.889 39.2498C57.394 39.2498 57.8807 39.434 58.253 39.7662C58.4335 39.9359 58.5753 40.1407 58.6692 40.3673C58.763 40.5939 58.8069 40.8373 58.7977 41.0815C58.8057 41.3272 58.7614 41.5717 58.6676 41.7999C58.5739 42.0282 58.4327 42.2351 58.253 42.4076C58.0745 42.581 57.8618 42.7175 57.6277 42.8086C57.3936 42.8998 57.1429 42.9438 56.8909 42.9381Z" fill="#080D10"/>
<path d="M77.232 56.7372C77.7765 56.7531 78.3181 56.6558 78.8207 56.4515C79.3234 56.2473 79.7753 55.9408 80.1465 55.5527C80.9162 54.7104 81.3178 53.6089 81.266 52.4826C81.3135 51.3525 80.9126 50.2479 80.1465 49.3979C79.7645 49.0194 79.3089 48.7188 78.8062 48.5136C78.3035 48.3084 77.764 48.2028 77.219 48.2028C76.674 48.2028 76.1344 48.3084 75.6318 48.5136C75.1292 48.7188 74.6735 49.0194 74.2916 49.3979C73.525 50.2478 73.1242 51.3524 73.1721 52.4826C73.1237 53.6116 73.5323 54.714 74.3102 55.5527C74.6819 55.9422 75.1351 56.2493 75.6391 56.4537C76.1432 56.658 76.6864 56.7547 77.232 56.7372ZM70.3136 45.9571H73.1757L73.2019 47.89C74.1721 46.3229 75.7705 45.5405 77.9971 45.5429C79.1416 45.5206 80.269 45.8163 81.2472 46.3954C82.2253 46.9746 83.0137 47.8132 83.5199 48.8129C84.0952 49.9407 84.382 51.1873 84.3558 52.4462C84.3659 53.6368 84.0845 54.8126 83.5348 55.8761C83.0035 56.9073 82.2031 57.7845 81.2137 58.4194C80.2195 59.0631 79.0491 59.3999 77.8553 59.3859C76.9416 59.4007 76.0363 59.2156 75.2058 58.8445C74.4448 58.5007 73.7983 57.9555 73.34 57.2713V65.3046H70.2949L70.3136 45.9571Z" fill="#080D10"/>
<path d="M92.5319 56.7371C93.0803 56.756 93.6263 56.6585 94.1322 56.4514C94.638 56.2444 95.0915 55.9328 95.4613 55.5381C96.2276 54.6895 96.6285 53.586 96.5808 52.457C96.6285 51.3274 96.2184 50.2248 95.4389 49.3869C95.0573 49.0122 94.6033 48.7149 94.1031 48.512C93.6029 48.3091 93.0664 48.2046 92.5245 48.2046C91.9826 48.2046 91.4461 48.3091 90.9459 48.512C90.4457 48.7149 89.9916 49.0122 89.6101 49.3869C88.8333 50.2261 88.4248 51.3282 88.472 52.457C88.4206 53.5865 88.8221 54.6912 89.5914 55.5381C89.9605 55.9327 90.4134 56.2443 90.9186 56.4513C91.4238 56.6584 91.9692 56.7559 92.5171 56.7371H92.5319ZM92.5319 59.3967C91.2841 59.4099 90.0535 59.1123 88.957 58.532C87.8812 57.956 86.9881 57.104 86.3747 56.0686C85.7508 54.9961 85.4173 53.7869 85.4056 52.5545C85.3939 51.3221 85.7042 50.107 86.3075 49.0235C86.9085 47.9764 87.7858 47.1047 88.8489 46.4983C89.9634 45.8573 91.2375 45.5267 92.5319 45.5428C93.7812 45.5278 95.0135 45.8256 96.1106 46.4075C97.1844 46.9795 98.0774 47.8263 98.6929 48.8564C99.3151 49.9313 99.6476 51.1421 99.6593 52.376C99.671 53.6098 99.3617 54.8263 98.76 55.9123C98.1621 56.9675 97.2829 57.8462 96.2151 58.4556C95.0994 59.0925 93.8251 59.4181 92.5319 59.3967Z" fill="#080D10"/>
<path d="M112.974 48.457H110.164V45.9572H112.974V42.3167H116.023V45.9572H119.441V48.457H116.023V58.9827H112.974V48.457Z" fill="#080D10"/>
<path d="M68.1835 45.7534H68.0006C67.1914 45.7344 66.3939 45.9452 65.7057 46.3602C65.0272 46.8002 64.4944 47.4224 64.172 48.1513L64.1459 45.9714H61.2314V58.9787H64.2764V52.8456C64.2764 51.4831 64.5787 50.4258 65.1832 49.6592C65.4747 49.2835 65.8556 48.9824 66.293 48.7818C66.7306 48.5812 67.2115 48.487 67.6946 48.5075C67.8644 48.5072 68.0339 48.5182 68.2022 48.5401L68.1835 45.7534Z" fill="#080D10"/>
<path d="M108.287 45.7531H108.101C107.287 45.7322 106.485 45.9504 105.799 46.3793C105.113 46.8083 104.576 47.4282 104.257 48.1583L104.228 45.9783H101.317V58.9784H104.362V52.8453C104.362 51.4828 104.664 50.4255 105.265 49.6589C105.557 49.2827 105.938 48.9813 106.377 48.7807C106.814 48.58 107.296 48.4861 107.78 48.5072C107.95 48.5071 108.119 48.518 108.287 48.5398V45.7531Z" fill="#080D10"/>
<path d="M128.293 45.7534H128.11C127.301 45.7344 126.503 45.9452 125.815 46.3602C125.125 46.7959 124.582 47.4186 124.251 48.1513L124.225 45.9714H121.311V58.9787H124.356V52.8456C124.356 51.4831 124.658 50.4258 125.263 49.6592C125.554 49.2835 125.935 48.9824 126.372 48.7818C126.81 48.5812 127.291 48.487 127.774 48.5075C127.944 48.5072 128.113 48.5182 128.281 48.5401L128.293 45.7534Z" fill="#080D10"/>
<path d="M45.3865 56.7373C45.9342 56.7556 46.4796 56.658 46.9847 56.451C47.4899 56.2439 47.9427 55.9326 48.3121 55.5383C49.0784 54.6897 49.4794 53.5863 49.4316 52.4572C49.4794 51.3276 49.0692 50.225 48.2897 49.387C47.9081 49.0125 47.4541 48.7152 46.9539 48.5122C46.4537 48.3094 45.9172 48.2049 45.3753 48.2049C44.8334 48.2049 44.2969 48.3094 43.7967 48.5122C43.2965 48.7152 42.8424 49.0125 42.4608 49.387C41.6908 50.2292 41.2891 51.3309 41.3414 52.4572C41.2937 53.5863 41.6946 54.6897 42.4608 55.5383C42.8305 55.9332 43.284 56.245 43.7899 56.452C44.2957 56.6591 44.8418 56.7564 45.3902 56.7373H45.3865ZM44.614 59.3968C43.4699 59.4175 42.3432 59.121 41.3653 58.5421C40.3875 57.9631 39.5988 57.1255 39.0912 56.1269C38.5175 54.9987 38.232 53.7522 38.2591 52.4936C38.2467 51.3028 38.5283 50.1265 39.08 49.0637C39.6086 48.0318 40.4081 47.1544 41.3974 46.5204C42.3916 45.8768 43.562 45.54 44.7559 45.5539C45.6823 45.5396 46.5991 45.7388 47.4314 46.1353C48.197 46.503 48.8429 47.0702 49.2972 47.7739L49.3495 45.9572H52.29V58.9827H49.357L49.3047 57.2024C48.3345 58.6557 46.771 59.3824 44.614 59.3824V59.3968Z" fill="#080D10"/>
</svg>
