<svg width="140" height="100" viewBox="0 0 140 100" fill="none" xmlns="http://www.w3.org/2000/svg">
<mask id="mask0_16532_2784" style="mask-type:luminance" maskUnits="userSpaceOnUse" x="8" y="38" width="124" height="24">
<path d="M131.333 38H8V62H131.333V38Z" fill="white"/>
</mask>
<g mask="url(#mask0_16532_2784)">
<mask id="mask1_16532_2784" style="mask-type:luminance" maskUnits="userSpaceOnUse" x="8" y="38" width="124" height="24">
<path d="M131.333 38H8V62H131.333V38Z" fill="white"/>
</mask>
<g mask="url(#mask1_16532_2784)">
<mask id="mask2_16532_2784" style="mask-type:luminance" maskUnits="userSpaceOnUse" x="8" y="38" width="24" height="24">
<path d="M31.25 38H8V62H31.25V38Z" fill="white"/>
</mask>
<g mask="url(#mask2_16532_2784)">
<path d="M19.2602 47.3777L17.0843 49.6238C16.884 49.8306 16.884 50.1658 17.0843 50.3725L19.2602 52.6186C19.4605 52.8254 19.7853 52.8254 19.9855 52.6186L22.1614 50.3725C22.3617 50.1658 22.3617 49.8306 22.1614 49.6238L19.9855 47.3777C19.7853 47.171 19.4605 47.171 19.2602 47.3777Z" fill="#0082FC"/>
<path d="M19.2602 47.3777L17.0843 49.6238C16.884 49.8306 16.884 50.1658 17.0843 50.3725L19.2602 52.6186C19.4605 52.8254 19.7853 52.8254 19.9855 52.6186L22.1614 50.3725C22.3617 50.1658 22.3617 49.8306 22.1614 49.6238L19.9855 47.3777C19.7853 47.171 19.4605 47.171 19.2602 47.3777Z" fill="#080D10"/>
<path d="M26.9971 55.366L24.8212 57.6121C24.6208 57.8189 24.6208 58.154 24.8212 58.3608L26.9971 60.6069C27.1974 60.8137 27.5219 60.8137 27.7224 60.6069L29.8982 58.3608C30.0985 58.154 30.0985 57.8189 29.8982 57.6121L27.7224 55.366C27.5219 55.1592 27.1974 55.1592 26.9971 55.366Z" fill="#0082FC"/>
<path d="M26.9971 55.366L24.8212 57.6121C24.6208 57.8189 24.6208 58.154 24.8212 58.3608L26.9971 60.6069C27.1974 60.8137 27.5219 60.8137 27.7224 60.6069L29.8982 58.3608C30.0985 58.154 30.0985 57.8189 29.8982 57.6121L27.7224 55.366C27.5219 55.1592 27.1974 55.1592 26.9971 55.366Z" fill="#080D10"/>
<path d="M11.5254 39.3933L9.34944 41.6394C9.14915 41.8462 9.14915 42.1814 9.34944 42.3882L11.5254 44.6343C11.7256 44.841 12.0504 44.841 12.2507 44.6343L14.4266 42.3882C14.6269 42.1814 14.6269 41.8462 14.4266 41.6394L12.2507 39.3933C12.0504 39.1866 11.7256 39.1866 11.5254 39.3933Z" fill="#0082FC"/>
<path d="M11.5254 39.3933L9.34944 41.6394C9.14915 41.8462 9.14915 42.1814 9.34944 42.3882L11.5254 44.6343C11.7256 44.841 12.0504 44.841 12.2507 44.6343L14.4266 42.3882C14.6269 42.1814 14.6269 41.8462 14.4266 41.6394L12.2507 39.3933C12.0504 39.1866 11.7256 39.1866 11.5254 39.3933Z" fill="#080D10"/>
<path d="M26.9971 39.3933L24.8212 41.6395C24.6208 41.8462 24.6208 42.1814 24.8212 42.3881L26.9971 44.6343C27.1974 44.841 27.5219 44.841 27.7224 44.6343L29.8982 42.3881C30.0985 42.1814 30.0985 41.8462 29.8982 41.6395L27.7224 39.3933C27.5219 39.1866 27.1974 39.1866 26.9971 39.3933Z" fill="#0082FC"/>
<path d="M26.9971 39.3933L24.8212 41.6395C24.6208 41.8462 24.6208 42.1814 24.8212 42.3881L26.9971 44.6343C27.1974 44.841 27.5219 44.841 27.7224 44.6343L29.8982 42.3881C30.0985 42.1814 30.0985 41.8462 29.8982 41.6395L27.7224 39.3933C27.5219 39.1866 27.1974 39.1866 26.9971 39.3933Z" fill="#080D10"/>
<path d="M11.5254 55.366L9.34944 57.6121C9.14915 57.8189 9.14915 58.1541 9.34944 58.3607L11.5254 60.607C11.7256 60.8136 12.0504 60.8136 12.2507 60.607L14.4266 58.3607C14.6269 58.1541 14.6269 57.8189 14.4266 57.6121L12.2507 55.366C12.0504 55.1593 11.7256 55.1593 11.5254 55.366Z" fill="#0082FC"/>
<path d="M11.5254 55.366L9.34944 57.6121C9.14915 57.8189 9.14915 58.1541 9.34944 58.3607L11.5254 60.607C11.7256 60.8136 12.0504 60.8136 12.2507 60.607L14.4266 58.3607C14.6269 58.1541 14.6269 57.8189 14.4266 57.6121L12.2507 55.366C12.0504 55.1593 11.7256 55.1593 11.5254 55.366Z" fill="#080D10"/>
<path d="M21.3168 55.2401L19.8662 56.7376C19.7326 56.8755 19.5161 56.8755 19.3826 56.7376L17.9319 55.2401C17.7984 55.1023 17.5818 55.1023 17.4483 55.2401L15.9976 56.7376C15.8641 56.8755 15.8641 57.099 15.9976 57.2368L17.6901 58.9839L19.3826 60.7309C19.5161 60.8687 19.7326 60.8687 19.8662 60.7309L21.5586 58.9839L23.2511 57.2368C23.3846 57.099 23.3846 56.8755 23.2511 56.7376L21.8004 55.2401C21.6669 55.1023 21.4504 55.1023 21.3168 55.2401Z" fill="#0082FC"/>
<path d="M21.3168 55.2401L19.8662 56.7376C19.7326 56.8755 19.5161 56.8755 19.3826 56.7376L17.9319 55.2401C17.7984 55.1023 17.5818 55.1023 17.4483 55.2401L15.9976 56.7376C15.8641 56.8755 15.8641 57.099 15.9976 57.2368L17.6901 58.9839L19.3826 60.7309C19.5161 60.8687 19.7326 60.8687 19.8662 60.7309L21.5586 58.9839L23.2511 57.2368C23.3846 57.099 23.3846 56.8755 23.2511 56.7376L21.8004 55.2401C21.6669 55.1023 21.4504 55.1023 21.3168 55.2401Z" fill="#080D10"/>
<path d="M24.7012 48.2524L26.1519 49.7498C26.2853 49.8877 26.2853 50.1112 26.1519 50.249L24.7012 51.7465C24.5677 51.8844 24.5677 52.1079 24.7012 52.2457L26.1519 53.7432C26.2853 53.881 26.5018 53.881 26.6355 53.7432L28.3279 51.9961L30.0204 50.249C30.1539 50.1112 30.1539 49.8877 30.0204 49.7498L28.3279 48.0028L26.6355 46.2557C26.5018 46.1179 26.2853 46.1179 26.1519 46.2557L24.7012 47.7532C24.5677 47.891 24.5677 48.1145 24.7012 48.2524Z" fill="#0082FC"/>
<path d="M24.7012 48.2524L26.1519 49.7498C26.2853 49.8877 26.2853 50.1112 26.1519 50.249L24.7012 51.7465C24.5677 51.8844 24.5677 52.1079 24.7012 52.2457L26.1519 53.7432C26.2853 53.881 26.5018 53.881 26.6355 53.7432L28.3279 51.9961L30.0204 50.249C30.1539 50.1112 30.1539 49.8877 30.0204 49.7498L28.3279 48.0028L26.6355 46.2557C26.5018 46.1179 26.2853 46.1179 26.1519 46.2557L24.7012 47.7532C24.5677 47.891 24.5677 48.1145 24.7012 48.2524Z" fill="#080D10"/>
<path d="M17.9319 44.7582L19.3826 43.2608C19.5161 43.1229 19.7326 43.1229 19.8662 43.2608L21.3168 44.7582C21.4504 44.8961 21.6669 44.8961 21.8004 44.7582L23.2511 43.2608C23.3846 43.1229 23.3846 42.8994 23.2511 42.7616L21.5586 41.0145L19.8662 39.2674C19.7326 39.1296 19.5161 39.1296 19.3826 39.2674L17.6901 41.0145L15.9976 42.7616C15.8641 42.8994 15.8641 43.1229 15.9976 43.2608L17.4483 44.7582C17.5818 44.8961 17.7984 44.8961 17.9319 44.7582Z" fill="#0082FC"/>
<path d="M17.9319 44.7582L19.3826 43.2608C19.5161 43.1229 19.7326 43.1229 19.8662 43.2608L21.3168 44.7582C21.4504 44.8961 21.6669 44.8961 21.8004 44.7582L23.2511 43.2608C23.3846 43.1229 23.3846 42.8994 23.2511 42.7616L21.5586 41.0145L19.8662 39.2674C19.7326 39.1296 19.5161 39.1296 19.3826 39.2674L17.6901 41.0145L15.9976 42.7616C15.8641 42.8994 15.8641 43.1229 15.9976 43.2608L17.4483 44.7582C17.5818 44.8961 17.7984 44.8961 17.9319 44.7582Z" fill="#080D10"/>
<path d="M14.5468 51.7465L13.0961 50.249C12.9626 50.1112 12.9626 49.8877 13.0961 49.7498L14.5468 48.2524C14.6803 48.1145 14.6803 47.891 14.5468 47.7532L13.0961 46.2557C12.9626 46.1179 12.7461 46.1179 12.6125 46.2557L10.9201 48.0028L9.22759 49.7498C9.09406 49.8877 9.09406 50.1112 9.22759 50.249L10.9201 51.9961L12.6125 53.7432C12.7461 53.881 12.9626 53.881 13.0961 53.7432L14.5468 52.2457C14.6803 52.1079 14.6803 51.8844 14.5468 51.7465Z" fill="#0082FC"/>
<path d="M14.5468 51.7465L13.0961 50.249C12.9626 50.1112 12.9626 49.8877 13.0961 49.7498L14.5468 48.2524C14.6803 48.1145 14.6803 47.891 14.5468 47.7532L13.0961 46.2557C12.9626 46.1179 12.7461 46.1179 12.6125 46.2557L10.9201 48.0028L9.22759 49.7498C9.09406 49.8877 9.09406 50.1112 9.22759 50.249L10.9201 51.9961L12.6125 53.7432C12.7461 53.881 12.9626 53.881 13.0961 53.7432L14.5468 52.2457C14.6803 52.1079 14.6803 51.8844 14.5468 51.7465Z" fill="#080D10"/>
</g>
<path d="M36.5268 58.0634C36.3718 58.0634 36.2399 58.0074 36.1315 57.8954C36.0231 57.7835 35.9688 57.6474 35.9688 57.4874V41.8394C35.9688 41.6794 36.0231 41.5434 36.1315 41.4314C36.2399 41.3194 36.3718 41.2634 36.5268 41.2634H38.7123C38.8828 41.2634 39.0145 41.3194 39.1075 41.4314C39.2159 41.5434 39.2702 41.6794 39.2702 41.8394V57.4874C39.2702 57.6474 39.2159 57.7835 39.1075 57.8954C39.0145 58.0074 38.8828 58.0634 38.7123 58.0634H36.5268ZM46.2878 58.3034C45.3578 58.3034 44.5594 58.1915 43.893 57.9674C43.242 57.7434 42.7073 57.4634 42.2888 57.1274C41.8703 56.7914 41.5602 56.4554 41.3588 56.1194C41.1573 55.7834 41.0487 55.5034 41.0333 55.2794C41.0178 55.1034 41.0643 54.9674 41.1728 54.8714C41.2968 54.7594 41.4285 54.7034 41.568 54.7034H43.4048C43.4667 54.7034 43.521 54.7114 43.5675 54.7274C43.614 54.7434 43.6759 54.7914 43.7535 54.8714C43.9549 55.0474 44.1642 55.2314 44.3813 55.4234C44.6138 55.6154 44.8849 55.7834 45.195 55.9274C45.505 56.0554 45.8925 56.1194 46.3575 56.1194C46.962 56.1194 47.4657 55.9994 47.8688 55.7594C48.2873 55.5034 48.4965 55.1434 48.4965 54.6794C48.4965 54.3434 48.4035 54.0714 48.2175 53.8634C48.0469 53.6554 47.7214 53.4714 47.241 53.3114C46.7605 53.1354 46.0785 52.9514 45.195 52.7594C44.3269 52.5514 43.6062 52.2874 43.0328 51.9674C42.4593 51.6474 42.033 51.2474 41.754 50.7674C41.475 50.2874 41.3355 49.7274 41.3355 49.0874C41.3355 48.4634 41.5137 47.8714 41.8703 47.3114C42.2423 46.7354 42.7848 46.2634 43.4978 45.8954C44.2263 45.5274 45.1253 45.3434 46.1948 45.3434C47.0318 45.3434 47.7603 45.4554 48.3803 45.6794C49.0002 45.8874 49.5117 46.1514 49.9148 46.4714C50.3333 46.7914 50.6509 47.1194 50.868 47.4554C51.085 47.7754 51.2013 48.0554 51.2168 48.2954C51.2322 48.4714 51.1857 48.6154 51.0773 48.7274C50.9688 48.8234 50.8448 48.8714 50.7053 48.8714H48.9848C48.9072 48.8714 48.8374 48.8554 48.7755 48.8234C48.7135 48.7914 48.6514 48.7514 48.5895 48.7034C48.4189 48.5434 48.2329 48.3754 48.0315 48.1994C47.83 48.0074 47.5819 47.8474 47.2875 47.7194C47.0085 47.5914 46.6365 47.5274 46.1715 47.5274C45.5824 47.5274 45.133 47.6634 44.823 47.9354C44.5129 48.1914 44.358 48.5194 44.358 48.9194C44.358 49.1914 44.4278 49.4314 44.5673 49.6394C44.7222 49.8314 45.0244 50.0154 45.474 50.1914C45.9235 50.3674 46.6054 50.5514 47.52 50.7434C48.5584 50.9354 49.38 51.2234 49.9845 51.6074C50.6044 51.9754 51.0385 52.4074 51.2865 52.9034C51.55 53.3834 51.6818 53.9194 51.6818 54.5114C51.6818 55.2314 51.4725 55.8794 51.054 56.4554C50.6509 57.0314 50.0464 57.4874 49.2405 57.8234C48.45 58.1435 47.4657 58.3034 46.2878 58.3034ZM58.4993 58.3034C57.2592 58.3034 56.2129 58.0794 55.3605 57.6314C54.5235 57.1835 53.8804 56.5514 53.4308 55.7354C52.9969 54.9194 52.7487 53.9674 52.6868 52.8794C52.6714 52.5914 52.6635 52.2394 52.6635 51.8234C52.6635 51.4074 52.6714 51.0554 52.6868 50.7674C52.7487 49.6634 53.0044 48.7114 53.454 47.9114C53.919 47.0954 54.57 46.4634 55.407 46.0154C56.2594 45.5674 57.2903 45.3434 58.4993 45.3434C59.7083 45.3434 60.7313 45.5674 61.5683 46.0154C62.4207 46.4634 63.0717 47.0954 63.5213 47.9114C63.9863 48.7114 64.2499 49.6634 64.3118 50.7674C64.3272 51.0554 64.335 51.4074 64.335 51.8234C64.335 52.2394 64.3272 52.5914 64.3118 52.8794C64.2499 53.9674 63.9941 54.9194 63.5445 55.7354C63.1106 56.5514 62.4672 57.1835 61.6148 57.6314C60.7778 58.0794 59.7394 58.3034 58.4993 58.3034ZM58.4993 55.9274C59.3209 55.9274 59.9562 55.6634 60.4058 55.1354C60.8554 54.5914 61.1033 53.7994 61.1498 52.7594C61.1652 52.5194 61.173 52.2074 61.173 51.8234C61.173 51.4394 61.1652 51.1274 61.1498 50.8874C61.1033 49.8474 60.8554 49.0634 60.4058 48.5354C59.9562 47.9914 59.3209 47.7194 58.4993 47.7194C57.6777 47.7194 57.0424 47.9914 56.5928 48.5354C56.1432 49.0634 55.8953 49.8474 55.8488 50.8874C55.8334 51.1274 55.8255 51.4394 55.8255 51.8234C55.8255 52.2074 55.8334 52.5194 55.8488 52.7594C55.8953 53.7994 56.1432 54.5914 56.5928 55.1354C57.0424 55.6634 57.6777 55.9274 58.4993 55.9274ZM66.539 58.0634C66.3841 58.0634 66.2523 58.0074 66.1438 57.8954C66.0354 57.7835 65.981 57.6474 65.981 57.4874V46.1834C65.981 46.0074 66.0354 45.8634 66.1438 45.7514C66.2523 45.6394 66.3841 45.5834 66.539 45.5834H68.4223C68.5773 45.5834 68.7091 45.6394 68.8175 45.7514C68.9416 45.8634 69.0035 46.0074 69.0035 46.1834V47.1674C69.3601 46.6554 69.8173 46.2634 70.3753 45.9914C70.9488 45.7194 71.6075 45.5834 72.3515 45.5834H73.3048C73.4754 45.5834 73.607 45.6394 73.7 45.7514C73.8085 45.8634 73.8628 45.9994 73.8628 46.1594V47.8874C73.8628 48.0474 73.8085 48.1834 73.7 48.2954C73.607 48.4074 73.4754 48.4634 73.3048 48.4634H71.4913C70.7473 48.4634 70.166 48.6794 69.7475 49.1114C69.3445 49.5274 69.143 50.1194 69.143 50.8874V57.4874C69.143 57.6474 69.0888 57.7835 68.9803 57.8954C68.8719 58.0074 68.7324 58.0634 68.5618 58.0634H66.539ZM78.0752 58.3034C77.2693 58.3034 76.5407 58.1435 75.8897 57.8234C75.2387 57.4874 74.7194 57.0474 74.3319 56.5034C73.9599 55.9434 73.7739 55.3194 73.7739 54.6314C73.7739 53.5114 74.2157 52.6234 75.0992 51.9674C75.9827 51.2954 77.1374 50.8474 78.5634 50.6234L81.7487 50.1434V49.6394C81.7487 48.9674 81.5859 48.4474 81.2604 48.0794C80.9349 47.7114 80.3769 47.5274 79.5864 47.5274C79.0284 47.5274 78.5713 47.6474 78.2147 47.8874C77.8738 48.1114 77.618 48.4154 77.4474 48.7994C77.3234 49.0074 77.1452 49.1114 76.9127 49.1114H75.0759C74.9054 49.1114 74.7737 49.0634 74.6807 48.9674C74.6032 48.8714 74.5644 48.7434 74.5644 48.5834C74.5799 48.3274 74.6807 48.0154 74.8667 47.6474C75.0682 47.2794 75.3628 46.9274 75.7502 46.5914C76.1533 46.2394 76.6724 45.9434 77.3079 45.7034C77.9435 45.4634 78.7108 45.3434 79.6097 45.3434C80.5862 45.3434 81.4078 45.4714 82.0742 45.7274C82.7563 45.9674 83.2987 46.2954 83.7017 46.7114C84.1048 47.1274 84.3992 47.6154 84.5852 48.1754C84.7712 48.7354 84.8642 49.3274 84.8642 49.9514V57.4874C84.8642 57.6474 84.8099 57.7835 84.7014 57.8954C84.593 58.0074 84.4612 58.0634 84.3062 58.0634H82.4229C82.2524 58.0634 82.1129 58.0074 82.0044 57.8954C81.9114 57.7835 81.8649 57.6474 81.8649 57.4874V56.5514C81.6635 56.8394 81.3922 57.1194 81.0512 57.3914C80.7103 57.6635 80.2918 57.8874 79.7957 58.0634C79.3153 58.2234 78.7417 58.3034 78.0752 58.3034ZM78.8657 56.0234C79.4083 56.0234 79.8965 55.9034 80.3304 55.6634C80.78 55.4234 81.1288 55.0554 81.3767 54.5594C81.6403 54.0474 81.7719 53.4074 81.7719 52.6394V52.1354L79.4469 52.5194C78.5324 52.6634 77.8505 52.8954 77.4009 53.2154C76.9514 53.5354 76.7267 53.9274 76.7267 54.3914C76.7267 54.7434 76.8275 55.0474 77.0289 55.3034C77.246 55.5434 77.5172 55.7274 77.8427 55.8554C78.1682 55.9674 78.5092 56.0234 78.8657 56.0234ZM93.52 58.3034C92.0939 58.3034 90.8772 58.0475 89.8697 57.5354C88.8777 57.0234 88.1027 56.2874 87.5447 55.3274C87.0021 54.3514 86.7077 53.1914 86.6612 51.8474C86.6457 51.1594 86.638 50.4234 86.638 49.6394C86.638 48.8394 86.6457 48.0874 86.6612 47.3834C86.7077 46.0554 87.0021 44.9194 87.5447 43.9754C88.1027 43.0314 88.8854 42.3034 89.893 41.7914C90.916 41.2794 92.125 41.0234 93.52 41.0234C94.6514 41.0234 95.6436 41.1834 96.496 41.5034C97.3484 41.8074 98.0537 42.2074 98.6117 42.7034C99.1851 43.1834 99.6115 43.7034 99.8905 44.2634C100.185 44.8234 100.34 45.3434 100.355 45.8234C100.371 45.9674 100.332 46.0874 100.239 46.1834C100.146 46.2794 100.022 46.3274 99.8672 46.3274H97.4725C97.3175 46.3274 97.2012 46.2954 97.1237 46.2314C97.0461 46.1674 96.9764 46.0714 96.9145 45.9434C96.7904 45.6074 96.5967 45.2794 96.3332 44.9594C96.0696 44.6234 95.7132 44.3434 95.2637 44.1194C94.8141 43.8954 94.2329 43.7834 93.52 43.7834C92.4659 43.7834 91.6212 44.0714 90.9857 44.6474C90.3657 45.2234 90.0325 46.1754 89.986 47.5034C89.9395 48.8954 89.9395 50.3034 89.986 51.7274C90.0325 53.0874 90.3734 54.0634 91.009 54.6554C91.66 55.2474 92.5124 55.5434 93.5665 55.5434C94.264 55.5434 94.8839 55.4154 95.4265 55.1594C95.9845 54.9034 96.4184 54.5034 96.7285 53.9594C97.054 53.4154 97.2167 52.7194 97.2167 51.8714V51.1274H94.3802C94.2252 51.1274 94.0934 51.0714 93.985 50.9594C93.8765 50.8474 93.8222 50.7034 93.8222 50.5274V49.2554C93.8222 49.0794 93.8765 48.9354 93.985 48.8234C94.0934 48.7114 94.2252 48.6554 94.3802 48.6554H99.937C100.107 48.6554 100.239 48.7114 100.332 48.8234C100.441 48.9354 100.495 49.0794 100.495 49.2554V51.7754C100.495 53.1194 100.208 54.2794 99.6347 55.2554C99.0767 56.2314 98.2707 56.9834 97.2167 57.5114C96.1782 58.0394 94.946 58.3034 93.52 58.3034ZM103.104 58.0634C102.949 58.0634 102.817 58.0074 102.708 57.8954C102.6 57.7835 102.546 57.6474 102.546 57.4874V41.8634C102.546 41.6874 102.6 41.5434 102.708 41.4314C102.817 41.3194 102.949 41.2634 103.104 41.2634H109.125C111 41.2634 112.481 41.7114 113.566 42.6074C114.651 43.5034 115.193 44.8074 115.193 46.5194C115.193 47.7034 114.906 48.6874 114.333 49.4714C113.775 50.2554 113.023 50.8234 112.078 51.1754L115.472 57.2954C115.519 57.3914 115.542 57.4794 115.542 57.5594C115.542 57.7034 115.488 57.8234 115.379 57.9194C115.286 58.0154 115.178 58.0634 115.054 58.0634H112.938C112.674 58.0634 112.473 57.9914 112.333 57.8474C112.194 57.7034 112.086 57.5594 112.008 57.4154L109.009 51.7274H105.777V57.4874C105.777 57.6474 105.723 57.7835 105.614 57.8954C105.521 58.0074 105.39 58.0634 105.219 58.0634H103.104ZM105.777 49.0154H109.055C110.001 49.0154 110.706 48.7994 111.171 48.3674C111.636 47.9194 111.868 47.2954 111.868 46.4954C111.868 45.6954 111.636 45.0714 111.171 44.6234C110.721 44.1594 110.017 43.9274 109.055 43.9274H105.777V49.0154ZM123.491 58.3034C122.05 58.3034 120.825 58.0475 119.818 57.5354C118.826 57.0074 118.066 56.2634 117.539 55.3034C117.012 54.3274 116.718 53.1594 116.656 51.7994C116.64 51.1434 116.633 50.4394 116.633 49.6874C116.633 48.9354 116.64 48.2154 116.656 47.5274C116.718 46.1834 117.012 45.0234 117.539 44.0474C118.082 43.0714 118.849 42.3274 119.841 41.8154C120.849 41.2874 122.065 41.0234 123.491 41.0234C124.545 41.0234 125.491 41.1674 126.328 41.4554C127.165 41.7434 127.878 42.1434 128.467 42.6554C129.056 43.1514 129.513 43.7354 129.839 44.4074C130.164 45.0794 130.335 45.8074 130.35 46.5914C130.366 46.7354 130.319 46.8554 130.211 46.9514C130.118 47.0474 130.001 47.0954 129.862 47.0954H127.653C127.483 47.0954 127.343 47.0554 127.235 46.9754C127.126 46.8794 127.049 46.7274 127.002 46.5194C126.754 45.4634 126.328 44.7434 125.723 44.3594C125.119 43.9754 124.367 43.7834 123.468 43.7834C122.43 43.7834 121.6 44.0874 120.98 44.6954C120.36 45.2874 120.027 46.2714 119.981 47.6474C119.934 48.9594 119.934 50.3034 119.981 51.6794C120.027 53.0554 120.36 54.0474 120.98 54.6554C121.6 55.2474 122.43 55.5434 123.468 55.5434C124.367 55.5434 125.119 55.3514 125.723 54.9674C126.343 54.5674 126.77 53.8474 127.002 52.8074C127.049 52.5834 127.126 52.4314 127.235 52.3514C127.343 52.2714 127.483 52.2314 127.653 52.2314H129.862C130.001 52.2314 130.118 52.2794 130.211 52.3754C130.319 52.4714 130.366 52.5914 130.35 52.7354C130.335 53.5194 130.164 54.2474 129.839 54.9194C129.513 55.5914 129.056 56.1834 128.467 56.6954C127.878 57.1914 127.165 57.5834 126.328 57.8714C125.491 58.1594 124.545 58.3034 123.491 58.3034Z" fill="#080D10"/>
</g>
</g>
</svg>
