<svg width="140" height="100" viewBox="0 0 140 100" fill="none" xmlns="http://www.w3.org/2000/svg">
<path d="M29.8984 41.6229C31.288 42.9255 33.2334 45.5307 33.2334 50.1679C33.2334 51.6094 33.0771 56.455 29.0125 59.4423C27.9529 60.2238 26.0596 61.3353 22.8635 61.3353C22.1687 61.3353 20.3101 61.2832 18.4688 60.4669C16.037 59.3901 12.4414 56.5592 12.4414 50.1679C12.4414 49.3863 12.4761 47.2848 13.3447 45.166C14.9774 41.154 18.6425 38.9657 22.9156 39.0004C24.1836 39.0004 27.2755 39.1393 29.8984 41.6229ZM20.449 43.3944C17.1661 45.0791 17.2008 49.3863 17.2008 50.1158C17.2008 50.6021 17.2008 53.4504 18.5904 55.3608C19.0942 56.0903 20.5185 57.4971 22.9503 57.4971C24.4268 57.4971 25.4169 56.9239 25.9032 56.5939C28.5782 54.7356 28.5261 50.7236 28.5261 50.081C28.5261 47.9795 28.0224 45.5307 26.3027 44.0544C25.7643 43.5681 24.7394 42.856 22.8982 42.8213C22.464 42.8213 21.4739 42.856 20.449 43.3944Z" fill="#080D10"/>
<path d="M39.8341 47.5106C40.2336 46.8854 40.5289 46.5554 41.1368 46.1039C41.7621 45.6523 42.978 44.9229 44.9061 44.9229C45.8094 44.9229 48.7275 45.1313 49.7176 48.049C50.0477 49.039 50.0477 50.029 50.0824 51.0537V60.7796H45.8962V51.9047C45.8962 50.88 45.931 49.6469 44.993 48.9174C44.6977 48.709 44.1766 48.4138 43.3428 48.4138C41.71 48.4138 40.9284 49.2648 40.5636 49.8032C39.9557 50.741 39.9904 51.731 39.9557 52.8078V60.7796H35.8042V45.357H39.8341V47.5106Z" fill="#080D10"/>
<path d="M56.8564 54.1801C56.8911 54.4232 56.8911 54.9269 57.0301 55.4827C57.2385 56.3858 57.968 58.2268 60.5562 58.2268C61.0947 58.2268 62.2411 58.1399 63.0922 56.9242C63.2138 56.7505 63.3701 56.5074 63.5786 56.0211H67.6084C67.5563 56.2295 67.4347 56.7505 67.1568 57.2889C66.4099 58.852 64.9856 60.172 63.3354 60.7798C62.1369 61.2314 60.8341 61.2661 60.452 61.2661C59.8788 61.2661 58.5239 61.2314 57.1169 60.6582C54.0771 59.3904 52.5659 56.3163 52.6007 53.1554C52.6007 48.6398 55.6405 44.9404 60.3477 44.9404C61.0947 44.9404 62.9706 45.0273 64.7076 46.2951C68.0774 48.7613 67.9037 53.1033 67.9037 54.1801H56.8564ZM63.5612 51.3665C63.5265 51.1234 63.4744 50.4286 63.1617 49.7687C62.6232 48.5877 61.5115 47.8929 60.2783 47.8929C58.9755 47.8929 57.8465 48.6224 57.2732 49.786C57.0995 50.1508 56.9779 50.5328 56.8737 51.3491H63.5612V51.3665Z" fill="#080D10"/>
<path d="M86.7671 43.5148H80.3575V60.7957H75.685V43.5148H69.2754V39.5376H86.7671V43.5148Z" fill="#080D10"/>
<path d="M88.331 54.1801C88.3657 54.4232 88.3657 54.9269 88.5047 55.4827C88.7131 56.3858 89.4427 58.2268 92.0308 58.2268C92.5693 58.2268 93.7157 58.1399 94.5668 56.9242C94.6884 56.7505 94.8448 56.5074 95.0532 56.0211H99.0831C99.0309 56.2295 98.9094 56.7505 98.6314 57.2889C97.8845 58.852 96.4602 60.172 94.81 60.7798C93.6115 61.2314 92.3087 61.2661 91.9266 61.2661C91.3534 61.2661 89.9985 61.2314 88.5915 60.6582C85.5518 59.3904 84.0406 56.3163 84.0753 53.1554C84.0753 48.6398 87.1151 44.9404 91.8224 44.9404C92.5693 44.9404 94.4452 45.0273 96.1823 46.2951C99.5521 48.7613 99.3784 53.1033 99.3784 54.1801H88.331ZM95.0358 51.3665C95.0011 51.1234 94.949 50.4286 94.6363 49.7687C94.0978 48.5877 92.9862 47.8929 91.7529 47.8929C90.4501 47.8929 89.3211 48.6224 88.7479 49.786C88.5742 50.1508 88.4526 50.5328 88.3483 51.3491H95.0358V51.3665Z" fill="#080D10"/>
<path d="M110.705 52.5821L116.645 60.7971H111.591L108.203 55.6736L104.868 60.7971H99.8657L105.702 52.669L100.369 45.3745H105.424L108.255 49.6122L111.087 45.3745H115.968L110.705 52.5821Z" fill="#080D10"/>
<path d="M126.458 48.2751H123.47V55.5348C123.47 55.9343 123.436 56.3164 123.505 56.7158C123.661 57.3411 124.043 57.7058 125.225 57.7058C125.676 57.7058 126.163 57.6711 126.614 57.6537L126.58 60.8841C125.711 60.971 124.808 61.0057 123.905 61.0057C121.316 61.0057 120.205 60.2762 119.666 59.0779C119.267 58.2095 119.249 57.3064 119.249 56.4032V48.3099H116.748V45.4268H119.249V40.7549H123.488V45.4268H126.475V48.2751H126.458Z" fill="#080D10"/>
</svg>
