<svg width="140" height="100" viewBox="0 0 140 100" fill="none" xmlns="http://www.w3.org/2000/svg">
<g clip-path="url(#clip0_16532_10622)">
<path d="M55.6182 59.6694V41.2563H62.4602C63.8619 41.2563 65.0379 41.5201 65.9881 42.0475C66.9444 42.575 67.666 43.3002 68.153 44.2233C68.6459 45.1404 68.8924 46.1833 68.8924 47.3521C68.8924 48.5329 68.6459 49.5818 68.153 50.4989C67.66 51.4159 66.9325 52.1382 65.9703 52.6656C65.0082 53.1871 63.8233 53.4478 62.4157 53.4478H57.8811V50.7056H61.9702C62.7899 50.7056 63.461 50.5618 63.9836 50.2741C64.5063 49.9864 64.8923 49.5908 65.1418 49.0873C65.3972 48.5838 65.5249 48.0054 65.5249 47.3521C65.5249 46.6988 65.3972 46.1234 65.1418 45.6259C64.8923 45.1284 64.5033 44.7418 63.9747 44.466C63.4521 44.1843 62.778 44.0435 61.9524 44.0435H58.9234V59.6694H55.6182Z" fill="#080D10"/>
<path d="M74.8456 51.5777V59.6694H71.6206V41.2563H74.7743V48.2062H74.9347C75.2554 47.427 75.7513 46.8127 76.4224 46.3631C77.0995 45.9076 77.9607 45.6798 79.006 45.6798C79.9563 45.6798 80.7848 45.8806 81.4916 46.2822C82.1984 46.6838 82.7448 47.2712 83.1308 48.0444C83.5228 48.8176 83.7188 49.7616 83.7188 50.8765V59.6694H80.4938V51.3799C80.4938 50.4509 80.2562 49.7287 79.7811 49.2132C79.3119 48.6917 78.6526 48.431 77.8033 48.431C77.2331 48.431 76.7224 48.5569 76.271 48.8086C75.8255 49.0543 75.4751 49.411 75.2197 49.8785C74.9703 50.346 74.8456 50.9124 74.8456 51.5777Z" fill="#080D10"/>
<path d="M93.0645 59.939C91.6925 59.939 90.5076 59.6513 89.5099 59.0759C88.518 58.4945 87.7548 57.6734 87.2203 56.6124C86.6857 55.5455 86.4185 54.2898 86.4185 52.8453C86.4185 51.4248 86.6857 50.1781 87.2203 49.1052C87.7607 48.0263 88.515 47.1872 89.4831 46.5878C90.4512 45.9824 91.5886 45.6797 92.8952 45.6797C93.7386 45.6797 94.5345 45.8176 95.2828 46.0933C96.0371 46.363 96.7023 46.7826 97.2784 47.352C97.8604 47.9214 98.3177 48.6467 98.6503 49.5278C98.9829 50.4029 99.1492 51.4458 99.1492 52.6565V53.6545H87.933V51.4608H96.0579C96.0519 50.8374 95.9183 50.283 95.657 49.7975C95.3956 49.306 95.0303 48.9194 94.5611 48.6377C94.0978 48.356 93.5574 48.2151 92.9398 48.2151C92.2805 48.2151 91.7014 48.3769 91.2025 48.7006C90.7036 49.0183 90.3146 49.4379 90.0355 49.9593C89.7623 50.4748 89.6227 51.0412 89.6168 51.6586V53.5736C89.6168 54.3768 89.7623 55.066 90.0533 55.6415C90.3443 56.2109 90.7512 56.6484 91.2738 56.9541C91.7965 57.2538 92.4082 57.4036 93.109 57.4036C93.5782 57.4036 94.0028 57.3377 94.3829 57.2058C94.7631 57.068 95.0927 56.8672 95.3719 56.6035C95.651 56.3397 95.8619 56.0131 96.0044 55.6235L99.0156 55.9651C98.8256 56.7683 98.4633 57.4696 97.9286 58.0689C97.4001 58.6623 96.7231 59.1239 95.8975 59.4535C95.072 59.7772 94.1276 59.939 93.0645 59.939Z" fill="#080D10"/>
<path d="M105.102 41.2563V59.6694H101.877V41.2563H105.102Z" fill="#080D10"/>
<path d="M108.419 59.6693V45.8595H111.644V59.6693H108.419ZM110.04 43.8996C109.529 43.8996 109.09 43.7287 108.722 43.3871C108.354 43.0395 108.169 42.6229 108.169 42.1374C108.169 41.6459 108.354 41.2293 108.722 40.8877C109.09 40.54 109.529 40.3662 110.04 40.3662C110.557 40.3662 110.996 40.54 111.359 40.8877C111.727 41.2293 111.911 41.6459 111.911 42.1374C111.911 42.6229 111.727 43.0395 111.359 43.3871C110.996 43.7287 110.557 43.8996 110.04 43.8996Z" fill="#080D10"/>
<path d="M117.597 45.8596L120.359 50.9574L123.165 45.8596H126.577L122.452 52.7645L126.649 59.6694H123.254L120.359 54.6975L117.49 59.6694H114.069L118.239 52.7645L114.176 45.8596H117.597Z" fill="#080D10"/>
<path d="M41.4454 35.5319V50.6722C41.4448 54.472 39.9463 58.116 37.2794 60.8028C34.6125 63.4897 30.9956 64.9994 27.224 65C23.4521 65 19.8347 63.4905 17.1673 60.8036C14.4999 58.1167 13.0011 54.4724 13.0005 50.6722V49.9457C17.4032 44.0164 27.7991 37.5846 40.8299 35.0092C40.9056 34.9947 40.9836 34.9974 41.0582 35.0171C41.1328 35.0368 41.2021 35.073 41.261 35.1231C41.32 35.1732 41.3671 35.2358 41.399 35.3066C41.4309 35.3773 41.4467 35.4543 41.4454 35.5319Z" fill="#080D10" fill-opacity="0.8"/>
<path d="M13.0001 35.5319V50.6722C13.0007 54.472 14.4992 58.116 17.1661 60.8028C19.833 63.4897 23.4499 64.9994 27.2214 65C30.993 64.9994 34.6099 63.4897 37.2768 60.8028C39.9437 58.116 41.4422 54.472 41.4428 50.6722V49.9457C37.0355 44.0164 26.6464 37.5846 13.6156 35.0092C13.5398 34.9947 13.4618 34.9974 13.3872 35.0171C13.3127 35.0368 13.2434 35.073 13.1844 35.1231C13.1255 35.1732 13.0784 35.2358 13.0465 35.3066C13.0146 35.3773 12.9987 35.4543 13.0001 35.5319Z" fill="url(#paint0_linear_16532_10622)"/>
<path d="M13.0001 35.5319V50.6722C13.0007 54.472 14.4992 58.116 17.1661 60.8028C19.833 63.4897 23.4499 64.9994 27.2214 65C30.993 64.9994 34.6099 63.4897 37.2768 60.8028C39.9437 58.116 41.4422 54.472 41.4428 50.6722V49.9457C37.0355 44.0164 26.6464 37.5846 13.6156 35.0092C13.5398 34.9947 13.4618 34.9974 13.3872 35.0171C13.3127 35.0368 13.2434 35.073 13.1844 35.1231C13.1255 35.1732 13.0784 35.2358 13.0465 35.3066C13.0146 35.3773 12.9987 35.4543 13.0001 35.5319Z" fill="#080D10"/>
<path d="M27.8772 46.7373H26.5698C25.9334 46.7373 25.4175 47.2571 25.4175 47.8983V56.9689C25.4175 57.6101 25.9334 58.1298 26.5698 58.1298H27.8772C28.5136 58.1298 29.0295 57.6101 29.0295 56.9689V47.8983C29.0295 47.2571 28.5136 46.7373 27.8772 46.7373Z" fill="white"/>
<path d="M21.5674 51.7748V53.0919C21.5674 53.7331 22.0833 54.2529 22.7197 54.2529H31.7229C32.3594 54.2529 32.8753 53.7331 32.8753 53.0919V51.7748C32.8753 51.1336 32.3594 50.6138 31.7229 50.6138H22.7197C22.0833 50.6138 21.5674 51.1336 21.5674 51.7748Z" fill="white"/>
</g>
<defs>
<linearGradient id="paint0_linear_16532_10622" x1="13.2225" y1="33.3367" x2="38.1999" y2="67.2826" gradientUnits="userSpaceOnUse">
<stop stop-color="#AA6AFE"/>
<stop offset="1" stop-color="#2B20B1"/>
</linearGradient>
<clipPath id="clip0_16532_10622">
<rect width="114" height="30" fill="white" transform="translate(13 35)"/>
</clipPath>
</defs>
</svg>
