<svg width="20" height="20" viewBox="0 0 20 20" fill="none" xmlns="http://www.w3.org/2000/svg">
<g clip-path="url(#clip0_20421_26235)">
<path d="M15.8333 9.16602H14.4167C14.4167 9.78268 14.2833 10.3577 14.0583 10.8743L15.0833 11.8993C15.55 11.0827 15.8333 10.1577 15.8333 9.16602ZM12.4833 9.30768C12.4833 9.25768 12.5 9.21602 12.5 9.16602V4.16602C12.5 2.78268 11.3833 1.66602 10 1.66602C8.61667 1.66602 7.5 2.78268 7.5 4.16602V4.31602L12.4833 9.30768ZM3.55833 2.49935L2.5 3.55768L7.50833 8.56602V9.16602C7.50833 10.5493 8.61667 11.666 10 11.666C10.1833 11.666 10.3667 11.641 10.5417 11.5993L11.925 12.9827C11.3333 13.2577 10.675 13.416 10 13.416C7.7 13.416 5.58333 11.666 5.58333 9.16602H4.16667C4.16667 12.0077 6.43333 14.3577 9.16667 14.766V17.4993H10.8333V14.766C11.5917 14.6577 12.3083 14.391 12.95 14.016L16.4417 17.4993L17.5 16.441L3.55833 2.49935Z" fill="#CC3C33"/>
</g>
<defs>
<clipPath id="clip0_20421_26235">
<rect width="20" height="20" fill="white"/>
</clipPath>
</defs>
</svg>
