<svg width="140" height="100" viewBox="0 0 140 100" fill="none" xmlns="http://www.w3.org/2000/svg">
<path d="M129.892 56.2969C126.855 56.2969 124.683 54.0848 124.683 50.9878C124.683 47.8507 126.795 45.6587 129.832 45.6587C132.989 45.6587 134.96 47.73 134.96 51.0079V51.7922L127.66 51.8324C127.841 53.1597 128.585 53.7831 129.952 53.7831C131.119 53.7831 131.943 53.3608 132.164 52.6368H135C134.638 54.8691 132.647 56.2969 129.892 56.2969ZM129.852 48.1724C128.625 48.1724 127.941 48.7154 127.7 49.922H131.883C131.883 48.8562 131.099 48.1724 129.852 48.1724Z" fill="#080D10"/>
<path d="M117.728 56.0363H114.631V40.8733H117.728V49.6011L120.986 45.9813H124.868L121.087 49.9631L124.747 56.0363H121.167L118.915 52.2758L117.728 53.5226V56.0363Z" fill="#080D10"/>
<path d="M110.538 44.4127C109.553 44.4127 108.768 43.6284 108.768 42.643C108.768 41.6577 109.553 40.8935 110.538 40.8935C111.503 40.8935 112.288 41.6577 112.288 42.643C112.288 43.6284 111.503 44.4127 110.538 44.4127ZM109.01 56.0364V45.9813H112.107V56.0364H109.01Z" fill="#080D10"/>
<path d="M105.507 56.0356H102.41V48.5547H100.499V45.9806H102.41V42.8635H105.507V45.9806H107.417V48.5547H105.507V56.0356Z" fill="#080D10"/>
<path d="M93.6304 56.2969C91.4987 56.2969 90.1714 55.0501 90.1714 53.0793C90.1714 51.2291 91.4786 50.0829 93.8918 49.9019L96.7072 49.6807V49.5198C96.7072 48.5344 96.1039 48.0115 94.9979 48.0115C93.6907 48.0115 92.9868 48.5143 92.9868 49.4192H90.4127C90.4127 47.1468 92.283 45.6587 95.1587 45.6587C98.0747 45.6587 99.7238 47.2876 99.7238 50.1633V56.0355H96.9888L96.7877 54.7082C96.4659 55.6333 95.1386 56.2969 93.6304 56.2969ZM94.7163 54.0043C95.9028 54.0043 96.7273 53.4211 96.7273 52.2749V51.7319L95.1587 51.8727C93.8114 51.9933 93.3287 52.295 93.3287 52.9385C93.3287 53.6625 93.7711 54.0043 94.7163 54.0043Z" fill="#080D10"/>
<path d="M75.75 56.0355H72.653V45.9804H75.5489L75.75 47.0261C76.2527 46.3223 77.2381 45.6587 78.6861 45.6587C80.1943 45.6587 81.1596 46.3625 81.7428 47.4283C82.2657 46.3625 83.4522 45.6587 84.9001 45.6587C87.4944 45.6587 88.7814 47.1669 88.7814 49.4595V56.0355H85.6844V50.3242C85.6844 49.0573 85.0208 48.454 84.0354 48.454C83.1506 48.454 82.2657 48.9366 82.2657 50.646V56.0355H79.1687V50.3242C79.1687 49.0774 78.5252 48.4741 77.5398 48.4741C76.6549 48.4741 75.75 48.9567 75.75 50.646V56.0355Z" fill="#080D10"/>
<path d="M59.8259 50.8279C59.8259 47.7712 61.8168 45.6396 64.6524 45.6396C66.0199 45.6396 67.1058 46.1624 67.6488 46.9869L67.8097 45.9814H70.7256V55.3929C70.7256 58.9926 68.6543 61.1645 65.2154 61.1645C62.1386 61.1645 60.0672 59.415 59.7857 56.5593H62.9229C62.9832 57.6855 63.8278 58.3491 65.1953 58.3491C66.6835 58.3491 67.6287 57.4643 67.6287 56.0365V54.7293C67.0254 55.4533 65.8992 55.9158 64.592 55.9158C61.7766 55.9158 59.8259 53.8445 59.8259 50.8279ZM62.943 50.7475C62.943 52.1954 63.9083 53.2211 65.2758 53.2211C66.6835 53.2211 67.6287 52.2357 67.6287 50.7475C67.6287 49.2795 66.6835 48.3343 65.2557 48.3343C63.8882 48.3343 62.943 49.3197 62.943 50.7475Z" fill="#080D10"/>
<path d="M52.4162 56.2969C50.2845 56.2969 48.9572 55.0501 48.9572 53.0793C48.9572 51.2291 50.2644 50.0829 52.6776 49.9019L55.4931 49.6807V49.5198C55.4931 48.5344 54.8898 48.0115 53.7837 48.0115C52.4765 48.0115 51.7727 48.5143 51.7727 49.4192H49.1986C49.1986 47.1468 51.0688 45.6587 53.9446 45.6587C56.8606 45.6587 58.5096 47.2876 58.5096 50.1633V56.0355H55.7746L55.5735 54.7082C55.2517 55.6333 53.9245 56.2969 52.4162 56.2969ZM53.5022 54.0043C54.6887 54.0043 55.5132 53.4211 55.5132 52.2749V51.7319L53.9446 51.8727C52.5972 51.9933 52.1146 52.295 52.1146 52.9385C52.1146 53.6625 52.557 54.0043 53.5022 54.0043Z" fill="#080D10"/>
<path d="M48.609 45.981V48.8969H47.6236C45.8539 48.8969 44.788 49.6812 44.788 51.6721V56.036H41.691V46.0011H44.607L44.7679 47.4892C45.1902 46.5038 46.0751 45.8402 47.4225 45.8402C47.7844 45.8402 48.1866 45.8804 48.609 45.981Z" fill="#080D10"/>
<path d="M35.3503 51.0898H32.5751V56.0369H29.3173V41.1555H35.3503C38.387 41.1555 40.4181 43.1464 40.4181 46.1226C40.4181 49.0989 38.387 51.0898 35.3503 51.0898ZM34.6264 44.0513H32.5751V48.194H34.6264C36.195 48.194 36.9793 47.5102 36.9793 46.1226C36.9793 44.735 36.195 44.0513 34.6264 44.0513Z" fill="#080D10"/>
<path d="M13.8632 42.5819C13.2971 42.8974 12.7678 43.3009 12.2956 43.7916C11.7507 44.3577 11.3249 44.9954 11.0162 45.6718L11.0095 45.6873L4.99997 57.9084H12.9449L15.4735 48.0437L15.55 47.8085C15.8983 46.9501 16.869 46.5215 17.7409 46.8485C18.6283 47.1814 19.0773 48.1695 18.7444 49.0559C18.4144 49.9336 17.4428 50.3826 16.5622 50.0681L15.3168 54.925C17.6238 55.5734 20.2037 54.9637 21.9824 53.1164C24.5565 50.4416 24.4761 46.1857 21.8014 43.6106C19.6173 41.5078 16.3793 41.1768 13.8632 42.5819Z" fill="#080D10"/>
<path d="M12.9449 39L4.99999 39L8.78568 46.7L9.60727 45.0298C9.99822 44.1743 10.5266 43.3973 11.1798 42.7189C11.7488 42.1276 12.3981 41.6264 13.1084 41.2306C13.2265 41.1648 13.3465 41.1019 13.4684 41.0419L12.9449 39Z" fill="#080D10"/>
</svg>
