<svg width="140" height="100" viewBox="0 0 140 100" fill="none" xmlns="http://www.w3.org/2000/svg">
<path d="M61.8579 51.8326C63.0765 51.7861 64.5227 51.8198 65.76 51.8202L81.022 51.8199C82.0801 51.8198 86.1208 51.697 86.8172 51.9472C86.9103 51.9807 86.9343 52.0216 86.9727 52.107C87.1336 52.4622 87.1852 55.5158 87.0374 55.8487C86.7327 56.537 84.2654 55.9847 83.5689 56.2668C83.4342 56.3214 83.3917 56.4176 83.3578 56.5513C83.1807 57.246 83.2842 58.2408 83.2842 58.9619L83.2896 64.2412C83.2909 65.1188 83.3691 66.8923 83.1594 67.647C83.0369 68.0873 78.0589 67.992 77.6779 67.7757C77.282 67.3311 77.4171 65.7152 77.4225 65.041L77.4257 59.4116C77.4261 58.4827 77.4713 57.5164 77.3606 56.5975C77.3461 56.3104 77.051 56.1948 76.7875 56.1957C75.1884 56.2013 73.5862 56.1894 71.9871 56.1916C71.7353 56.2088 70.9638 56.1468 70.8838 56.4585C70.6854 57.2303 70.7591 58.2858 70.7591 59.0822L70.7636 64.44C70.7645 65.3174 70.7758 66.2222 70.7554 67.0997C70.7518 67.2533 70.6935 67.5487 70.6063 67.6759C70.5439 67.7673 70.298 67.8678 70.1896 67.8769C68.6881 68.0035 67.1386 67.883 65.6283 67.9227C65.1871 67.9343 65.0075 67.6362 64.9776 67.2358C64.908 66.3028 64.9363 65.3437 64.9377 64.4033L64.9408 59.086C64.941 58.7289 65.0522 56.5058 64.6975 56.3153C64.0546 55.97 61.9226 56.4191 61.3498 56.0647C60.9822 55.8372 61.2083 52.8628 61.1672 52.3314C61.1392 51.9336 61.5511 51.8645 61.8579 51.8326Z" fill="#080D10"/>
<path d="M61.8579 51.8326C63.0765 51.7861 64.5227 51.8198 65.76 51.8202L81.022 51.8199C82.0801 51.8198 86.1208 51.697 86.8172 51.9472C86.9103 51.9807 86.9343 52.0216 86.9727 52.107C87.1336 52.4622 87.1852 55.5158 87.0374 55.8487C86.7327 56.537 84.2654 55.9847 83.5689 56.2668C83.4342 56.3214 83.3917 56.4176 83.3578 56.5513C83.1807 57.246 83.2842 58.2408 83.2842 58.9619L83.2896 64.2412C83.2909 65.1188 83.3691 66.8923 83.1594 67.647C83.0369 68.0873 78.0589 67.992 77.6779 67.7757C77.282 67.3311 77.4171 65.7152 77.4225 65.041L77.4257 59.4116C77.4261 58.4827 77.4713 57.5164 77.3606 56.5975C77.3461 56.3104 77.051 56.1948 76.7875 56.1957C75.1884 56.2013 73.5862 56.1894 71.9871 56.1916C71.7353 56.2088 70.9638 56.1468 70.8838 56.4585C70.6854 57.2303 70.7591 58.2858 70.7591 59.0822L70.7636 64.44C70.7645 65.3174 70.7758 66.2222 70.7554 67.0997C70.7518 67.2533 70.6935 67.5487 70.6063 67.6759C70.5439 67.7673 70.298 67.8678 70.1896 67.8769C68.6881 68.0035 67.1386 67.883 65.6283 67.9227C65.1871 67.9343 65.0075 67.6362 64.9776 67.2358C64.908 66.3028 64.9363 65.3437 64.9377 64.4033L64.9408 59.086C64.941 58.7289 65.0522 56.5058 64.6975 56.3153C64.0546 55.97 61.9226 56.4191 61.3498 56.0647C60.9822 55.8372 61.2083 52.8628 61.1672 52.3314C61.1392 51.9336 61.5511 51.8645 61.8579 51.8326Z" fill="#080D10"/>
<path d="M70.463 32.3496C71.9771 32.305 73.6445 32.3374 75.1667 32.3375L90.335 32.3362C91.4143 32.3361 94.504 32.2125 95.299 32.4759C95.3835 32.5038 95.4147 32.5453 95.4486 32.6241C95.6276 33.0422 95.6642 35.9418 95.4902 36.3357C95.1431 37.1209 92.7996 36.4629 92.0046 36.8002C91.8486 36.8664 91.8003 37.1449 91.7777 37.2908C91.6466 38.1274 91.7361 39.1492 91.7361 40.0013L91.7424 45.6885C91.7433 46.3126 91.8079 47.7135 91.6018 48.218C91.2687 48.5162 88.6577 48.3505 88.0398 48.3961C87.7343 48.4187 86.3354 48.4336 86.095 48.2485C85.8351 47.8378 85.9278 46.0488 85.9309 45.4726L85.9318 40.1333C85.9318 39.2003 85.9576 38.2519 85.8884 37.3226C85.8527 37.0263 85.7524 36.7209 85.3872 36.7213C83.5065 36.7236 81.6064 36.663 79.7298 36.7476C79.5445 36.756 79.3868 36.8488 79.3452 37.0398C79.168 37.8556 79.2358 38.7908 79.2358 39.6315L79.2413 44.9053C79.2426 45.8045 79.2562 46.7317 79.2286 47.63C79.2236 47.7943 79.164 48.1023 79.0677 48.236C79.0365 48.2992 78.8747 48.3493 78.8037 48.3533C77.2268 48.4419 75.6286 48.3709 74.0476 48.3871C73.6747 48.3909 73.4668 48.2569 73.4488 47.8743C73.4058 46.9686 73.4239 46.0527 73.4248 45.1434L73.4293 39.6779C73.4302 39.2134 73.569 37.0947 73.1654 36.8278C72.6415 36.4811 70.2416 36.9611 69.8221 36.5577C69.3873 36.1398 69.6418 33.5353 69.6079 32.8882C69.5921 32.4088 70.1109 32.3837 70.463 32.3496Z" fill="#080D10"/>
<path d="M70.463 32.3496C71.9771 32.305 73.6445 32.3374 75.1667 32.3375L90.335 32.3362C91.4143 32.3361 94.504 32.2125 95.299 32.4759C95.3835 32.5038 95.4147 32.5453 95.4486 32.6241C95.6276 33.0422 95.6642 35.9418 95.4902 36.3357C95.1431 37.1209 92.7996 36.4629 92.0046 36.8002C91.8486 36.8664 91.8003 37.1449 91.7777 37.2908C91.6466 38.1274 91.7361 39.1492 91.7361 40.0013L91.7424 45.6885C91.7433 46.3126 91.8079 47.7135 91.6018 48.218C91.2687 48.5162 88.6577 48.3505 88.0398 48.3961C87.7343 48.4187 86.3354 48.4336 86.095 48.2485C85.8351 47.8378 85.9278 46.0488 85.9309 45.4726L85.9318 40.1333C85.9318 39.2003 85.9576 38.2519 85.8884 37.3226C85.8527 37.0263 85.7524 36.7209 85.3872 36.7213C83.5065 36.7236 81.6064 36.663 79.7298 36.7476C79.5445 36.756 79.3868 36.8488 79.3452 37.0398C79.168 37.8556 79.2358 38.7908 79.2358 39.6315L79.2413 44.9053C79.2426 45.8045 79.2562 46.7317 79.2286 47.63C79.2236 47.7943 79.164 48.1023 79.0677 48.236C79.0365 48.2992 78.8747 48.3493 78.8037 48.3533C77.2268 48.4419 75.6286 48.3709 74.0476 48.3871C73.6747 48.3909 73.4668 48.2569 73.4488 47.8743C73.4058 46.9686 73.4239 46.0527 73.4248 45.1434L73.4293 39.6779C73.4302 39.2134 73.569 37.0947 73.1654 36.8278C72.6415 36.4811 70.2416 36.9611 69.8221 36.5577C69.3873 36.1398 69.6418 33.5353 69.6079 32.8882C69.5921 32.4088 70.1109 32.3837 70.463 32.3496Z" fill="#080D10"/>
<path d="M42.758 32.3488C43.878 32.3036 45.2292 32.3021 46.3792 32.3353C49.1337 32.4148 53.3594 31.7169 54.7833 34.7742C55.3018 35.8877 55.3901 38.3887 54.5981 39.4443C54.3538 39.77 53.9123 40.1379 53.702 40.4925C53.6714 41.1223 54.6856 41.6269 54.8747 42.2376C55.5579 44.4436 54.5833 46.2702 55.8382 48.4095C55.4547 48.3694 54.8479 48.3865 54.4478 48.3869L51.9329 48.3989C51.5296 48.401 50.8052 48.4292 50.4356 48.3336C48.719 46.9758 50.1048 43.6319 49.1896 42.7313C48.8378 42.385 48.134 42.4189 47.6732 42.4141C47.6945 43.1255 47.7846 47.5031 47.6338 47.9259C47.5715 48.1003 47.4846 48.2601 47.3052 48.3373C47.014 48.4627 42.3472 48.4174 42.1216 48.3033C42.0242 48.254 41.9886 48.159 41.9609 48.0578C41.7895 47.4318 41.8852 46.5704 41.8854 45.919L41.8839 36.6447C41.8839 35.5158 41.876 34.3868 41.8932 33.2581C41.9055 32.4487 41.9785 32.4274 42.758 32.3488ZM47.8788 39.6882C48.531 39.8304 49.392 39.8486 50.0569 39.7913C50.2982 39.7789 50.4861 39.7999 50.6529 39.6039C51.0671 39.1169 51.1037 38.1189 50.2724 38.0589C49.6374 38.0131 49.041 38.0302 48.4073 38.0372C47.3636 38.094 47.4172 38.9957 47.8788 39.6882Z" fill="#080D10"/>
<path d="M42.758 32.3488C43.878 32.3036 45.2292 32.3021 46.3792 32.3353C49.1337 32.4148 53.3594 31.7169 54.7833 34.7742C55.3018 35.8877 55.3901 38.3887 54.5981 39.4443C54.3538 39.77 53.9123 40.1379 53.702 40.4925C53.6714 41.1223 54.6856 41.6269 54.8747 42.2376C55.5579 44.4436 54.5833 46.2702 55.8382 48.4095C55.4547 48.3694 54.8479 48.3865 54.4478 48.3869L51.9329 48.3989C51.5296 48.401 50.8052 48.4292 50.4356 48.3336C48.719 46.9758 50.1048 43.6319 49.1896 42.7313C48.8378 42.385 48.134 42.4189 47.6732 42.4141C47.6945 43.1255 47.7846 47.5031 47.6338 47.9259C47.5715 48.1003 47.4846 48.2601 47.3052 48.3373C47.014 48.4627 42.3472 48.4174 42.1216 48.3033C42.0242 48.254 41.9886 48.159 41.9609 48.0578C41.7895 47.4318 41.8852 46.5704 41.8854 45.919L41.8839 36.6447C41.8839 35.5158 41.876 34.3868 41.8932 33.2581C41.9055 32.4487 41.9785 32.4274 42.758 32.3488ZM47.8788 39.6882C48.531 39.8304 49.392 39.8486 50.0569 39.7913C50.2982 39.7789 50.4861 39.7999 50.6529 39.6039C51.0671 39.1169 51.1037 38.1189 50.2724 38.0589C49.6374 38.0131 49.041 38.0302 48.4073 38.0372C47.3636 38.094 47.4172 38.9957 47.8788 39.6882Z" fill="#080D10"/>
<path d="M28.5302 32.3508C28.6575 32.3456 28.7849 32.3418 28.9123 32.3396C30.2624 32.3198 31.6566 32.3354 33.018 32.3366C34.5068 32.3883 36.199 32.2055 37.6505 32.5585C39.6766 33.0512 41.0065 34.7644 40.9956 36.8113C40.9858 38.6662 41.2134 40.2662 39.7823 41.7172C38.3796 43.1394 36.5759 43.0966 34.7408 43.1049C34.4903 43.1032 34.1851 43.0762 33.9438 43.1446C33.7692 43.1941 33.6866 43.3319 33.6372 43.4937C33.3569 44.412 33.8309 47.47 33.4519 48.1356C33.3918 48.241 33.3456 48.2787 33.2237 48.3093C32.7631 48.4247 28.2642 48.4763 28.029 48.3129C27.8421 48.1831 27.754 47.9703 27.7254 47.7524C27.6478 47.1609 27.702 46.4988 27.7016 45.9004L27.7002 36.2557C27.7003 35.225 27.6902 34.1926 27.7144 33.1624C27.7287 32.5504 27.9709 32.4168 28.5302 32.3508ZM36.6788 40.247C37.4343 39.7761 37.4535 38.5789 36.5623 38.4826C35.8914 38.4101 34.7702 38.4382 34.0843 38.4803C33.9417 38.5165 33.6643 38.5904 33.6294 38.7401C33.1819 40.6618 34.461 40.2205 35.7728 40.2656C36.0986 40.2768 36.4208 40.2761 36.6788 40.247Z" fill="#080D10"/>
<path d="M28.5302 32.3508C28.6575 32.3456 28.7849 32.3418 28.9123 32.3396C30.2624 32.3198 31.6566 32.3354 33.018 32.3366C34.5068 32.3883 36.199 32.2055 37.6505 32.5585C39.6766 33.0512 41.0065 34.7644 40.9956 36.8113C40.9858 38.6662 41.2134 40.2662 39.7823 41.7172C38.3796 43.1394 36.5759 43.0966 34.7408 43.1049C34.4903 43.1032 34.1851 43.0762 33.9438 43.1446C33.7692 43.1941 33.6866 43.3319 33.6372 43.4937C33.3569 44.412 33.8309 47.47 33.4519 48.1356C33.3918 48.241 33.3456 48.2787 33.2237 48.3093C32.7631 48.4247 28.2642 48.4763 28.029 48.3129C27.8421 48.1831 27.754 47.9703 27.7254 47.7524C27.6478 47.1609 27.702 46.4988 27.7016 45.9004L27.7002 36.2557C27.7003 35.225 27.6902 34.1926 27.7144 33.1624C27.7287 32.5504 27.9709 32.4168 28.5302 32.3508ZM36.6788 40.247C37.4343 39.7761 37.4535 38.5789 36.5623 38.4826C35.8914 38.4101 34.7702 38.4382 34.0843 38.4803C33.9417 38.5165 33.6643 38.5904 33.6294 38.7401C33.1819 40.6618 34.461 40.2205 35.7728 40.2656C36.0986 40.2768 36.4208 40.2761 36.6788 40.247Z" fill="#080D10"/>
<path d="M36.9639 51.7863C38.5141 51.7647 40.093 51.7701 41.6327 51.779C43.014 51.787 44.4862 51.6834 45.8121 51.9643C48.1563 52.4608 49.485 54.2871 49.4138 56.6215C49.4578 59.0472 49.2332 60.9832 46.7423 62.0903C45.5556 62.6178 44.3534 62.5388 43.0571 62.5518C42.7858 62.5508 42.363 62.5025 42.139 62.6855C41.7616 62.9938 41.9295 66.8031 41.888 67.5388C41.644 67.7662 41.5026 67.84 41.1523 67.8666C40.5344 67.8924 39.8119 67.8915 39.1965 67.8656C38.5138 67.8368 36.7217 68.0371 36.2293 67.6601C36.0386 67.3256 36.0899 65.757 36.0897 65.3212L36.0908 56.0215C36.091 55.2478 36.0071 52.9144 36.2137 52.0403C36.2494 51.8892 36.7534 51.7985 36.9639 51.7863ZM45.1853 59.6561C45.4333 59.388 45.6057 59.0642 45.5952 58.6922C45.5893 58.4846 45.4971 58.2164 45.3398 58.0728C45.0607 57.818 42.7274 57.9344 42.2387 57.9512C41.6224 58.4378 41.8706 59.7438 42.5944 59.7001C43.1686 59.6654 44.714 59.8068 45.1853 59.6561Z" fill="#080D10"/>
<path d="M36.9639 51.7863C38.5141 51.7647 40.093 51.7701 41.6327 51.779C43.014 51.787 44.4862 51.6834 45.8121 51.9643C48.1563 52.4608 49.485 54.2871 49.4138 56.6215C49.4578 59.0472 49.2332 60.9832 46.7423 62.0903C45.5556 62.6178 44.3534 62.5388 43.0571 62.5518C42.7858 62.5508 42.363 62.5025 42.139 62.6855C41.7616 62.9938 41.9295 66.8031 41.888 67.5388C41.644 67.7662 41.5026 67.84 41.1523 67.8666C40.5344 67.8924 39.8119 67.8915 39.1965 67.8656C38.5138 67.8368 36.7217 68.0371 36.2293 67.6601C36.0386 67.3256 36.0899 65.757 36.0897 65.3212L36.0908 56.0215C36.091 55.2478 36.0071 52.9144 36.2137 52.0403C36.2494 51.8892 36.7534 51.7985 36.9639 51.7863ZM45.1853 59.6561C45.4333 59.388 45.6057 59.0642 45.5952 58.6922C45.5893 58.4846 45.4971 58.2164 45.3398 58.0728C45.0607 57.818 42.7274 57.9344 42.2387 57.9512C41.6224 58.4378 41.8706 59.7438 42.5944 59.7001C43.1686 59.6654 44.714 59.8068 45.1853 59.6561Z" fill="#080D10"/>
<path d="M53.0654 51.7848C53.8851 51.7803 57.895 51.6979 58.403 51.9059C58.7879 52.3611 59.2161 54.3565 59.3937 55.0221L60.7324 60.0481L61.8699 64.3557C62.0964 65.2135 62.6012 66.7469 62.5374 67.5754C62.0963 68.1693 58.7148 67.8231 57.8725 67.928C57.1556 68.0174 57.1286 66.9042 57.0253 66.3675C56.9584 66.0446 56.8973 65.8505 56.7527 65.5571C56.324 65.4482 54.5824 65.3677 54.231 65.5736C53.8243 65.8119 53.8226 67.0099 53.6948 67.4459C53.6582 67.5706 53.5803 67.7823 53.4483 67.8376C53.0711 67.9959 49.1202 67.9662 48.7221 67.8256C48.4852 67.7419 48.3838 67.4791 48.285 67.2721C48.4475 66.5039 48.7359 65.5247 48.9427 64.7466L50.1743 60.1043L51.4859 55.1193C51.7057 54.2858 51.9169 53.4467 52.1526 52.6179C52.3155 52.0448 52.4697 51.8333 53.0654 51.7848ZM54.4639 63.6267C54.8247 63.6385 55.17 63.6494 55.5316 63.6455C55.8403 63.6437 56.132 63.6438 56.4402 63.6222C56.3682 63.1151 55.8324 60.1857 55.4785 59.9293C55.4507 59.9092 55.4173 59.8924 55.3848 59.882C55.0073 60.6115 54.7399 62.7291 54.4639 63.6267Z" fill="#080D10"/>
<path d="M53.0654 51.7848C53.8851 51.7803 57.895 51.6979 58.403 51.9059C58.7879 52.3611 59.2161 54.3565 59.3937 55.0221L60.7324 60.0481L61.8699 64.3557C62.0964 65.2135 62.6012 66.7469 62.5374 67.5754C62.0963 68.1693 58.7148 67.8231 57.8725 67.928C57.1556 68.0174 57.1286 66.9042 57.0253 66.3675C56.9584 66.0446 56.8973 65.8505 56.7527 65.5571C56.324 65.4482 54.5824 65.3677 54.231 65.5736C53.8243 65.8119 53.8226 67.0099 53.6948 67.4459C53.6582 67.5706 53.5803 67.7823 53.4483 67.8376C53.0711 67.9959 49.1202 67.9662 48.7221 67.8256C48.4852 67.7419 48.3838 67.4791 48.285 67.2721C48.4475 66.5039 48.7359 65.5247 48.9427 64.7466L50.1743 60.1043L51.4859 55.1193C51.7057 54.2858 51.9169 53.4467 52.1526 52.6179C52.3155 52.0448 52.4697 51.8333 53.0654 51.7848ZM54.4639 63.6267C54.8247 63.6385 55.17 63.6494 55.5316 63.6455C55.8403 63.6437 56.132 63.6438 56.4402 63.6222C56.3682 63.1151 55.8324 60.1857 55.4785 59.9293C55.4507 59.9092 55.4173 59.8924 55.3848 59.882C55.0073 60.6115 54.7399 62.7291 54.4639 63.6267Z" fill="#080D10"/>
<path d="M57.4113 32.3512C57.5357 32.3442 57.6604 32.3407 57.785 32.3406L64.1131 32.3352C65.2928 32.3353 66.4744 32.3228 67.6543 32.3514C68.193 32.3645 68.5955 32.4362 68.633 33.0765C68.6623 33.8338 68.6497 34.6691 68.6506 35.4232C68.6524 36.7422 67.8628 36.4382 66.9395 36.4546C65.6428 36.4776 64.3705 36.4027 63.0837 36.4688C62.3306 36.5574 62.4467 37.1312 62.4217 37.6329C62.3792 38.8716 63.1937 38.622 64.0081 38.6586C64.901 38.6987 66.42 38.2491 66.3912 39.5618C66.3825 39.9575 66.404 40.4432 66.4003 40.8187C66.3858 42.2722 65.2234 41.7587 64.2477 41.8231C63.7593 41.8481 63.0626 41.6713 62.6656 42.0152C62.3909 42.2724 62.4459 42.6723 62.4366 42.9932C62.4073 44.0079 62.6171 44.1057 63.6219 44.105C64.4005 44.1174 67.8283 44.0295 68.3289 44.1834C68.6022 44.3888 68.67 44.9559 68.6529 45.2833C68.6045 46.2088 68.7885 47.2247 68.501 48.1127C68.3645 48.5339 67.6259 48.3513 67.2893 48.3945C64.036 48.3732 60.7795 48.3998 57.5266 48.3901C57.1093 48.3888 56.6582 48.3258 56.6192 47.8588C56.5694 47.2623 56.5861 46.6004 56.5857 46.0058L56.5843 36.0724C56.5845 35.2209 56.5393 33.8147 56.595 33.0237C56.6057 32.8822 56.6572 32.7466 56.7433 32.6332C56.9058 32.4189 57.1634 32.3873 57.4113 32.3512Z" fill="#080D10"/>
<path d="M57.4113 32.3512C57.5357 32.3442 57.6604 32.3407 57.785 32.3406L64.1131 32.3352C65.2928 32.3353 66.4744 32.3228 67.6543 32.3514C68.193 32.3645 68.5955 32.4362 68.633 33.0765C68.6623 33.8338 68.6497 34.6691 68.6506 35.4232C68.6524 36.7422 67.8628 36.4382 66.9395 36.4546C65.6428 36.4776 64.3705 36.4027 63.0837 36.4688C62.3306 36.5574 62.4467 37.1312 62.4217 37.6329C62.3792 38.8716 63.1937 38.622 64.0081 38.6586C64.901 38.6987 66.42 38.2491 66.3912 39.5618C66.3825 39.9575 66.404 40.4432 66.4003 40.8187C66.3858 42.2722 65.2234 41.7587 64.2477 41.8231C63.7593 41.8481 63.0626 41.6713 62.6656 42.0152C62.3909 42.2724 62.4459 42.6723 62.4366 42.9932C62.4073 44.0079 62.6171 44.1057 63.6219 44.105C64.4005 44.1174 67.8283 44.0295 68.3289 44.1834C68.6022 44.3888 68.67 44.9559 68.6529 45.2833C68.6045 46.2088 68.7885 47.2247 68.501 48.1127C68.3645 48.5339 67.6259 48.3513 67.2893 48.3945C64.036 48.3732 60.7795 48.3998 57.5266 48.3901C57.1093 48.3888 56.6582 48.3258 56.6192 47.8588C56.5694 47.2623 56.5861 46.6004 56.5857 46.0058L56.5843 36.0724C56.5845 35.2209 56.5393 33.8147 56.595 33.0237C56.6057 32.8822 56.6572 32.7466 56.7433 32.6332C56.9058 32.4189 57.1634 32.3873 57.4113 32.3512Z" fill="#080D10"/>
<path d="M88.8303 51.8282C89.624 51.8012 93.2583 51.7229 93.7071 51.9107C94.2418 52.1344 94.8091 54.2423 95.0332 54.8222C95.1385 55.0944 95.2845 55.4745 95.5765 55.594C95.6922 55.6416 95.8224 55.6361 95.9372 55.5884C96.5193 55.347 96.9948 53.085 97.2682 52.4488C97.3641 52.2256 97.5055 51.9778 97.7473 51.8882C98.1152 51.7519 102.2 51.7601 102.567 51.9275C102.718 51.9968 102.831 52.1167 102.883 52.275C102.954 52.4928 102.857 52.7539 102.777 52.9577C102.431 53.8374 101.911 54.6887 101.491 55.5377L98.8976 60.8273C98.7123 61.1915 98.4845 61.5742 98.3905 61.9728C98.2309 62.6514 98.339 65.2519 98.3457 66.1182C98.3489 66.5679 98.3955 67.0784 98.2427 67.5081C98.1903 67.6564 98.1365 67.7349 97.9914 67.8001C97.5426 68.0025 93.2778 68.0017 92.8136 67.8049C92.6662 67.7425 92.6143 67.6605 92.5731 67.5108C92.452 67.0693 92.4967 66.5568 92.4981 66.102L92.5053 63.5558C92.5117 61.4168 92.4082 61.6867 91.525 59.8024L89.1643 54.8779C88.8502 54.2233 88.2875 53.1337 88.038 52.4919C88.2685 52.019 88.2816 51.9017 88.8303 51.8282Z" fill="#080D10"/>
<path d="M88.8303 51.8282C89.624 51.8012 93.2583 51.7229 93.7071 51.9107C94.2418 52.1344 94.8091 54.2423 95.0332 54.8222C95.1385 55.0944 95.2845 55.4745 95.5765 55.594C95.6922 55.6416 95.8224 55.6361 95.9372 55.5884C96.5193 55.347 96.9948 53.085 97.2682 52.4488C97.3641 52.2256 97.5055 51.9778 97.7473 51.8882C98.1152 51.7519 102.2 51.7601 102.567 51.9275C102.718 51.9968 102.831 52.1167 102.883 52.275C102.954 52.4928 102.857 52.7539 102.777 52.9577C102.431 53.8374 101.911 54.6887 101.491 55.5377L98.8976 60.8273C98.7123 61.1915 98.4845 61.5742 98.3905 61.9728C98.2309 62.6514 98.339 65.2519 98.3457 66.1182C98.3489 66.5679 98.3955 67.0784 98.2427 67.5081C98.1903 67.6564 98.1365 67.7349 97.9914 67.8001C97.5426 68.0025 93.2778 68.0017 92.8136 67.8049C92.6662 67.7425 92.6143 67.6605 92.5731 67.5108C92.452 67.0693 92.4967 66.5568 92.4981 66.102L92.5053 63.5558C92.5117 61.4168 92.4082 61.6867 91.525 59.8024L89.1643 54.8779C88.8502 54.2233 88.2875 53.1337 88.038 52.4919C88.2685 52.019 88.2816 51.9017 88.8303 51.8282Z" fill="#080D10"/>
<path d="M97.3568 32.3499C98.1871 32.3198 101.482 32.2344 102.071 32.4366C102.216 32.4864 102.313 32.579 102.396 32.7045C102.877 33.4251 103.128 34.8794 103.565 35.718C103.641 35.8647 103.76 36.0516 103.93 36.1002C105.155 36.4508 105.152 32.8887 106.023 32.4585C106.414 32.2653 110.494 32.2683 110.903 32.4384C111.06 32.504 111.199 32.6651 111.257 32.8225C111.32 32.9911 111.272 33.1818 111.212 33.3443C111.118 33.5974 110.971 33.8331 110.853 34.0758C110.558 34.6813 110.258 35.2849 109.954 35.8864L107.216 41.4505C107.063 41.752 106.851 42.0935 106.774 42.4209C106.489 43.6403 106.956 47.2361 106.595 48.0621C106.536 48.1974 106.435 48.266 106.299 48.3152C106.144 48.3712 105.976 48.3889 105.811 48.3973C105.188 48.4294 104.549 48.3795 103.923 48.3824C103.158 48.3859 102.362 48.4448 101.6 48.3901C101.427 48.3777 101.272 48.3484 101.115 48.2745C100.814 47.9987 100.897 46.7908 100.898 46.3598L100.905 43.7474C100.905 43.4192 100.904 42.577 100.808 42.3034C100.55 41.5677 100.082 40.7123 99.7405 39.9987C98.9396 38.302 98.1283 36.6103 97.3067 34.9235C97.1394 34.5788 96.9677 34.2145 96.7982 33.8731C96.3878 33.0478 96.2129 32.426 97.3568 32.3499Z" fill="#080D10"/>
<path d="M97.3568 32.3499C98.1871 32.3198 101.482 32.2344 102.071 32.4366C102.216 32.4864 102.313 32.579 102.396 32.7045C102.877 33.4251 103.128 34.8794 103.565 35.718C103.641 35.8647 103.76 36.0516 103.93 36.1002C105.155 36.4508 105.152 32.8887 106.023 32.4585C106.414 32.2653 110.494 32.2683 110.903 32.4384C111.06 32.504 111.199 32.6651 111.257 32.8225C111.32 32.9911 111.272 33.1818 111.212 33.3443C111.118 33.5974 110.971 33.8331 110.853 34.0758C110.558 34.6813 110.258 35.2849 109.954 35.8864L107.216 41.4505C107.063 41.752 106.851 42.0935 106.774 42.4209C106.489 43.6403 106.956 47.2361 106.595 48.0621C106.536 48.1974 106.435 48.266 106.299 48.3152C106.144 48.3712 105.976 48.3889 105.811 48.3973C105.188 48.4294 104.549 48.3795 103.923 48.3824C103.158 48.3859 102.362 48.4448 101.6 48.3901C101.427 48.3777 101.272 48.3484 101.115 48.2745C100.814 47.9987 100.897 46.7908 100.898 46.3598L100.905 43.7474C100.905 43.4192 100.904 42.577 100.808 42.3034C100.55 41.5677 100.082 40.7123 99.7405 39.9987C98.9396 38.302 98.1283 36.6103 97.3067 34.9235C97.1394 34.5788 96.9677 34.2145 96.7982 33.8731C96.3878 33.0478 96.2129 32.426 97.3568 32.3499Z" fill="#080D10"/>
</svg>
