<svg xmlns="http://www.w3.org/2000/svg" width="32" height="32" fill="none"><path stroke="#FF7A00" stroke-width="1.607" d="m9.59 11.175-.006.01-.006.011a14.608 14.608 0 0 0-1.445 5.385l-.05.718.708.128 4.354.79v8.98H.803v-6.651c0-4.18.974-7.446 2.841-9.873 1.842-2.376 4.273-4.26 7.316-5.645l1.126 2.01a36.158 36.158 0 0 0-2.497 4.137Zm18.05 0-.005.01-.005.011a14.61 14.61 0 0 0-1.446 5.385l-.05.718.708.128 4.355.79v8.98H18.855v-6.651c0-4.18.973-7.446 2.84-9.873 1.843-2.376 4.273-4.26 7.316-5.645l1.127 2.01a36.153 36.153 0 0 0-2.498 4.137Z"/></svg>