<svg width="16" height="16" viewBox="0 0 16 16" fill="none" xmlns="http://www.w3.org/2000/svg">
<g id="Icn/24/Telegram">
<path id="2" fill-rule="evenodd" clip-rule="evenodd" d="M1.62893 7.83255C5.38702 6.13907 7.893 5.02263 9.14687 4.48322C12.7269 2.94309 13.4708 2.67555 13.9557 2.66672C14.0624 2.66478 14.3008 2.69211 14.4553 2.82174C14.5857 2.93119 14.6216 3.07905 14.6387 3.18282C14.6559 3.2866 14.6773 3.52299 14.6603 3.70771C14.4663 5.81603 13.6268 10.9324 13.1998 13.2937C13.019 14.2929 12.6632 14.6279 12.3187 14.6607C11.5701 14.7319 11.0017 14.149 10.2766 13.6574C9.14197 12.8881 8.50099 12.4093 7.39966 11.6586C6.12688 10.7911 6.95197 10.3143 7.67732 9.53512C7.86715 9.3312 11.1656 6.22813 11.2294 5.94664C11.2374 5.91143 11.2448 5.7802 11.1695 5.7109C11.0941 5.64161 10.9828 5.66531 10.9026 5.68415C10.7888 5.71086 8.97621 6.94997 5.46491 9.40146C4.95042 9.76686 4.48442 9.94489 4.06689 9.93556C3.60661 9.92528 2.7212 9.66638 2.06299 9.44509C1.25567 9.17366 0.614023 9.03016 0.669896 8.56919C0.698997 8.3291 1.01868 8.08355 1.62893 7.83255Z" fill="#080D10"/>
</g>
</svg>
