<svg width="15" height="15" viewBox="0 0 15 15" fill="none" xmlns="http://www.w3.org/2000/svg">
<g id="Icn/15/Twitter">
<g id="Shape (Stroke)">
<path fill-rule="evenodd" clip-rule="evenodd" d="M1.29259 1.25H5.19495L8.19941 5.63991L11.9609 1.25H13.4052L8.8407 6.57706L13.75 13.75H9.84763L6.67121 9.10885L2.69428 13.75H1.25L6.02996 8.17198L1.29259 1.25ZM8.58488 6.41387L12.7483 1.55488H12.0953L8.17325 6.13219L5.04053 1.55488H1.86433L6.40751 8.19311L1.90692 13.4451H2.55987L6.69739 8.61657L10.0021 13.4451H13.1782L8.36592 6.41387H8.58488ZM2.71611 2.04249H4.6919L7.75511 6.44187L12.3174 12.9935H10.3418L7.06734 8.29134L6.62482 7.65571L2.71611 2.04249ZM3.2936 2.34737L6.86658 7.47844L7.36448 8.19332L10.4947 12.6886H11.7399L7.51333 6.61911L4.539 2.34737H3.2936Z" fill="#080D10"/>
<path fill-rule="evenodd" clip-rule="evenodd" d="M12.7483 1.55488L8.58488 6.41387H8.36592L13.1782 13.4451H10.0021L6.69739 8.61657L2.55987 13.4451H1.90692L6.40751 8.19311L1.86433 1.55488H5.04053L8.17325 6.13219L12.0953 1.55488H12.7483ZM7.06734 8.29134L6.62482 7.65571L2.71611 2.04249H4.6919L7.75511 6.44187L12.3174 12.9935H10.3418L7.06734 8.29134Z" fill="#080D10"/>
</g>
</g>
</svg>
