<svg width="200" height="68" viewBox="0 0 200 68" fill="none" xmlns="http://www.w3.org/2000/svg">
<path d="M52.2531 36.6561C52.2531 35.1602 50.8389 33.5915 48.3808 33.5915C45.6242 33.5915 42.5977 35.6511 42.1342 39.7618C41.6607 43.9128 44.1952 45.7573 46.7501 45.7573C49.3049 45.7573 50.6426 44.743 52.0108 43.3902C50.8343 41.885 49.315 42.5805 49.0239 42.7339C48.5419 43.0064 47.9962 43.1411 47.4447 43.1237C46.4589 43.1237 45.4528 42.6731 45.4528 40.7977C51.7694 40.162 52.2522 38.1426 52.2522 36.6561H52.2531ZM49.1225 36.902C49.0819 37.3629 48.9013 38.1519 45.7025 38.5941C46.3751 36.154 47.6649 35.9708 48.2573 35.9708C48.3774 35.9652 48.4972 35.986 48.6087 36.0316C48.7202 36.0772 48.8207 36.1466 48.9034 36.2351C48.986 36.3236 49.049 36.4292 49.0879 36.5445C49.1268 36.6599 49.1408 36.7825 49.1289 36.9038L49.1225 36.902ZM38.4241 37.3021L36.9555 42.0065L35.919 33.8383C33.6065 33.8383 32.3627 35.5192 31.7141 37.2918L29.923 42.0168L29.6715 37.3423C29.5351 35.1696 27.5801 33.8476 26 33.8476L27.9108 45.6648C30.3339 45.6554 31.6422 43.9838 32.3267 42.2113L33.8414 38.194C33.8552 38.3576 34.888 45.6657 34.888 45.6657C37.3221 45.6657 38.6304 44.0979 39.3316 42.3861L42.7405 33.8486C40.3404 33.8486 39.0754 35.5192 38.4222 37.3021H38.4241ZM61.1863 33.5625C59.6873 33.5625 58.5421 34.3927 57.5747 35.6118V35.6024L58.4389 28.5C56.447 28.5 54.8273 30.2632 54.5159 32.8866L53.0178 45.5732C54.1649 45.5732 55.3819 45.2347 56.0361 44.3737C56.6202 45.1422 57.4945 45.7573 58.7927 45.7573C62.1518 45.7573 64.4561 41.7812 64.4561 38.05C64.4358 34.647 62.8161 33.5718 61.1964 33.5718L61.1863 33.5625ZM60.873 39.6608C60.5229 41.741 59.3842 43.1555 58.2887 43.1555C57.1933 43.1555 56.7096 42.6535 56.7096 42.6535C56.9215 40.8304 57.0523 39.7123 57.454 38.7484C57.8557 37.7845 58.812 36.2475 59.808 36.2475C60.7846 36.2475 61.2268 37.5695 60.874 39.6599L60.873 39.6608ZM72.8337 33.8392H70.4898L70.499 33.7158C70.6603 32.1583 71.0223 31.3384 72.2164 31.2047C73.0317 31.1224 73.3938 30.6923 73.4841 30.2212L73.7762 28.5711C69.0774 28.5402 67.5904 30.6091 67.2117 33.7672L67.2025 33.8392H67.1519C66.3872 33.8392 65.5432 34.7208 65.4013 35.838L65.3507 36.2475H66.9206L65.6031 47.3354L65.1996 49.324C65.2502 49.324 65.3101 49.3333 65.3599 49.3333C67.5618 49.2511 68.9715 47.4785 69.2829 44.9056L70.3111 36.2457H71.0481C71.7723 36.2457 72.6181 35.5071 72.7655 34.2777L72.8337 33.8392ZM85.0246 33.6335C82.3187 33.6335 79.7639 35.6623 78.9807 38.8503C78.1976 42.0383 79.3843 45.8088 83.3662 45.8088C87.3482 45.8088 89.6285 41.8822 89.6285 38.6138C89.6322 35.365 87.4707 33.6326 85.0255 33.6326L85.0246 33.6335ZM86.121 39.5571C85.9809 41.0024 85.3563 43.1957 83.6463 43.1957C81.9363 43.1957 82.1676 40.6341 82.3334 39.414C82.5149 38.1127 83.229 36.2578 84.7676 36.2578C86.1514 36.2578 86.2813 37.9285 86.1219 39.558L86.121 39.5571ZM103 37.2918L101.531 41.9962C101.491 41.6269 100.495 33.828 100.495 33.828C98.183 33.828 96.9447 35.509 96.2961 37.2815L94.505 42.0065C94.4958 41.6681 94.2535 37.332 94.2535 37.332C94.1079 35.1593 92.1547 33.8373 90.5682 33.8373L92.4689 45.6545C94.892 45.6451 96.2003 43.9735 96.8848 42.201L98.3939 38.1837C98.4032 38.3473 99.4406 45.6554 99.4406 45.6554C101.875 45.6554 103.177 44.0876 103.884 42.3758L107.296 33.8383C104.902 33.8383 103.634 35.509 102.99 37.2918H103ZM75.0467 28.5692L73.075 44.771L72.6715 46.7698C72.7213 46.7698 72.7821 46.7792 72.8318 46.7792C74.9527 46.7483 76.4618 44.8533 76.7447 42.4646L77.8807 33.1689C78.2252 30.3296 76.5659 28.5673 75.0467 28.5673V28.5692Z" fill="#1F2122"/>
<path d="M114.592 45.1207V32.666H121.795V33.9028H116.095V38.1356H120.689V39.3724H116.095V43.884H122.106V45.1207H114.592Z" fill="#1F2122"/>
<path d="M123.562 45.1207L126.792 40.435L123.769 36.0105H125.445L127.656 39.3201L129.849 36.0105H131.404L128.416 40.3305L131.715 45.1207H130.022L127.587 41.4453L125.099 45.1207H123.562Z" fill="#1F2122"/>
<path d="M133.828 48.291V36.0105H135.262V37.5434C135.538 37.0789 135.958 36.684 136.523 36.3589C137.087 36.0221 137.686 35.8537 138.319 35.8537C139.528 35.8537 140.513 36.2718 141.273 37.1079C142.044 37.9324 142.43 39.0414 142.43 40.435V40.5743C142.43 41.9795 142.05 43.1175 141.29 43.9885C140.542 44.8478 139.551 45.2775 138.319 45.2775C137.617 45.2775 137.001 45.1265 136.471 44.8246C135.941 44.5111 135.538 44.1104 135.262 43.6227V48.291H133.828ZM138.181 44.0756C139.079 44.0756 139.764 43.7795 140.236 43.1872C140.709 42.5949 140.945 41.7472 140.945 40.644V40.5046C140.945 39.4014 140.68 38.5537 140.15 37.9614C139.632 37.3576 138.97 37.0556 138.164 37.0556C137.288 37.0556 136.574 37.3518 136.022 37.944C135.48 38.5247 135.21 39.3782 135.21 40.5046V40.644C135.21 41.7704 135.475 42.624 136.004 43.2046C136.546 43.7853 137.271 44.0756 138.181 44.0756Z" fill="#1F2122"/>
<path d="M148.527 45.2775C147.237 45.2775 146.184 44.8594 145.366 44.0233C144.56 43.1756 144.157 42.055 144.157 40.6614V40.5221C144.157 39.1518 144.548 38.0311 145.331 37.1602C146.126 36.2892 147.145 35.8537 148.389 35.8537C149.54 35.8537 150.502 36.2311 151.274 36.986C152.057 37.7292 152.448 38.8614 152.448 40.3827V40.853H145.642C145.677 41.8982 145.936 42.6995 146.42 43.2569C146.915 43.8027 147.623 44.0756 148.544 44.0756C149.961 44.0756 150.761 43.5472 150.945 42.4904H152.379C152.229 43.3846 151.809 44.0756 151.118 44.5633C150.427 45.0394 149.563 45.2775 148.527 45.2775ZM145.694 39.6859H150.98C150.853 37.9324 149.989 37.0556 148.389 37.0556C147.663 37.0556 147.064 37.2937 146.592 37.7698C146.12 38.2343 145.821 38.873 145.694 39.6859Z" fill="#1F2122"/>
<path d="M154.821 45.1207V36.0105H156.255V37.6479C156.565 37.0789 156.945 36.6434 157.395 36.3415C157.855 36.0395 158.466 35.877 159.226 35.8537V37.2124C158.235 37.2589 157.492 37.4911 156.997 37.9092C156.502 38.3272 156.255 39.0647 156.255 40.1214V45.1207H154.821Z" fill="#1F2122"/>
<path d="M164.319 45.2427C163.524 45.2427 162.92 45.0278 162.505 44.5982C162.091 44.1685 161.883 43.582 161.883 42.8388V37.2298H160.588V36.0105H161.883V33.9376H163.317V36.0105H165.424V37.2298H163.317V42.6995C163.317 43.582 163.691 44.0233 164.44 44.0233C164.854 44.0233 165.223 43.9594 165.545 43.8317V45.0511C165.188 45.1788 164.78 45.2427 164.319 45.2427Z" fill="#1F2122"/>
<path d="M170.684 45.2775C169.601 45.2775 168.749 45.0162 168.127 44.4936C167.517 43.9711 167.189 43.2453 167.143 42.3162H168.542C168.657 43.4891 169.365 44.0756 170.666 44.0756C171.979 44.0756 172.636 43.5936 172.636 42.6298C172.636 42.1769 172.469 41.8459 172.135 41.6369C171.812 41.4162 171.277 41.2363 170.528 41.0969C169.354 40.8763 168.536 40.5743 168.075 40.1911C167.615 39.7963 167.384 39.204 167.384 38.4143C167.384 37.6247 167.695 37.0034 168.317 36.5505C168.951 36.086 169.659 35.8537 170.442 35.8537C172.4 35.8537 173.488 36.7305 173.707 38.484H172.325C172.221 37.9847 172.02 37.6247 171.72 37.404C171.421 37.1718 170.989 37.0556 170.425 37.0556C169.906 37.0556 169.492 37.1776 169.181 37.4215C168.87 37.6537 168.715 37.9673 168.715 38.3621C168.715 38.7801 168.858 39.0879 169.146 39.2853C169.446 39.4827 170.004 39.6569 170.822 39.8079C171.363 39.9124 171.795 40.0169 172.117 40.1214C172.451 40.2143 172.774 40.3595 173.085 40.5569C173.407 40.7543 173.638 41.0156 173.776 41.3408C173.925 41.6543 174 42.0433 174 42.5078C174 43.3556 173.712 44.0291 173.137 44.5285C172.572 45.0278 171.755 45.2775 170.684 45.2775Z" fill="#1F2122"/>
</svg>
