<svg width="16" height="16" viewBox="0 0 16 16" fill="none" xmlns="http://www.w3.org/2000/svg">
<g id="Icn/24/Whatsapp">
<path id="Shape" fill-rule="evenodd" clip-rule="evenodd" d="M8.00016 1.33337C4.31826 1.33337 1.3335 4.31814 1.3335 8.00004C1.3335 9.25977 1.68353 10.4396 2.29187 11.4456L1.69737 13.4668C1.3335 14.3889 1.61127 14.6667 2.53333 14.3028L4.55464 13.7083C5.56055 14.3167 6.74043 14.6667 8.00016 14.6667C11.682 14.6667 14.6668 11.6819 14.6668 8.00004C14.6668 4.31814 11.682 1.33337 8.00016 1.33337ZM6.4923 9.50851C7.84063 10.8568 9.12816 11.0346 9.58276 11.0513C10.2742 11.0768 10.9475 10.5487 11.21 9.93617C11.2743 9.78617 11.2582 9.60571 11.1505 9.46764C10.7856 9.00037 10.2917 8.66557 9.8091 8.33231C9.60056 8.18804 9.31383 8.23271 9.16023 8.43704L8.75976 9.04711C8.7153 9.11477 8.62696 9.13804 8.5567 9.09784C8.2857 8.94291 7.89056 8.67871 7.6063 8.39444C7.32236 8.11051 7.07423 7.73324 6.93496 7.47971C6.89836 7.41304 6.91863 7.33071 6.97963 7.28538L7.5953 6.82817C7.7789 6.66924 7.81116 6.39929 7.67603 6.20156C7.37683 5.76383 7.0283 5.20751 6.52383 4.83955C6.38605 4.73904 6.21176 4.72776 6.06786 4.78943C5.45463 5.05224 4.92399 5.7253 4.94948 6.41801C4.96622 6.87264 5.14398 8.16017 6.4923 9.50851Z" fill="#080D10"/>
</g>
</svg>
