<svg width="140" height="100" viewBox="0 0 140 100" fill="none" xmlns="http://www.w3.org/2000/svg">
<path d="M79.0467 44.8183L75.5442 58.3958H73.1421L70.9049 50.2604C70.8499 50.0623 70.7888 49.827 70.7215 49.5546C70.6543 49.2822 70.5871 49.0036 70.5198 48.7188C70.4587 48.434 70.4037 48.174 70.3548 47.9387C70.312 47.6972 70.2815 47.5115 70.2631 47.3815C70.2509 47.5115 70.2234 47.6941 70.1806 47.9294C70.1378 48.1647 70.0859 48.4247 70.0247 48.7095C69.9697 48.9881 69.9086 49.2667 69.8413 49.5453C69.7741 49.8177 69.713 50.0592 69.658 50.2697L67.4575 58.3958H65.0645L61.5712 44.8183H63.7809L65.7155 52.7772C65.7766 53.031 65.8377 53.3065 65.8988 53.6037C65.9661 53.8947 66.0272 54.1888 66.0822 54.486C66.1433 54.7832 66.1983 55.0741 66.2472 55.3589C66.2961 55.6376 66.3359 55.8914 66.3664 56.1205C66.397 55.8852 66.4367 55.6252 66.4856 55.3404C66.5345 55.0494 66.5865 54.7553 66.6415 54.4581C66.7026 54.1547 66.7637 53.8637 66.8249 53.5851C66.8921 53.3065 66.9593 53.0558 67.0266 52.8329L69.2087 44.8183H71.3542L73.5822 52.8608C73.6494 53.0898 73.7136 53.3468 73.7747 53.6316C73.8419 53.9164 73.9061 54.2074 73.9672 54.5045C74.0284 54.8017 74.0834 55.0896 74.1323 55.3682C74.1812 55.6468 74.2209 55.8976 74.2515 56.1205C74.2943 55.8171 74.3493 55.4704 74.4165 55.0803C74.4837 54.6903 74.5601 54.294 74.6457 53.8916C74.7313 53.4892 74.8169 53.1177 74.9025 52.7772L76.8279 44.8183H79.0467Z" fill="#16171A"/>
<path d="M82.8792 48.1151V58.3958H80.7245V48.1151H82.8792ZM81.8156 44.1775C82.1457 44.1775 82.4299 44.2673 82.6683 44.4468C82.9128 44.6264 83.035 44.9359 83.035 45.3755C83.035 45.8089 82.9128 46.1185 82.6683 46.3042C82.4299 46.4837 82.1457 46.5735 81.8156 46.5735C81.4733 46.5735 81.183 46.4837 80.9446 46.3042C80.7123 46.1185 80.5962 45.8089 80.5962 45.3755C80.5962 44.9359 80.7123 44.6264 80.9446 44.4468C81.183 44.2673 81.4733 44.1775 81.8156 44.1775Z" fill="#16171A"/>
<path d="M92.7905 55.4611C92.7905 56.1359 92.6285 56.7055 92.3045 57.1699C91.9806 57.6342 91.5069 57.9871 90.8834 58.2286C90.2661 58.4639 89.5081 58.5815 88.6096 58.5815C87.9005 58.5815 87.2893 58.5289 86.7758 58.4236C86.2685 58.3246 85.7887 58.1698 85.3364 57.9593V56.074C85.8193 56.3031 86.3602 56.5012 86.9592 56.6684C87.5644 56.8356 88.1359 56.9191 88.6738 56.9191C89.3828 56.9191 89.8932 56.8077 90.2049 56.5848C90.5167 56.3557 90.6725 56.0524 90.6725 55.6747C90.6725 55.4518 90.6084 55.2537 90.48 55.0803C90.3577 54.9008 90.1255 54.7181 89.7832 54.5324C89.447 54.3405 88.9519 54.1114 88.2978 53.8452C87.656 53.5851 87.1151 53.3251 86.675 53.0651C86.2349 52.805 85.9018 52.4924 85.6756 52.1271C85.4495 51.7556 85.3364 51.282 85.3364 50.7062C85.3364 49.7961 85.6909 49.1057 86.3999 48.6352C87.1151 48.1585 88.0595 47.9201 89.233 47.9201C89.8565 47.9201 90.4433 47.9851 90.9934 48.1151C91.5497 48.239 92.0937 48.4216 92.6254 48.6631L91.947 50.3069C91.4885 50.1025 91.027 49.9354 90.5625 49.8054C90.1041 49.6692 89.6365 49.601 89.1597 49.601C88.6035 49.601 88.1786 49.6877 87.8853 49.8611C87.598 50.0344 87.4543 50.2821 87.4543 50.604C87.4543 50.8455 87.5246 51.0498 87.6652 51.217C87.8058 51.3841 88.0472 51.5513 88.3895 51.7185C88.7379 51.8856 89.2208 52.093 89.8382 52.3407C90.4433 52.576 90.9659 52.8236 91.406 53.0836C91.8522 53.3375 92.1945 53.6501 92.4329 54.0216C92.6713 54.3931 92.7905 54.8729 92.7905 55.4611Z" fill="#16171A"/>
<path d="M98.5301 58.5815C97.3198 58.5815 96.3479 58.1357 95.6144 57.2442C94.887 56.3465 94.5234 55.0246 94.5234 53.2787C94.5234 51.5142 94.8932 50.1799 95.6328 49.276C96.3785 48.3721 97.3595 47.9201 98.5759 47.9201C99.0894 47.9201 99.5386 47.9913 99.9237 48.1337C100.309 48.2699 100.639 48.4557 100.914 48.6909C101.195 48.9262 101.433 49.1893 101.629 49.4803H101.73C101.699 49.2884 101.663 49.0129 101.62 48.6538C101.583 48.2885 101.565 47.9511 101.565 47.6415V43.9453H103.729V58.3958H102.042L101.657 56.9934H101.565C101.382 57.2906 101.149 57.5599 100.868 57.8014C100.593 58.0367 100.263 58.2255 99.8779 58.3679C99.4989 58.5103 99.0496 58.5815 98.5301 58.5815ZM99.1352 56.8077C100.058 56.8077 100.709 56.5384 101.088 55.9997C101.467 55.4611 101.663 54.6531 101.675 53.5759V53.288C101.675 52.1364 101.492 51.2541 101.125 50.6412C100.758 50.0221 100.089 49.7125 99.1168 49.7125C98.3406 49.7125 97.7477 50.0313 97.3381 50.669C96.9347 51.3006 96.733 52.1828 96.733 53.3158C96.733 54.4488 96.9347 55.3156 97.3381 55.9162C97.7477 56.5105 98.3467 56.8077 99.1352 56.8077Z" fill="#16171A"/>
<path d="M115.804 53.2322C115.804 54.0866 115.694 54.8451 115.474 55.5075C115.254 56.17 114.933 56.7303 114.511 57.1885C114.089 57.6404 113.582 57.9871 112.989 58.2286C112.396 58.4639 111.727 58.5815 110.981 58.5815C110.284 58.5815 109.646 58.4639 109.065 58.2286C108.484 57.9871 107.98 57.6404 107.552 57.1885C107.13 56.7303 106.803 56.17 106.571 55.5075C106.339 54.8451 106.223 54.0866 106.223 53.2322C106.223 52.0992 106.415 51.1396 106.8 50.3533C107.191 49.5608 107.748 48.9572 108.469 48.5423C109.19 48.1275 110.049 47.9201 111.045 47.9201C111.98 47.9201 112.806 48.1275 113.521 48.5423C114.236 48.9572 114.795 49.5608 115.199 50.3533C115.602 51.1458 115.804 52.1054 115.804 53.2322ZM108.441 53.2322C108.441 53.9814 108.53 54.6222 108.707 55.1546C108.891 55.6871 109.172 56.0957 109.551 56.3805C109.93 56.6591 110.419 56.7984 111.018 56.7984C111.617 56.7984 112.106 56.6591 112.485 56.3805C112.864 56.0957 113.142 55.6871 113.319 55.1546C113.496 54.6222 113.585 53.9814 113.585 53.2322C113.585 52.4831 113.496 51.8485 113.319 51.3284C113.142 50.8022 112.864 50.4028 112.485 50.1304C112.106 49.8518 111.614 49.7125 111.009 49.7125C110.116 49.7125 109.465 50.0159 109.056 50.6226C108.646 51.2294 108.441 52.0992 108.441 53.2322Z" fill="#16171A"/>
<path d="M129.749 47.9201C130.886 47.9201 131.742 48.2173 132.317 48.8117C132.897 49.406 133.188 50.3595 133.188 51.672V58.3958H131.033V52.0621C131.033 51.282 130.883 50.6938 130.584 50.2976C130.284 49.9013 129.829 49.7032 129.218 49.7032C128.362 49.7032 127.744 49.9818 127.365 50.539C126.993 51.0901 126.806 51.8918 126.806 52.9443V58.3958H124.652V52.0621C124.652 51.542 124.584 51.1086 124.45 50.7619C124.321 50.409 124.123 50.1459 123.854 49.9725C123.585 49.793 123.246 49.7032 122.836 49.7032C122.243 49.7032 121.77 49.8394 121.415 50.1118C121.067 50.3842 120.816 50.7867 120.663 51.3191C120.51 51.8454 120.434 52.4924 120.434 53.2601V58.3958H118.279V48.1151H119.957L120.26 49.4989H120.379C120.587 49.1398 120.843 48.8457 121.149 48.6166C121.461 48.3814 121.806 48.208 122.185 48.0966C122.564 47.9789 122.958 47.9201 123.368 47.9201C124.126 47.9201 124.765 48.0563 125.284 48.3287C125.804 48.595 126.192 49.0036 126.449 49.5546H126.614C126.931 48.9974 127.375 48.5857 127.943 48.3195C128.512 48.0532 129.114 47.9201 129.749 47.9201Z" fill="#16171A"/>
<path d="M6 45.8364C7.62628 45.3345 11.8546 44.8469 15.7577 46.912C15.8254 50.8559 17.9531 60.2064 25.9219 66.0577C21.5852 66.703 11.5293 63.5623 6 45.8364Z" fill="#080D10"/>
<path d="M16.3675 38.7375C19.8911 39.0961 27.2229 44.8469 28.3613 64.9821C24.8377 64.4802 17.5059 58.5285 16.3675 38.7375Z" fill="#080D10" fill-opacity="0.7"/>
<path d="M28.9712 34.4351C27.326 36.2994 24.0877 40.7165 24.2956 43.4701C25.2443 44.6891 27.5075 49.0202 28.9712 56.5924C30.4348 49.0202 32.6981 44.6891 33.6467 43.4701C33.8546 40.7165 30.6163 36.2994 28.9712 34.4351Z" fill="#080D10" fill-opacity="0.4"/>
<path d="M41.5748 38.7375C38.0512 39.0961 30.7194 44.8469 29.5811 64.9821C33.1047 64.4802 40.4365 58.5285 41.5748 38.7375Z" fill="#080D10" fill-opacity="0.7"/>
<path d="M42.1847 46.912C46.0877 44.8469 50.3161 45.3345 51.9423 45.8364C46.413 63.5623 36.3572 66.703 32.0204 66.0577C39.9892 60.2064 42.1169 50.8559 42.1847 46.912Z" fill="#080D10"/>
</svg>
