<svg width="140" height="100" viewBox="0 0 140 100" fill="none" xmlns="http://www.w3.org/2000/svg">
<path d="M36.7096 44.3451C35.7204 43.8252 34.6107 43.5651 33.3805 43.5651C32.1032 43.5651 30.9581 43.841 29.9459 44.3916C28.9331 44.9431 28.1352 45.7042 27.5511 46.6744C26.967 47.6446 26.6748 48.7588 26.6748 50.0163C26.6748 51.2588 26.9707 52.365 27.5625 53.3352C28.1542 54.3053 28.9916 55.07 30.0746 55.6292C31.1566 56.1879 32.4145 56.4675 33.8477 56.4675C34.9846 56.4675 35.9891 56.2927 36.8618 55.9436C37.7336 55.594 38.4582 55.0935 39.0346 54.4413L37.0952 52.3451C36.6747 52.7494 36.2112 53.052 35.705 53.2534C35.1989 53.4553 34.6107 53.5565 33.941 53.5565C33.1934 53.5565 32.5427 53.4205 31.9903 53.1486C31.4371 52.8772 31.0089 52.4815 30.7053 51.9607C30.5405 51.6789 30.4244 51.371 30.349 51.0411H39.8524C39.8674 50.8862 39.8832 50.7191 39.8991 50.5402C39.9145 50.3618 39.9222 50.2024 39.9222 50.0628C39.9222 48.7119 39.634 47.5515 39.0576 46.5809C38.4813 45.6107 37.6988 44.8654 36.7096 44.3451ZM31.7565 46.7209C32.2314 46.4495 32.7806 46.3131 33.4036 46.3131C34.0267 46.3131 34.5718 46.4495 35.0394 46.7209C35.5065 46.9928 35.8722 47.369 36.1373 47.8505C36.3124 48.1688 36.424 48.5282 36.4834 48.9214H30.306C30.3667 48.5326 30.4762 48.1767 30.6468 47.8618C30.9115 47.3731 31.2812 46.9928 31.7565 46.7209Z" fill="#080D10"/>
<path d="M25.9488 42.4249V39.9796H12.1871V43.0541H20.973L12 53.8368V56.2822H26.2991V53.2081H16.9959L25.9488 42.4249Z" fill="#080D10"/>
<path d="M123.355 39V45.0683C123.065 44.7506 122.74 44.4783 122.374 44.2633C121.579 43.7976 120.653 43.5646 119.593 43.5646C118.409 43.5646 117.343 43.8288 116.392 44.3563C115.442 44.8843 114.691 45.6296 114.138 46.5921C113.585 47.5551 113.308 48.6965 113.308 50.0158C113.308 51.3198 113.585 52.4535 114.138 53.416C114.691 54.3789 115.442 55.1278 116.392 55.6635C117.343 56.1992 118.409 56.467 119.593 56.467C120.699 56.467 121.645 56.234 122.432 55.7683C122.846 55.5232 123.206 55.206 123.519 54.8254V56.2805H127V39H123.355ZM122.993 51.8672C122.704 52.3875 122.319 52.7872 121.836 53.0668C121.353 53.346 120.816 53.486 120.224 53.486C119.617 53.486 119.071 53.346 118.589 53.0668C118.106 52.7872 117.72 52.3875 117.432 51.8672C117.144 51.3473 117 50.7299 117 50.0158C117 49.2863 117.144 48.6648 117.432 48.1526C117.72 47.64 118.106 47.2443 118.589 46.9648C119.071 46.6852 119.617 46.5456 120.224 46.5456C120.816 46.5456 121.353 46.6852 121.836 46.9648C122.319 47.2443 122.704 47.64 122.993 48.1526C123.281 48.6648 123.425 49.2863 123.425 50.0158C123.425 50.7299 123.281 51.3473 122.993 51.8672Z" fill="#080D10"/>
<path d="M109.443 44.159C108.655 43.7629 107.764 43.5651 106.767 43.5651C105.693 43.5651 104.735 43.7905 103.893 44.2403C103.393 44.5083 102.971 44.8532 102.608 45.258V43.7511H99.1268V56.281H102.772V50.0863C102.772 49.3099 102.9 48.6735 103.157 48.1762C103.414 47.6798 103.773 47.3112 104.232 47.07C104.691 46.8298 105.21 46.7091 105.786 46.7091C106.596 46.7091 107.223 46.9499 107.667 47.4309C108.11 47.9124 108.332 48.6577 108.332 49.6667V56.281H111.977V49.108C111.977 47.8352 111.751 46.7905 111.3 45.9756C110.848 45.1604 110.229 44.5547 109.443 44.159Z" fill="#080D10"/>
<path d="M77.1195 52.2602L73.5911 43.7502H69.8293L75.271 56.3848L75.2264 56.4896C74.9772 57.0488 74.7008 57.4485 74.3972 57.6893C74.0932 57.93 73.6845 58.0502 73.1702 58.0502C72.8117 58.0502 72.4497 57.9806 72.0841 57.8406C71.7179 57.701 71.3949 57.5068 71.1143 57.2584L69.7826 59.8437C70.1873 60.2006 70.7093 60.4801 71.3482 60.6821C71.9866 60.8835 72.6332 60.9847 73.2871 60.9847C74.0501 60.9847 74.7475 60.8681 75.3782 60.6355C76.0089 60.4025 76.5853 59.9987 77.1073 59.4241C77.6289 58.8496 78.0919 58.0578 78.4975 57.0488L84.1751 43.7502H80.6702L77.1195 52.2602Z" fill="#080D10"/>
<path d="M67.8382 52.3451C67.4178 52.7494 66.9542 53.052 66.4481 53.2534C65.9415 53.4553 65.3538 53.5565 64.6841 53.5565C63.9365 53.5565 63.2858 53.4205 62.733 53.1486C62.1802 52.8772 61.752 52.4815 61.4479 51.9607C61.2833 51.6789 61.1674 51.371 61.092 51.0411H70.595C70.6104 50.8862 70.6263 50.7191 70.6421 50.5402C70.6571 50.3618 70.6652 50.2024 70.6652 50.0628C70.6652 48.7119 70.3771 47.5515 69.8007 46.5809C69.2244 45.6107 68.4418 44.8654 67.4526 44.3451C66.4635 43.8252 65.3538 43.5651 64.1231 43.5651C62.8458 43.5651 61.7012 43.841 60.6889 44.3916C59.6762 44.9431 58.8783 45.7042 58.2938 46.6744C57.7097 47.6446 57.4179 48.7588 57.4179 50.0163C57.4179 51.2588 57.7133 52.365 58.3055 53.3352C58.8973 54.3053 59.7347 55.07 60.8172 55.6292C61.8997 56.1879 63.1575 56.4675 64.5907 56.4675C65.7276 56.4675 66.7322 56.2927 67.6045 55.9436C68.4767 55.594 69.2012 55.0935 69.7776 54.4413L67.8382 52.3451ZM62.4996 46.7209C62.9745 46.4495 63.5236 46.3131 64.1467 46.3131C64.7697 46.3131 65.3149 46.4495 65.782 46.7209C66.2497 46.9928 66.6153 47.369 66.8803 47.8505C67.0554 48.1688 67.167 48.5282 67.2261 48.9214H61.049C61.1097 48.5326 61.2193 48.1767 61.3899 47.8618C61.6545 47.3731 62.0243 46.9928 62.4996 46.7209Z" fill="#080D10"/>
<path d="M53.9169 47.9565C53.7687 47.8943 53.6124 47.8438 53.4561 47.7931C54.0937 47.459 54.6102 47.0129 54.9917 46.4425C55.4122 45.8138 55.6229 45.0726 55.6229 44.2185C55.6229 42.9452 55.1045 41.9209 54.0691 41.144C53.0328 40.368 51.4872 39.9796 49.431 39.9796H41.4407V56.2822H49.8986C52.0478 56.2822 53.6754 55.8906 54.7814 55.106C55.8875 54.3224 56.4403 53.2316 56.4403 51.8341C56.4403 50.8874 56.2183 50.0875 55.7747 49.4353C55.3306 48.7831 54.7117 48.2903 53.9169 47.9565ZM48.9638 42.821C49.8828 42.821 50.5878 42.9805 51.0781 43.2985C51.5688 43.6169 51.8144 44.0943 51.8144 44.7307C51.8144 45.3829 51.5688 45.8685 51.0781 46.1864C50.5878 46.5049 49.8828 46.6639 48.9638 46.6639H45.202V42.821H48.9638ZM51.8493 52.9638C51.3432 53.2822 50.5991 53.4412 49.6181 53.4412H45.202V49.4118H49.6181C50.5991 49.4118 51.3432 49.5789 51.8493 49.9127C52.3554 50.247 52.6087 50.7551 52.6087 51.438C52.6087 52.1368 52.3554 52.6458 51.8493 52.9638Z" fill="#080D10"/>
<path d="M97.2218 46.8325C95.5847 43.3338 91.3978 41.8144 87.8875 43.4463C87.1829 43.7733 86.8789 44.6076 87.2074 45.3094C87.5354 46.0113 88.3724 46.3149 89.0765 45.9874C91.1803 45.0095 93.6911 45.9206 94.6716 48.0177C95.6526 50.1148 94.7396 52.6175 92.6353 53.5949C90.5315 54.5732 88.0207 53.6622 87.0397 51.5651C86.8816 51.2263 86.7706 50.8767 86.7076 50.519L87.723 50.5276C88.0502 50.5303 88.2274 50.1459 88.0117 49.9002L85.7628 47.3338C85.6147 47.1645 85.3514 47.1608 85.1987 47.3262L82.8547 49.8542C82.6309 50.0954 82.8008 50.486 83.1298 50.4888L83.867 50.4951C83.9467 51.2729 84.157 52.038 84.49 52.7503C86.1267 56.2489 90.314 57.7683 93.8243 56.1369C97.3342 54.505 98.858 50.3311 97.2218 46.8325Z" fill="#080D10" fill-opacity="0.7"/>
</svg>
